<svg width="60" height="60" viewBox="0 0 60 60" fill="none" xmlns="http://www.w3.org/2000/svg">
<rect width="60" height="60" rx="30" fill="white" fill-opacity="0.1"/>
<path d="M40.4775 32.8181L38.37 24.3863C38.2888 24.0616 38.1015 23.7734 37.8376 23.5675C37.5738 23.3616 37.2487 23.2498 36.9141 23.25H30.75V21.75C30.75 21.3522 30.592 20.9706 30.3107 20.6893C30.0294 20.408 29.6478 20.25 29.25 20.25H25.5C25.1022 20.25 24.7206 20.408 24.4393 20.6893C24.158 20.9706 24 21.3522 24 21.75V23.25H23.0859C22.7513 23.2498 22.4262 23.3616 22.1624 23.5675C21.8985 23.7734 21.7112 24.0616 21.63 24.3863L19.5225 32.8181C19.5075 32.8776 19.5 32.9387 19.5 33V36C19.5 36.3978 19.658 36.7794 19.9393 37.0607C20.2206 37.342 20.6022 37.5 21 37.5H39C39.3978 37.5 39.7794 37.342 40.0607 37.0607C40.342 36.7794 40.5 36.3978 40.5 36V33C40.5 32.9387 40.4925 32.8776 40.4775 32.8181ZM25.5 21.75H29.25V23.25H25.5V21.75ZM23.0859 24.75H36.9141L38.7891 32.25H21.2109L23.0859 24.75ZM21 36V33.75H39V36H21ZM24 27C24 26.8011 24.079 26.6103 24.2197 26.4697C24.3603 26.329 24.5511 26.25 24.75 26.25H26.25C26.4489 26.25 26.6397 26.329 26.7803 26.4697C26.921 26.6103 27 26.8011 27 27C27 27.1989 26.921 27.3897 26.7803 27.5303C26.6397 27.671 26.4489 27.75 26.25 27.75H24.75C24.5511 27.75 24.3603 27.671 24.2197 27.5303C24.079 27.3897 24 27.1989 24 27ZM28.5 27C28.5 26.8011 28.579 26.6103 28.7197 26.4697C28.8603 26.329 29.0511 26.25 29.25 26.25H30.75C30.9489 26.25 31.1397 26.329 31.2803 26.4697C31.421 26.6103 31.5 26.8011 31.5 27C31.5 27.1989 31.421 27.3897 31.2803 27.5303C31.1397 27.671 30.9489 27.75 30.75 27.75H29.25C29.0511 27.75 28.8603 27.671 28.7197 27.5303C28.579 27.3897 28.5 27.1989 28.5 27ZM33 27C33 26.8011 33.079 26.6103 33.2197 26.4697C33.3603 26.329 33.5511 26.25 33.75 26.25H35.25C35.4489 26.25 35.6397 26.329 35.7803 26.4697C35.921 26.6103 36 26.8011 36 27C36 27.1989 35.921 27.3897 35.7803 27.5303C35.6397 27.671 35.4489 27.75 35.25 27.75H33.75C33.5511 27.75 33.3603 27.671 33.2197 27.5303C33.079 27.3897 33 27.1989 33 27ZM24 30C24 29.8011 24.079 29.6103 24.2197 29.4697C24.3603 29.329 24.5511 29.25 24.75 29.25H26.25C26.4489 29.25 26.6397 29.329 26.7803 29.4697C26.921 29.6103 27 29.8011 27 30C27 30.1989 26.921 30.3897 26.7803 30.5303C26.6397 30.671 26.4489 30.75 26.25 30.75H24.75C24.5511 30.75 24.3603 30.671 24.2197 30.5303C24.079 30.3897 24 30.1989 24 30ZM28.5 30C28.5 29.8011 28.579 29.6103 28.7197 29.4697C28.8603 29.329 29.0511 29.25 29.25 29.25H30.75C30.9489 29.25 31.1397 29.329 31.2803 29.4697C31.421 29.6103 31.5 29.8011 31.5 30C31.5 30.1989 31.421 30.3897 31.2803 30.5303C31.1397 30.671 30.9489 30.75 30.75 30.75H29.25C29.0511 30.75 28.8603 30.671 28.7197 30.5303C28.579 30.3897 28.5 30.1989 28.5 30ZM33 30C33 29.8011 33.079 29.6103 33.2197 29.4697C33.3603 29.329 33.5511 29.25 33.75 29.25H35.25C35.4489 29.25 35.6397 29.329 35.7803 29.4697C35.921 29.6103 36 29.8011 36 30C36 30.1989 35.921 30.3897 35.7803 30.5303C35.6397 30.671 35.4489 30.75 35.25 30.75H33.75C33.5511 30.75 33.3603 30.671 33.2197 30.5303C33.079 30.3897 33 30.1989 33 30Z" fill="#EAE68B"/>
</svg>
