<svg width="95" height="82" viewBox="0 0 95 82" fill="none" xmlns="http://www.w3.org/2000/svg">
<circle cx="1.54225" cy="1.54225" r="1.54225" transform="matrix(-1 0 0 1 94.6758 0)" fill="white" fill-opacity="0.2"/>
<circle cx="1.54225" cy="1.54225" r="1.54225" transform="matrix(-1 0 0 1 81.5918 0)" fill="white" fill-opacity="0.2"/>
<circle cx="1.54225" cy="1.54225" r="1.54225" transform="matrix(-1 0 0 1 68.5059 0)" fill="white" fill-opacity="0.2"/>
<circle cx="1.54225" cy="1.54225" r="1.54225" transform="matrix(-1 0 0 1 55.4219 0)" fill="white" fill-opacity="0.2"/>
<circle cx="1.54225" cy="1.54225" r="1.54225" transform="matrix(-1 0 0 1 94.6758 13.0845)" fill="white" fill-opacity="0.2"/>
<circle cx="1.54225" cy="1.54225" r="1.54225" transform="matrix(-1 0 0 1 81.5918 13.0845)" fill="white" fill-opacity="0.2"/>
<circle cx="1.54225" cy="1.54225" r="1.54225" transform="matrix(-1 0 0 1 68.5059 13.0845)" fill="white" fill-opacity="0.2"/>
<circle cx="1.54225" cy="1.54225" r="1.54225" transform="matrix(-1 0 0 1 55.4219 13.0845)" fill="white" fill-opacity="0.2"/>
<circle cx="1.54225" cy="1.54225" r="1.54225" transform="matrix(-1 0 0 1 94.6758 26.1689)" fill="white" fill-opacity="0.2"/>
<circle cx="1.54225" cy="1.54225" r="1.54225" transform="matrix(-1 0 0 1 81.5918 26.1689)" fill="white" fill-opacity="0.2"/>
<circle cx="1.54225" cy="1.54225" r="1.54225" transform="matrix(-1 0 0 1 68.5059 26.1689)" fill="white" fill-opacity="0.2"/>
<circle cx="1.54225" cy="1.54225" r="1.54225" transform="matrix(-1 0 0 1 55.4219 26.1689)" fill="white" fill-opacity="0.2"/>
<circle cx="1.54225" cy="1.54225" r="1.54225" transform="matrix(-1 0 0 1 94.6758 39.2534)" fill="white" fill-opacity="0.2"/>
<circle cx="1.54225" cy="1.54225" r="1.54225" transform="matrix(-1 0 0 1 81.5918 39.2534)" fill="white" fill-opacity="0.2"/>
<circle cx="1.54225" cy="1.54225" r="1.54225" transform="matrix(-1 0 0 1 68.5059 39.2534)" fill="white" fill-opacity="0.2"/>
<circle cx="1.54225" cy="1.54225" r="1.54225" transform="matrix(-1 0 0 1 55.4219 39.2534)" fill="white" fill-opacity="0.2"/>
<circle cx="1.54225" cy="1.54225" r="1.54225" transform="matrix(-1 0 0 1 42.3379 39.2534)" fill="white" fill-opacity="0.2"/>
<circle cx="1.54225" cy="1.54225" r="1.54225" transform="matrix(-1 0 0 1 29.2539 39.2534)" fill="white" fill-opacity="0.2"/>
<circle cx="1.54225" cy="1.54225" r="1.54225" transform="matrix(-1 0 0 1 16.168 39.2534)" fill="white" fill-opacity="0.2"/>
<circle cx="1.54225" cy="1.54225" r="1.54225" transform="matrix(-1 0 0 1 3.08398 39.2534)" fill="white" fill-opacity="0.2"/>
<circle cx="1.54225" cy="1.54225" r="1.54225" transform="matrix(-1 0 0 1 94.6758 52.3379)" fill="white" fill-opacity="0.2"/>
<circle cx="1.54225" cy="1.54225" r="1.54225" transform="matrix(-1 0 0 1 81.5918 52.3379)" fill="white" fill-opacity="0.2"/>
<circle cx="1.54225" cy="1.54225" r="1.54225" transform="matrix(-1 0 0 1 68.5059 52.3379)" fill="white" fill-opacity="0.2"/>
<circle cx="1.54225" cy="1.54225" r="1.54225" transform="matrix(-1 0 0 1 55.4219 52.3379)" fill="white" fill-opacity="0.2"/>
<circle cx="1.54225" cy="1.54225" r="1.54225" transform="matrix(-1 0 0 1 42.3379 52.3379)" fill="white" fill-opacity="0.2"/>
<circle cx="1.54225" cy="1.54225" r="1.54225" transform="matrix(-1 0 0 1 29.2539 52.3379)" fill="white" fill-opacity="0.2"/>
<circle cx="1.54225" cy="1.54225" r="1.54225" transform="matrix(-1 0 0 1 16.168 52.3379)" fill="white" fill-opacity="0.2"/>
<circle cx="1.54225" cy="1.54225" r="1.54225" transform="matrix(-1 0 0 1 3.08398 52.3379)" fill="white" fill-opacity="0.2"/>
<circle cx="1.54225" cy="1.54225" r="1.54225" transform="matrix(-1 0 0 1 94.6758 65.4224)" fill="white" fill-opacity="0.2"/>
<circle cx="1.54225" cy="1.54225" r="1.54225" transform="matrix(-1 0 0 1 81.5918 65.4224)" fill="white" fill-opacity="0.2"/>
<circle cx="1.54225" cy="1.54225" r="1.54225" transform="matrix(-1 0 0 1 68.5059 65.4224)" fill="white" fill-opacity="0.2"/>
<circle cx="1.54225" cy="1.54225" r="1.54225" transform="matrix(-1 0 0 1 55.4219 65.4224)" fill="white" fill-opacity="0.2"/>
<circle cx="1.54225" cy="1.54225" r="1.54225" transform="matrix(-1 0 0 1 42.3379 65.4224)" fill="white" fill-opacity="0.2"/>
<circle cx="1.54225" cy="1.54225" r="1.54225" transform="matrix(-1 0 0 1 29.2539 65.4224)" fill="white" fill-opacity="0.2"/>
<circle cx="1.54225" cy="1.54225" r="1.54225" transform="matrix(-1 0 0 1 16.168 65.4224)" fill="white" fill-opacity="0.2"/>
<circle cx="1.54225" cy="1.54225" r="1.54225" transform="matrix(-1 0 0 1 3.08398 65.4224)" fill="white" fill-opacity="0.2"/>
<circle cx="1.54225" cy="1.54225" r="1.54225" transform="matrix(-1 0 0 1 94.6758 78.5068)" fill="white" fill-opacity="0.2"/>
<circle cx="1.54225" cy="1.54225" r="1.54225" transform="matrix(-1 0 0 1 81.5918 78.5068)" fill="white" fill-opacity="0.2"/>
<circle cx="1.54225" cy="1.54225" r="1.54225" transform="matrix(-1 0 0 1 68.5059 78.5068)" fill="white" fill-opacity="0.2"/>
<circle cx="1.54225" cy="1.54225" r="1.54225" transform="matrix(-1 0 0 1 55.4219 78.5068)" fill="white" fill-opacity="0.2"/>
<circle cx="1.54225" cy="1.54225" r="1.54225" transform="matrix(-1 0 0 1 42.3379 78.5068)" fill="white" fill-opacity="0.2"/>
<circle cx="1.54225" cy="1.54225" r="1.54225" transform="matrix(-1 0 0 1 29.2539 78.5068)" fill="white" fill-opacity="0.2"/>
<circle cx="1.54225" cy="1.54225" r="1.54225" transform="matrix(-1 0 0 1 16.168 78.5068)" fill="white" fill-opacity="0.2"/>
<circle cx="1.54225" cy="1.54225" r="1.54225" transform="matrix(-1 0 0 1 3.08398 78.5068)" fill="white" fill-opacity="0.2"/>
</svg>
