<svg width="20" height="20" viewBox="0 0 20 20" fill="none" xmlns="http://www.w3.org/2000/svg">
<path fill-rule="evenodd" clip-rule="evenodd" d="M10.4947 19.3762L10.4847 19.3778L10.4255 19.407L10.4088 19.4103L10.3972 19.407L10.338 19.377C10.3291 19.3748 10.3224 19.3764 10.318 19.382L10.3147 19.3903L10.3005 19.747L10.3047 19.7637L10.313 19.7745L10.3997 19.8362L10.4122 19.8395L10.4222 19.8362L10.5088 19.7745L10.5188 19.7612L10.5222 19.747L10.508 19.3912C10.5058 19.3823 10.5013 19.3773 10.4947 19.3762ZM10.7147 19.282L10.703 19.2837L10.5497 19.3612L10.5413 19.3695L10.5388 19.3787L10.5538 19.737L10.558 19.747L10.5647 19.7537L10.7322 19.8303C10.7427 19.8331 10.7508 19.8309 10.7563 19.8237L10.7597 19.812L10.7313 19.3003C10.7285 19.2898 10.723 19.2837 10.7147 19.282ZM10.1188 19.2837C10.1151 19.2814 10.1108 19.2807 10.1066 19.2816C10.1024 19.2826 10.0987 19.2851 10.0963 19.2887L10.0913 19.3003L10.063 19.812C10.0635 19.822 10.0683 19.8287 10.0772 19.832L10.0897 19.8303L10.2572 19.7528L10.2655 19.7462L10.268 19.737L10.283 19.3787L10.2805 19.3687L10.2722 19.3603L10.1188 19.2837Z" fill="#6C757D"/>
<path fill-rule="evenodd" clip-rule="evenodd" d="M16.6665 4.16406C17.087 4.16393 17.492 4.32273 17.8003 4.60864C18.1086 4.89455 18.2975 5.28643 18.329 5.70573L18.3332 5.83073V14.1641C18.3333 14.5845 18.1745 14.9895 17.8886 15.2979C17.6027 15.6062 17.2108 15.795 16.7915 15.8266L16.6665 15.8307H3.33317C2.91269 15.8309 2.5077 15.6721 2.19938 15.3861C1.89106 15.1002 1.70221 14.7084 1.67067 14.2891L1.6665 14.1641V5.83073C1.66637 5.41025 1.82518 5.00526 2.11108 4.69694C2.39699 4.38862 2.78887 4.19977 3.20817 4.16823L3.33317 4.16406H16.6665ZM14.169 5.83073H5.83067L5.83317 5.9349C5.83317 6.24952 5.7712 6.56107 5.6508 6.85174C5.5304 7.14242 5.35392 7.40653 5.13145 7.62901C4.90897 7.85148 4.64486 8.02796 4.35418 8.14836C4.06351 8.26876 3.75196 8.33073 3.43734 8.33073L3.33317 8.32823V11.6666L3.43734 11.6641C4.07275 11.6641 4.68214 11.9165 5.13145 12.3658C5.58075 12.8151 5.83317 13.4245 5.83317 14.0599L5.83067 14.1641H14.169L14.1665 14.0599C14.1665 13.4489 14.4 12.8609 14.8192 12.4163C15.2383 11.9718 15.8115 11.7041 16.4215 11.6682L16.6148 11.6649L16.6665 11.6666V8.32823L16.5623 8.33073C15.9513 8.33072 15.3634 8.09725 14.9188 7.67808C14.4742 7.2589 14.2066 6.6857 14.1707 6.07573L14.1665 5.8824L14.169 5.83073ZM16.5623 13.3307C16.4578 13.3307 16.3544 13.3532 16.2593 13.3967C16.1642 13.4401 16.0796 13.5035 16.0112 13.5826C15.9427 13.6616 15.8921 13.7544 15.8626 13.8548C15.8332 13.9551 15.8257 14.0606 15.8407 14.1641H16.6665V13.3382C16.632 13.3336 16.5972 13.331 16.5623 13.3307ZM3.43734 13.3307C3.40249 13.331 3.3677 13.3336 3.33317 13.3382V14.1641H4.159C4.17394 14.0606 4.16645 13.9551 4.13703 13.8548C4.10762 13.7544 4.05697 13.6616 3.98852 13.5826C3.92007 13.5035 3.83543 13.4401 3.74033 13.3967C3.64523 13.3532 3.54189 13.3307 3.43734 13.3307ZM9.99984 6.66406C10.8839 6.66406 11.7317 7.01525 12.3569 7.64037C12.982 8.26549 13.3332 9.11334 13.3332 9.9974C13.3332 10.8815 12.982 11.7293 12.3569 12.3544C11.7317 12.9795 10.8839 13.3307 9.99984 13.3307C9.11578 13.3307 8.26794 12.9795 7.64281 12.3544C7.01769 11.7293 6.6665 10.8815 6.6665 9.9974C6.6665 9.11334 7.01769 8.26549 7.64281 7.64037C8.26794 7.01525 9.11578 6.66406 9.99984 6.66406ZM9.99984 8.33073C9.55781 8.33073 9.13389 8.50632 8.82133 8.81888C8.50877 9.13145 8.33317 9.55537 8.33317 9.9974C8.33317 10.4394 8.50877 10.8633 8.82133 11.1759C9.13389 11.4885 9.55781 11.6641 9.99984 11.6641C10.4419 11.6641 10.8658 11.4885 11.1783 11.1759C11.4909 10.8633 11.6665 10.4394 11.6665 9.9974C11.6665 9.55537 11.4909 9.13145 11.1783 8.81888C10.8658 8.50632 10.4419 8.33073 9.99984 8.33073ZM4.159 5.83073H3.33317V6.65656C3.43665 6.6715 3.54214 6.66401 3.64247 6.63459C3.74281 6.60518 3.83564 6.55453 3.91468 6.48608C3.99372 6.41763 4.05711 6.33299 4.10056 6.23789C4.14401 6.14279 4.1665 6.03945 4.1665 5.9349L4.16484 5.8824L4.159 5.83073ZM16.6665 5.83073H15.8407C15.8257 5.93421 15.8332 6.0397 15.8626 6.14003C15.8921 6.24037 15.9427 6.3332 16.0112 6.41224C16.0796 6.49128 16.1642 6.55467 16.2593 6.59812C16.3544 6.64157 16.4578 6.66406 16.5623 6.66406L16.6148 6.6624L16.6665 6.65573V5.83073Z" fill="#6C757D"/>
</svg>
