<svg width="109" height="109" viewBox="0 0 109 109" fill="none" xmlns="http://www.w3.org/2000/svg">
<g clip-path="url(#clip0_36_1971)">
<path d="M109 45.7556V71.5066C108.833 71.5504 108.654 71.5679 108.503 71.6446C98.3096 76.7291 88.1209 81.8223 77.9192 86.8892C77.345 87.1741 77.3231 87.5686 77.3012 88.0814C77.196 90.525 75.3682 92.6136 72.9443 92.9796C72.2255 93.0892 72.037 93.4048 71.9428 94.0666C71.6425 96.1837 69.7271 98.0706 67.6166 98.292C66.9635 98.3599 66.8079 98.6317 66.6983 99.1839C66.2096 101.665 64.6711 103.184 62.1815 103.607C61.7081 103.688 61.5569 103.806 61.489 104.295C61.2983 105.675 60.6606 106.839 59.5626 107.727C57.2351 109.609 54.3138 109.379 51.6948 107.025C51.0834 106.475 50.6363 106.37 49.8539 106.714C46.766 108.071 43.128 106.28 42.4442 103.05C42.2667 102.21 41.9621 101.901 41.1665 101.704C38.8895 101.143 37.5154 99.6376 37.0902 97.3343C36.996 96.8192 36.8228 96.6702 36.3166 96.5628C33.8094 96.0368 32.2687 94.4984 31.7844 91.9671C31.7055 91.5551 31.5915 91.3644 31.1532 91.2877C28.5102 90.8209 26.9871 89.2013 26.472 86.6043C26.4085 86.28 26.3734 86.0148 26.0469 85.8241C24.5785 84.9694 23.1167 84.1037 21.6725 83.2074C21.2364 82.9356 21.0457 83.0233 20.9296 83.4879C20.8397 83.8517 20.855 84.3492 20.305 84.3229C19.0404 84.2615 17.7693 84.5048 16.5113 84.0818C11.4642 82.379 6.41916 80.6739 1.34348 79.0609C0.311248 78.7366 -0.00433824 78.3202 4.49056e-05 77.2419C0.0504511 66.6018 0.0394932 55.964 0.0438763 45.3239C0.0438763 44.4735 0.0438763 43.621 0.0219606 42.7707C0.0110028 42.3346 0.138114 42.1395 0.62026 42.1373C3.43424 42.1242 6.28328 41.8108 8.69401 43.8446C9.49393 44.5196 10.5985 44.833 11.4072 45.5014C13.5418 47.2656 15.8254 47.3883 18.2646 46.3517C18.6459 46.1895 19.2705 46.3846 19.3692 45.7315C19.4568 45.1595 18.9791 44.936 18.6372 44.6511C16.7612 43.0929 15.4901 41.1511 14.7033 38.839C13.842 36.3143 14.1116 33.7261 14.1028 31.1532C14.0984 29.5511 14.4798 27.9907 15.192 26.5575C17.4318 22.0603 21.026 19.562 26.106 19.3844C26.9016 19.3559 26.8972 19.0798 26.6364 18.4925C26.1937 17.4909 25.8124 16.4609 25.3543 15.4681C25.1439 15.0123 25.1834 14.7383 25.556 14.3723C28.3568 11.6087 31.1379 8.82326 33.9037 6.02462C34.2718 5.65205 34.5392 5.62137 34.971 5.91285C36.3495 6.84646 37.7696 7.7187 39.1415 8.65889C39.6324 8.9942 40.0269 9.09282 40.5792 8.77723C42.2141 7.84801 43.9608 7.16862 45.7535 6.61853C46.1655 6.49142 46.4855 6.34459 46.5622 5.90189C46.9062 3.92509 47.5177 2.00089 47.704 -0.00439453H61.3246C61.5065 1.99651 62.1399 3.91194 62.462 5.88655C62.5234 6.25912 62.7667 6.48485 63.1568 6.59443C65.0656 7.13575 66.8868 7.90279 68.6247 8.85832C69.0258 9.07967 69.2866 9.05118 69.6635 8.79477C71.0683 7.83924 72.5235 6.95823 73.9283 6.0027C74.4543 5.64548 74.7699 5.64767 75.2411 6.1342C77.1872 8.14606 79.1903 10.1009 81.1649 12.0843C82.0634 12.9872 83.4222 13.7806 83.7006 14.8501C83.9964 15.9787 82.9225 17.252 82.3922 18.4333C82.0481 19.2003 82.1774 19.3428 83.0014 19.3779C87.4547 19.5598 90.7465 21.7207 93.0849 25.4463C94.8644 28.28 94.9937 31.4293 94.9565 34.6465C94.9082 38.7952 93.4311 42.2184 90.1679 44.8264C89.8545 45.0762 89.5542 45.3063 89.6397 45.7775C89.7318 46.2838 90.1766 46.1611 90.4835 46.2553C93.2711 47.11 96.2122 47.4366 98.8969 48.6551C99.2651 48.8216 99.5084 48.5893 99.7779 48.4513C101.286 47.6711 102.791 46.8821 104.293 46.0887C104.67 45.8893 105.035 45.703 105.487 45.714C106.655 45.7425 107.825 45.7403 108.993 45.7512L109 45.7556ZM105.467 59.4639H105.478C105.478 56.5206 105.478 53.5795 105.478 50.6362C105.478 49.8341 105.138 49.6135 104.457 49.9744C94.2771 55.3284 84.0797 60.6517 73.9327 66.0693C72.3131 66.9328 70.7571 66.9525 69.1332 66.512C65.8414 65.62 62.5738 64.6316 59.2952 63.6892C57.2899 63.1129 55.3022 63.1172 53.4021 64.0509C50.1301 65.6573 46.8624 67.2768 43.6233 68.9468C42.1878 69.6876 41.7911 71.3269 42.6042 72.6593C43.3362 73.8581 44.7234 74.1124 46.1151 73.2861C47.9429 72.2035 49.7641 71.1077 51.5874 70.0185C55.3438 67.7787 58.1709 68.0592 61.4188 70.9828C66.0277 75.1336 70.6476 79.2691 75.2345 83.4463C75.7561 83.9218 76.1309 83.9174 76.7094 83.6282C86.0061 78.9579 95.3093 74.3008 104.623 69.6657C105.252 69.3523 105.494 68.9994 105.485 68.2937C105.445 65.3505 105.467 62.4094 105.467 59.4661V59.4639ZM50.6429 61.4867C47.3665 60.2025 44.1799 59.4135 40.8816 59.8693C36.3363 60.4939 31.9049 61.7388 27.4232 62.7096C26.9651 62.8082 26.7789 63.0077 26.6605 63.4219C25.2426 68.4428 23.8224 73.4615 22.376 78.4736C22.1853 79.1376 22.2204 79.5299 22.9129 79.8981C24.287 80.6279 25.6042 81.4695 26.9257 82.2913C27.3158 82.5346 27.524 82.5499 27.8812 82.1708C28.9967 80.9851 30.1232 79.7907 31.3636 78.741C34.6839 75.9379 39.319 77.5202 40.2811 81.75C40.4236 82.3768 40.6888 82.6726 41.3616 82.8041C43.5882 83.2468 45.0346 84.6626 45.5102 86.8366C45.6943 87.6826 46.023 87.9083 46.7265 88.0836C49.0934 88.6775 50.5114 90.2007 50.8774 92.6202C50.9607 93.1681 51.2412 93.1637 51.6444 93.2535C53.1391 93.5889 54.3291 94.3449 55.289 95.6095C56.6259 97.3715 58.4449 98.6492 60.2661 99.8655C60.9893 100.348 61.8988 100.335 62.6461 99.7231C63.2641 99.2168 63.3781 98.5308 63.1831 97.7923C63.0296 97.2115 62.565 96.8499 62.1311 96.4883C59.8716 94.6057 57.6121 92.7232 55.3372 90.8582C53.3582 89.2342 53.3823 89.2715 54.9581 87.3144C55.5257 86.6087 55.8588 86.6481 56.5119 87.2092C59.2799 89.5892 62.0895 91.9211 64.9056 94.2419C66.0387 95.1755 67.404 95.1317 68.1404 94.22C68.9009 93.2777 68.6357 92.2454 67.4062 91.2241C65.116 89.3219 62.8236 87.424 60.5619 85.491C59.9593 84.976 58.8569 84.6056 58.9117 83.8692C58.9599 83.2008 59.8628 82.6157 60.3252 81.9494C60.746 81.3445 61.0507 81.3182 61.6336 81.8179C64.406 84.1914 67.2309 86.5057 70.0295 88.8485C71.1735 89.8062 72.5674 89.8719 73.3541 88.9822C74.1628 88.0683 73.9261 86.9243 72.7405 85.8592C68.1755 81.7653 63.6104 77.6715 59.0541 73.5667C57.0927 71.8002 55.6879 71.6446 53.4086 72.999C51.4297 74.1759 49.4813 75.401 47.4761 76.5319C45.2911 77.7635 42.7028 77.4961 40.8181 75.9445C39.0451 74.4871 38.2912 71.7433 38.9421 69.4728C39.5579 67.3229 41.1271 66.192 43.0162 65.2891C45.5212 64.0903 47.9911 62.8104 50.6407 61.4845L50.6429 61.4867ZM63.2729 33.5814C63.2576 32.3805 63.3145 31.1773 63.0472 29.9851C62.1508 25.9745 58.7627 22.9326 54.7455 22.8647C50.8379 22.7989 47.3205 25.0475 46.0691 29.3276C45.5628 31.0611 45.8192 32.8473 45.771 34.6137C45.6702 38.2714 47.2131 41.0262 50.3667 42.8649C50.8204 43.1301 51.0176 43.4347 51.0045 43.9651C50.9738 45.2757 50.9585 46.5906 51.0067 47.9012C51.0308 48.5718 50.8818 48.8786 50.1476 49.0495C47.1254 49.7509 44.1186 50.5245 41.1161 51.3091C38.758 51.9249 37.3181 53.5423 37.0486 55.793C36.9083 56.9589 36.9171 56.9502 38.1356 56.731C41.4427 56.1349 44.7234 56.1261 48.0152 56.9721C51.9008 57.9714 55.6243 59.4836 59.5976 60.2419C63.0801 60.9081 66.466 62.0894 69.8871 63.0734C70.3429 63.2049 70.7856 63.2268 71.2437 63.2509C71.8748 63.2838 72.14 63.0142 72.1334 62.3743C72.1093 60.4961 72.1751 58.6136 72.1006 56.7354C71.9778 53.6343 70.6366 52.0345 67.6166 51.2543C64.6865 50.4982 61.7585 49.7333 58.8153 49.0298C58.1994 48.883 58.0263 48.631 58.0394 48.0392C58.0679 46.7287 58.0635 45.4137 58.0109 44.1032C57.9846 43.483 58.2126 43.1323 58.7407 42.8408C60.402 41.9226 61.627 40.5835 62.4598 38.8719C63.2773 37.1888 63.3255 35.3961 63.2751 33.5836L63.2729 33.5814ZM73.1328 50.3492C74.0576 51.5063 74.7677 52.5802 75.1775 53.8469C75.8503 55.9311 75.5085 58.0635 75.5764 60.1762C75.5983 60.8862 75.5676 61.2522 76.464 60.7745C82.2388 57.6865 88.0421 54.6534 93.8322 51.594C94.0908 51.4559 94.4568 51.4252 94.562 50.9475C92.0417 50.3119 89.5389 49.6588 87.023 49.0605C86.4071 48.9137 86.1463 48.6923 86.177 48.0151C86.234 46.7068 86.2209 45.3918 86.1704 44.0813C86.1463 43.461 86.3677 43.1192 86.8959 42.8233C89.0414 41.6245 90.5689 39.8274 91.073 37.4452C91.6691 34.629 91.7831 31.7142 90.8626 28.9441C89.6397 25.26 86.4948 22.9414 82.7341 22.8647C78.7892 22.7836 75.4274 25.385 74.2834 29.0515C73.7399 30.7938 73.9481 32.558 73.8801 34.3178C73.7311 38.1333 75.2586 41.035 78.5942 42.9351C79.0128 43.1739 79.1947 43.4435 79.1815 43.941C79.1465 45.2866 79.1355 46.6366 79.1837 47.9823C79.2078 48.6485 78.9711 48.8918 78.3268 49.0342C76.6459 49.409 74.9869 49.8758 73.135 50.3513L73.1328 50.3492ZM35.8892 50.3557C34.0527 49.878 32.3717 49.3958 30.6645 49.0211C30.029 48.8808 29.8777 48.6047 29.8909 48.0217C29.915 46.7813 29.926 45.5387 29.8602 44.3004C29.8208 43.5706 30.0531 43.1455 30.6996 42.7838C32.2841 41.8985 33.5574 40.6449 34.2631 38.9661C35.6657 35.6306 35.578 32.1723 34.5217 28.8038C33.3536 25.0738 29.9742 22.8603 26.4304 22.8778C22.3848 22.8953 19.253 25.328 18.0717 29.0186C17.3924 31.14 17.6816 33.3053 17.6882 35.4508C17.697 38.2144 18.8344 40.5879 21.1158 42.0519C22.6609 43.0425 23.0707 44.1558 22.8559 45.7688C22.8516 45.8038 22.8559 45.8389 22.8559 45.874C22.8318 46.8273 23.1408 47.9998 22.696 48.6748C22.2116 49.409 20.8989 49.2468 19.974 49.5624C19.7264 49.6478 19.3297 49.5361 19.3012 49.9108C19.2793 50.187 19.6234 50.2549 19.8294 50.3755C22.3672 51.8548 24.9029 53.3385 27.4561 54.7893C27.9404 55.0632 28.1815 55.3394 28.1442 55.9355C28.0828 56.9129 28.1267 57.8947 28.1267 58.9204C29.7484 58.5675 31.2913 58.2059 32.8451 57.9101C33.3667 57.8114 33.4763 57.5397 33.45 57.1036C33.3054 54.5723 34.1535 52.3829 35.887 50.3513L35.8892 50.3557ZM42.1944 33.2461C42.2272 32.1197 42.1768 30.9932 42.3697 29.8602C43.2441 24.756 46.1765 21.3349 51.0593 19.871C55.9881 18.3938 60.2989 19.8074 63.6915 23.6843C67.3339 27.8439 67.301 32.8253 66.466 37.8506C65.9861 40.7347 64.349 43.0666 62.0171 44.8658C61.7235 45.0938 61.4999 45.3195 61.535 45.7381C61.581 46.2772 62.0171 46.1698 62.3283 46.2487C64.0005 46.6739 65.6771 47.0771 67.347 47.5111C67.9563 47.6689 68.5283 47.8792 69.1945 47.6995C70.996 47.2108 72.8194 46.8076 74.6187 46.3123C74.9584 46.218 75.5348 46.3846 75.6049 45.7293C75.6619 45.199 75.2937 44.9886 74.9628 44.7234C73.4988 43.5553 72.2978 42.1439 71.579 40.4191C69.76 36.0535 69.8608 31.6068 71.2283 27.1426C71.3752 26.6605 71.682 26.2616 71.3489 25.6567C67.507 18.6809 59.0892 14.6923 51.1864 16.165C45.313 17.2608 40.8641 20.4079 37.8068 25.534C37.5548 25.957 37.3159 26.3514 37.5877 26.9081C38.3109 28.3918 38.6112 29.9938 38.6769 31.6287C38.7931 34.4252 38.8785 37.2238 37.7279 39.8844C36.882 41.8415 35.6723 43.5136 33.9716 44.8132C33.6494 45.0587 33.3821 45.302 33.4434 45.7688C33.5136 46.2969 33.9606 46.1808 34.2631 46.2597C36.1347 46.7484 38.015 47.213 39.8888 47.6886C40.2307 47.7762 40.5441 47.831 40.9167 47.7302C42.8562 47.2086 44.8067 46.7331 46.755 46.2378C47.0421 46.1654 47.4257 46.2443 47.4958 45.7929C47.5593 45.3874 47.3665 45.1354 47.0597 44.9031C46.2641 44.3026 45.5606 43.6057 44.9404 42.8233C42.7072 40.0115 41.9949 36.7614 42.1922 33.2483L42.1944 33.2461ZM35.0718 23.0466C35.3742 22.6718 35.6723 22.3409 35.9287 21.9793C39.3409 17.1797 43.9432 14.1071 49.672 12.8799C56.902 11.3326 63.4066 13.0289 69.1441 17.6925C70.7527 19.0009 72.1049 20.5328 73.295 22.2247C73.4747 22.4811 73.639 23.1255 74.1278 22.7353C75.2389 21.85 76.3851 21.0369 77.6474 20.3794C77.803 20.2983 77.8885 20.0463 77.9696 19.8578C78.4649 18.7248 78.9273 17.5742 79.4489 16.4521C79.7141 15.8823 79.6308 15.5032 79.1684 15.0583C77.6847 13.6338 76.2229 12.1873 74.8159 10.6883C74.3053 10.1448 73.9283 10.1798 73.3804 10.5546C72.2408 11.3348 71.0727 12.0712 69.9178 12.8294C69.5605 13.0639 69.2515 13.3138 68.7716 13.0092C66.0913 11.3129 63.1896 10.1316 60.1061 9.39964C59.6853 9.29883 59.5187 9.09939 59.442 8.70929C59.1615 7.29354 58.824 5.88655 58.5851 4.46422C58.4668 3.76511 58.1709 3.52184 57.4696 3.53499C55.4841 3.57225 53.4963 3.5854 51.5129 3.53061C50.8094 3.51089 50.5925 3.81551 50.4741 4.41381C50.2089 5.76163 49.8473 7.09191 49.6479 8.4485C49.5515 9.10597 49.2666 9.34704 48.6858 9.48292C45.7316 10.1667 42.9548 11.2888 40.406 12.9368C39.9305 13.2437 39.5996 13.1604 39.1678 12.8667C37.9668 12.0492 36.7242 11.2953 35.5188 10.4867C35.0674 10.1842 34.7606 10.1513 34.342 10.5853C32.8407 12.1413 31.2935 13.6557 29.766 15.1876C29.5446 15.4111 29.2246 15.6412 29.4109 15.9985C30.3993 17.8986 30.476 20.3816 32.9328 21.3547C33.5311 21.5914 34.0001 22.159 34.5239 22.5776C34.6882 22.7091 34.8438 22.8493 35.0718 23.0466ZM3.6008 60.9169H3.60518C3.60518 65.6638 3.6249 70.413 3.58546 75.1599C3.57888 75.9073 3.82653 76.1965 4.50811 76.4069C6.42573 76.9965 8.3324 77.6276 10.2172 78.318C10.9448 78.5854 11.1661 78.4341 11.337 77.6956C11.9047 75.2301 12.5534 72.7821 13.1692 70.3275C14.5433 64.8354 15.8999 59.3368 17.3113 53.8535C17.4822 53.1872 17.3178 52.9242 16.7656 52.6306C15.6106 52.0169 14.4973 51.3288 13.3664 50.6691C10.6752 49.1043 7.99051 47.5286 5.29269 45.977C4.13773 45.3107 3.60518 45.6175 3.60518 46.8909C3.60737 51.5677 3.60518 56.2445 3.60518 60.9213L3.6008 60.9169ZM20.8748 55.1092C20.3904 55.186 20.4978 55.5826 20.4277 55.861C18.6591 62.9003 16.8949 69.9418 15.135 76.9833C14.9225 77.8358 14.368 78.8242 14.62 79.5124C14.9159 80.3167 16.2133 80.1545 17.0088 80.5687C17.8241 80.9917 18.12 80.7002 18.3545 79.8674C20.3641 72.7207 22.4111 65.585 24.4646 58.4514C24.6859 57.6821 24.6947 57.1386 23.8093 56.7617C22.9699 56.4023 22.2138 55.85 21.4205 55.3898C21.2386 55.2846 21.0457 55.1991 20.8726 55.1136L20.8748 55.1092ZM45.7951 101.713C45.7206 102.52 46.1304 103.063 46.8032 103.42C47.5199 103.799 48.2694 103.81 48.883 103.254C49.9547 102.278 50.9935 101.266 52.0017 100.225C52.9221 99.2738 52.9791 98.0838 52.2186 97.2817C51.4034 96.4226 50.2352 96.4532 49.2096 97.4219C48.2584 98.3205 47.3424 99.2606 46.4351 100.203C46.0406 100.613 45.7053 101.082 45.7951 101.715V101.713ZM42.1878 88.0354C42.1527 87.2684 41.8174 86.6766 41.1052 86.3545C40.3315 86.006 39.5557 86.0674 38.9333 86.6503C37.8748 87.6387 36.8338 88.6512 35.852 89.7141C34.9907 90.6478 35.0104 91.7764 35.7906 92.5522C36.6037 93.3609 37.7433 93.3259 38.7076 92.4098C39.6543 91.5091 40.5682 90.5732 41.4821 89.6396C41.9117 89.2013 42.2338 88.6973 42.1878 88.0376V88.0354ZM42.3938 98.3643C42.7488 98.3511 43.117 98.3555 43.4063 98.1232C44.8133 96.9924 46.1217 95.7432 47.1999 94.3011C47.7588 93.5516 47.5747 92.6509 46.8931 91.9868C46.1786 91.2899 45.256 91.1672 44.4802 91.7545C43.1017 92.7999 41.8262 94.0074 40.8312 95.4232C39.9151 96.7272 40.8422 98.3467 42.3938 98.3643ZM36.882 82.8063C36.9127 81.9713 36.5116 81.4366 35.8213 81.0903C34.9819 80.6695 34.2149 80.858 33.5705 81.4629C32.5646 82.4096 31.5828 83.3849 30.636 84.3886C29.7988 85.274 29.766 86.521 30.4892 87.2552C31.3066 88.088 32.4353 88.0705 33.4149 87.15C34.3683 86.2537 35.2865 85.3179 36.2004 84.3777C36.6278 83.9394 36.9609 83.4375 36.8842 82.8041L36.882 82.8063ZM55.8128 105.428C57.4455 105.417 58.3331 104.292 57.9014 103.019C57.588 102.097 56.6982 101.674 56.0166 101.082C55.804 100.898 55.6484 101.093 55.5345 101.297C55.083 102.11 54.4299 102.752 53.7834 103.403C53.6366 103.552 53.2815 103.742 53.573 103.994C54.3028 104.628 54.9121 105.498 55.8106 105.426L55.8128 105.428Z" fill="#358619"/>
</g>
<defs>
<clipPath id="clip0_36_1971">
<rect width="109" height="108.982" fill="white"/>
</clipPath>
</defs>
</svg>
