<svg width="109" height="90" viewBox="0 0 109 90" fill="none" xmlns="http://www.w3.org/2000/svg">
<g clip-path="url(#clip0_36_1964)">
<path d="M57.0827 59.4124C57.0827 50.0317 57.0827 40.6509 57.0827 31.2731C57.0827 29.3069 57.467 28.9148 59.3881 28.9177C62.1991 28.9206 65.0071 28.9177 67.8181 28.9294C69.3088 28.9352 69.8317 29.4521 69.8346 30.9565C69.8432 36.6053 69.8519 42.257 69.8288 47.9058C69.8288 48.5563 70.0512 48.8729 70.5741 49.2708C72.3277 50.6067 74.0033 51.2399 75.7598 49.3318C75.806 49.2795 75.8782 49.2388 75.9447 49.2214C78.0132 48.6928 78.6603 47.3394 78.3078 45.3036C78.1807 44.5659 78.2616 43.7846 78.3021 43.0266C78.3541 42.1002 78.8683 41.5309 79.8014 41.5251C83.3664 41.499 86.9342 41.499 90.4992 41.5251C91.519 41.5309 92.0795 42.135 92.0997 43.1689C92.1257 44.5455 92.1401 45.9222 92.0881 47.2959C92.065 47.9029 92.2759 48.2194 92.819 48.4343C94.1306 48.9542 95.3382 49.6803 96.4475 50.5457C96.8809 50.8826 97.164 50.8304 97.58 50.5719C98.7154 49.8719 99.8709 49.2098 101.032 48.5534C102.159 47.9174 102.922 48.1091 103.566 49.2185C105.291 52.1866 107.001 55.1606 108.697 58.1433C109.246 59.1075 109.046 59.8423 108.081 60.4318C106.914 61.1463 105.727 61.8317 104.534 62.4997C104.051 62.7697 103.861 63.0253 103.921 63.673C104.051 65.0351 104.04 66.4233 103.941 67.7912C103.898 68.4098 104.048 68.6915 104.554 68.9703C105.689 69.5947 106.799 70.2656 107.908 70.9394C109.121 71.6771 109.28 72.2696 108.567 73.5271C106.911 76.4488 105.239 79.3618 103.554 82.2689C102.91 83.3812 102.124 83.5613 101.021 82.9137C99.9027 82.2602 98.776 81.6184 97.6667 80.9446C97.1871 80.6542 96.8289 80.6048 96.3262 80.9998C95.3064 81.8042 94.1942 82.5042 92.9808 82.9601C92.221 83.2448 92.0679 83.692 92.0939 84.4181C92.1401 85.6466 92.117 86.8809 92.0997 88.1123C92.0823 89.4018 91.5248 89.9797 90.2623 89.9855C86.8765 89.9971 83.4906 89.9971 80.1019 89.9855C78.9145 89.9826 78.3078 89.3902 78.2847 88.1994C78.2587 86.8606 78.2558 85.5188 78.2934 84.1799C78.3078 83.6049 78.1778 83.2767 77.5885 83.0502C76.3087 82.5564 75.1358 81.8333 74.0495 80.994C73.6075 80.6513 73.2406 80.5874 72.7986 80.9126C72.7408 80.9562 72.6773 80.9969 72.6108 81.0201C70.3372 81.7984 69.3463 83.3086 69.7999 85.7569C69.9415 86.5266 69.8346 87.3456 69.8201 88.1442C69.797 89.3669 69.2337 89.9768 68.0521 89.9855C64.9551 90.0059 61.8553 90.0059 58.7583 89.9884C57.5652 89.9826 57.077 89.3785 57.077 87.9874C57.0741 78.4614 57.077 68.9384 57.077 59.4124H57.0827ZM85.2615 44.5484C84.288 44.5484 83.3086 44.6152 82.3437 44.5281C81.4395 44.4497 81.2488 44.8244 81.2921 45.6346C81.3528 46.7179 81.2806 47.807 81.3152 48.8932C81.3441 49.8284 80.931 50.3802 80.0672 50.6793C78.1056 51.3589 76.3318 52.3754 74.7747 53.7578C74.0871 54.3706 73.4024 54.4287 72.6166 53.9466C71.6026 53.3251 70.5395 52.7878 69.5399 52.146C68.9881 51.7946 68.7194 51.9572 68.4363 52.4567C67.405 54.2806 66.3678 56.1016 65.3047 57.9051C65.036 58.3611 65.1198 58.5934 65.5618 58.8403C66.6018 59.4153 67.6072 60.0543 68.6501 60.6206C69.4446 61.0533 69.8143 61.6574 69.6554 62.5694C69.2885 64.6895 69.2972 66.8154 69.6554 68.9326C69.8057 69.8068 69.4792 70.3905 68.7223 70.8058C67.8065 71.3083 66.9312 71.8891 65.998 72.3567C65.1949 72.7575 64.9869 73.1437 65.5242 73.986C66.5527 75.5978 67.5032 77.2678 68.4016 78.9581C68.7685 79.6493 69.1094 79.5999 69.6583 79.2659C70.6724 78.6473 71.7153 78.0694 72.7322 77.4537C73.4457 77.0238 74.1073 77.0877 74.7111 77.6308C76.3145 79.0771 78.1605 80.0994 80.1741 80.8313C80.9512 81.113 81.3268 81.6155 81.3095 82.4577C81.2835 83.6891 81.3355 84.9234 81.2863 86.1519C81.2632 86.785 81.4915 86.968 82.0895 86.9622C84.1435 86.939 86.1976 86.9303 88.2516 86.9738C88.945 86.9883 89.1125 86.7299 89.0894 86.0909C89.0518 84.8973 89.101 83.7007 89.0778 82.5042C89.0576 81.6213 89.4361 81.0956 90.271 80.8052C92.2586 80.1082 94.0728 79.0859 95.6473 77.6657C96.2944 77.0819 96.9791 77.0355 97.7245 77.4827C98.776 78.11 99.8507 78.6996 100.891 79.3472C101.365 79.6406 101.61 79.6057 101.899 79.0888C102.916 77.2562 103.973 75.4468 105.036 73.6433C105.343 73.1234 105.241 72.8504 104.713 72.5658C103.635 71.985 102.601 71.3257 101.538 70.7187C100.862 70.3324 100.556 69.7574 100.697 69.0023C101.099 66.8444 101.105 64.6895 100.717 62.5316C100.561 61.6603 100.902 61.0708 101.651 60.6525C102.688 60.0717 103.707 59.456 104.745 58.878C105.181 58.6341 105.4 58.4279 105.077 57.8819C103.985 56.0522 102.933 54.1993 101.893 52.3377C101.642 51.8875 101.422 51.8091 100.972 52.085C99.9287 52.7268 98.8367 53.2903 97.7938 53.935C97.0022 54.4258 96.3031 54.359 95.6271 53.7607C94.0382 52.358 92.2355 51.3357 90.2421 50.6387C89.4332 50.3541 89.0518 49.7819 89.0778 48.899C89.1096 47.778 89.0287 46.6482 89.1067 45.5301C89.1674 44.6762 88.8496 44.4758 88.0667 44.5339C87.1336 44.6007 86.1947 44.5484 85.2558 44.5455L85.2615 44.5484ZM60.1017 59.4386C60.1017 68.3111 60.1104 77.1807 60.0844 86.0532C60.0844 86.756 60.2201 87.0087 60.9568 86.9738C62.2135 86.9157 63.4789 86.9593 64.7385 86.9593C66.8214 86.9593 66.8503 86.9593 66.8098 84.8508C66.7867 83.6136 66.9976 82.3793 66.2494 81.1798C64.6865 78.6676 63.2709 76.0654 61.8091 73.4894C61.133 72.3015 61.2919 71.6742 62.436 70.9772C63.5424 70.3034 64.6605 69.6412 65.79 69.0052C66.3158 68.709 66.5094 68.3982 66.4574 67.7215C66.3505 66.3565 66.3707 64.9683 66.4863 63.6033C66.5383 63.0079 66.3649 62.7581 65.9143 62.5055C64.7818 61.8752 63.6609 61.2247 62.5429 60.5683C61.3035 59.8394 61.1215 59.1569 61.838 57.8993C63.3546 55.2303 64.8829 52.57 66.4083 49.9068C66.6249 49.5292 66.8272 49.1691 66.8243 48.7015C66.8156 43.4158 66.8069 38.1271 66.8301 32.8414C66.8329 32.1182 66.5787 31.9178 65.8883 31.9411C64.3773 31.9904 62.8577 32.0427 61.3526 31.9295C60.2519 31.8481 60.0786 32.2547 60.0844 33.2509C60.1219 41.9782 60.1075 50.7055 60.1046 59.4328L60.1017 59.4386Z" fill="#358619"/>
<path d="M67.7169 4.44636C67.7083 6.75814 65.8536 8.72433 63.5568 8.65753C62.511 8.62849 61.965 9.02637 61.3988 9.83085C57.1318 15.9298 52.8273 21.9997 48.5141 28.0638C48.1674 28.5517 48.0952 28.9118 48.3465 29.5072C49.0717 31.2207 48.7972 32.8442 47.5232 34.2266C46.3358 35.5132 44.4349 35.9256 42.8749 35.275C41.0924 34.5345 40.1593 33.1462 40.113 31.2468C40.0957 30.5876 39.8992 30.3088 39.3735 30.0067C35.8836 27.9854 32.4082 25.9379 28.9444 23.8729C28.4417 23.5738 28.0603 23.4344 27.4825 23.78C26.4223 24.4131 25.2494 24.5699 24.062 24.1198C23.6576 23.9659 23.4005 24.0791 23.1145 24.3608C19.0093 28.3774 14.9127 32.3998 10.77 36.3757C10.2095 36.913 10.5591 37.3719 10.6227 37.8395C10.9318 40.0816 9.69819 42.1755 7.66437 42.768C5.49766 43.3953 3.28184 42.3817 2.40937 40.2907C1.76225 38.7369 1.95292 37.2412 3.00161 35.9053C4.11674 34.4851 5.63633 34.0001 7.33503 34.4009C8.10927 34.5838 8.51372 34.3631 9.00773 33.8781C12.824 30.1374 16.6374 26.3938 20.5029 22.7025C21.15 22.0868 21.3435 21.5553 21.1789 20.6782C20.7802 18.5698 21.9993 16.5891 23.9927 15.8891C25.9543 15.2008 28.1355 16.0547 29.1813 17.9047C29.5106 18.4855 29.7446 19.1187 29.6695 19.7634C29.5626 20.6579 30.0393 20.9977 30.7124 21.3869C34.2051 23.4053 37.6719 25.4674 41.1415 27.5265C41.4708 27.7211 41.702 27.8605 42.0948 27.5875C42.9211 27.0153 43.8715 26.7946 44.8682 26.9514C45.4287 27.0386 45.7089 26.7772 46.0065 26.3561C50.4006 20.1322 54.8091 13.92 59.2176 7.70784C59.5874 7.18797 59.807 6.73782 59.4979 6.03789C58.7265 4.28953 59.1079 2.55569 60.4108 1.2691C61.6819 0.0144623 63.4586 -0.336953 65.088 0.342643C66.7376 1.03095 67.7256 2.57021 67.7169 4.44636ZM64.6922 4.41151C64.6517 3.55185 64.1866 3.08717 63.4124 3.07555C62.6613 3.06103 62.1875 3.5896 62.1615 4.29824C62.1326 5.05625 62.563 5.61968 63.3864 5.6371C64.1953 5.65453 64.6142 5.17532 64.6922 4.41151ZM44.5129 29.9661C43.6058 29.9864 43.1666 30.483 43.1522 31.2439C43.1349 32.0426 43.6751 32.5247 44.4465 32.5073C45.1485 32.4928 45.654 32.0862 45.6598 31.2875C45.6656 30.4685 45.2409 30.0416 44.5158 29.969L44.5129 29.9661ZM26.6592 19.9348C26.5985 19.2232 26.1623 18.7266 25.3823 18.7295C24.66 18.7324 24.1805 19.1942 24.1545 19.9551C24.1285 20.7538 24.5416 21.2678 25.3563 21.291C26.1681 21.3143 26.5754 20.8206 26.6563 19.9348H26.6592ZM7.64126 38.5162C7.56615 37.8395 7.21658 37.3632 6.41923 37.3603C5.58433 37.3603 5.1741 37.8163 5.15098 38.6353C5.13076 39.4514 5.64211 39.8463 6.35568 39.8638C7.14725 39.8841 7.60659 39.4078 7.64126 38.5162Z" fill="#358619"/>
<path d="M19.0323 67.1754C19.0323 60.3272 19.0323 53.4819 19.0323 46.6336C19.0323 45.0682 19.5264 44.5716 21.0922 44.5716C23.9753 44.5716 26.8585 44.5687 29.7417 44.5803C31.2873 44.5861 31.7871 45.1031 31.7871 46.683C31.7871 60.4143 31.7871 74.1457 31.7871 87.877C31.7871 89.4888 31.2844 89.9913 29.6463 89.9942C26.8007 90 23.9522 90 21.1066 89.9942C19.5321 89.9942 19.0352 89.5005 19.0352 87.938C19.0323 81.0171 19.0352 74.0992 19.0352 67.1783L19.0323 67.1754ZM28.7681 67.2713C28.7681 61.0446 28.7565 54.8178 28.7825 48.594C28.7825 47.8738 28.6439 47.5659 27.8465 47.5949C26.2287 47.6559 24.6051 47.6559 22.9873 47.5949C22.2131 47.5659 22.034 47.8273 22.0369 48.5679C22.0571 61.091 22.06 73.6171 22.0369 86.1402C22.0369 86.8547 22.2853 86.9825 22.9093 86.9679C24.53 86.936 26.1507 86.9157 27.7685 86.9825C28.5919 87.0173 28.7883 86.753 28.7854 85.9486C28.7537 79.7218 28.7681 73.498 28.7681 67.2713Z" fill="#358619"/>
<path d="M50.8195 72.981C50.8195 77.9415 50.8195 82.902 50.8195 87.8595C50.8195 89.4685 50.2966 89.9883 48.6845 89.9912C45.8042 89.9971 42.9211 89.9971 40.0408 89.9912C38.5588 89.9912 38.0619 89.4801 38.0619 87.9554C38.059 77.927 38.059 67.8986 38.0619 57.8702C38.0619 56.2264 38.4519 55.8343 40.1015 55.8314C42.9817 55.8256 45.8649 55.8285 48.7452 55.8372C50.3803 55.843 50.8195 56.299 50.8195 57.9922C50.8195 62.9875 50.8195 67.9857 50.8195 72.981ZM47.7918 72.8532H47.7976C47.7976 68.6508 47.7976 64.4483 47.7976 60.2459C47.7976 59.332 47.3267 58.8751 46.3849 58.8751C45.0156 58.8751 43.6404 58.9448 42.2797 58.8518C41.2599 58.7821 41.049 59.1597 41.0519 60.1181C41.0895 68.7757 41.0895 77.4332 41.0577 86.0908C41.0577 86.8605 41.3148 86.9853 41.9793 86.9708C43.6 86.9331 45.2236 86.9244 46.8414 86.9824C47.6127 87.0115 47.8121 86.7559 47.8063 86.0008C47.7745 81.6183 47.7889 77.2358 47.7889 72.8503L47.7918 72.8532Z" fill="#358619"/>
<path d="M12.7604 76.6114C12.7604 80.416 12.7604 84.2205 12.7604 88.0251C12.7604 89.4424 12.226 89.9855 10.8162 89.9913C7.8261 90 4.83315 90 1.84309 89.9913C0.586396 89.9884 0.00860588 89.4075 0.00860588 88.1238C0.00282799 80.4072 0.00282799 72.6877 0.00860588 64.9711C0.00860588 63.7862 0.514172 63.1966 1.68708 63.1821C4.82159 63.1443 7.95899 63.1443 11.0935 63.1908C12.2924 63.2082 12.7575 63.7717 12.7604 64.9827C12.7691 68.8599 12.7633 72.7371 12.7633 76.6143L12.7604 76.6114ZM3.02756 76.6433C3.02756 79.7538 3.05067 82.8642 3.01022 85.9747C3.00156 86.692 3.12 87.0057 3.92602 86.9767C5.5785 86.9157 7.23675 86.936 8.88923 86.9767C9.54502 86.9941 9.75014 86.8024 9.74725 86.1228C9.72125 79.7944 9.71836 73.4661 9.75014 67.1348C9.75303 66.3884 9.47569 66.2054 8.82279 66.2141C7.20498 66.2345 5.58428 66.2461 3.96646 66.2141C3.23845 66.1996 2.99289 66.4349 3.00156 67.2016C3.04489 70.3469 3.01889 73.4951 3.02178 76.6404L3.02756 76.6433Z" fill="#358619"/>
<path d="M94.9511 65.6971C95.0204 71.0932 90.6061 75.5803 85.2009 75.6094C79.9285 75.6384 75.5258 71.2675 75.4478 65.9295C75.3669 60.4898 79.6541 55.9417 84.9206 55.8778C90.4934 55.811 94.8817 60.1035 94.9511 65.6971ZM78.4696 65.7407C78.4898 69.5511 81.5117 72.5947 85.2355 72.5541C88.9912 72.5105 91.9437 69.4756 91.9292 65.6652C91.9148 61.9303 88.9218 58.9186 85.2182 58.9215C81.4366 58.9244 78.4465 61.9419 78.4667 65.7407H78.4696Z" fill="#358619"/>
</g>
<defs>
<clipPath id="clip0_36_1964">
<rect width="109" height="90" fill="white"/>
</clipPath>
</defs>
</svg>