<svg width="20" height="20" viewBox="0 0 20 20" fill="none" xmlns="http://www.w3.org/2000/svg">
<path d="M12.6157 11.41L11.5323 10.3267L10.449 9.24333L6.02484 13.6667L8.1915 15.8333L12.6157 11.41ZM11.0432 8.64917L12.1265 9.7325L13.2098 10.8158L17.6923 6.33333L15.5248 4.16667L11.0432 8.64917ZM3.814 16.8583L5.9265 14.7458L5.31734 14.1375V13.1942L10.159 8.35333L13.5048 11.7L8.66317 16.5408H7.7215L7.07984 15.8992L6.1215 16.8575L3.814 16.8583ZM10.159 8.35333L15.5257 2.98667L18.8715 6.33333L13.5048 11.7L10.159 8.35333ZM12.3765 3.33333H6.6665V2.5H13.2098L12.3765 3.33333ZM9.55567 6.15417H4.1665V5.32083H10.389L9.55567 6.15417ZM6.73567 8.97417H1.6665V8.14083H7.569L6.73567 8.97417Z" fill="black"/>
</svg>
