<svg width="20" height="20" viewBox="0 0 20 20" fill="none" xmlns="http://www.w3.org/2000/svg">
<path d="M5.2085 2.91797C5.04274 2.91797 4.88376 2.98382 4.76655 3.10103C4.64934 3.21824 4.5835 3.37721 4.5835 3.54297V17.0846H6.25016V14.793C6.25016 14.218 6.71683 13.7513 7.29183 13.7513H12.7085C13.2835 13.7513 13.7502 14.218 13.7502 14.793V17.0846H15.4168V9.79297C15.4168 9.62721 15.351 9.46824 15.2338 9.35103C15.1166 9.23382 14.9576 9.16797 14.7918 9.16797H13.1252C12.9594 9.16797 12.8004 9.10212 12.6832 8.98491C12.566 8.8677 12.5002 8.70873 12.5002 8.54297V3.54297C12.5002 3.37721 12.4343 3.21824 12.3171 3.10103C12.1999 2.98382 12.0409 2.91797 11.8752 2.91797H5.2085ZM7.50016 15.0013V17.0846H9.37516V15.0013H7.50016ZM10.6252 15.0013V17.0846H12.5002V15.0013H10.6252ZM16.0418 18.3346H3.9585C3.79274 18.3346 3.63376 18.2688 3.51655 18.1516C3.39934 18.0344 3.3335 17.8754 3.3335 17.7096V3.54297C3.3335 3.04569 3.53104 2.56877 3.88267 2.21714C4.2343 1.86551 4.71122 1.66797 5.2085 1.66797H11.8752C12.3724 1.66797 12.8494 1.86551 13.201 2.21714C13.5526 2.56877 13.7502 3.04569 13.7502 3.54297V7.91797H14.7918C15.0381 7.91797 15.2819 7.96647 15.5094 8.0607C15.7368 8.15492 15.9435 8.29303 16.1177 8.46714C16.2918 8.64125 16.4299 8.84795 16.5241 9.07544C16.6183 9.30292 16.6668 9.54674 16.6668 9.79297V17.7096C16.6668 17.8754 16.601 18.0344 16.4838 18.1516C16.3666 18.2688 16.2076 18.3346 16.0418 18.3346ZM6.25016 5.41797C6.25016 5.19696 6.33796 4.98499 6.49424 4.82871C6.65052 4.67243 6.86248 4.58464 7.0835 4.58464C7.30451 4.58464 7.51647 4.67243 7.67275 4.82871C7.82903 4.98499 7.91683 5.19696 7.91683 5.41797C7.91683 5.63898 7.82903 5.85094 7.67275 6.00722C7.51647 6.1635 7.30451 6.2513 7.0835 6.2513C6.86248 6.2513 6.65052 6.1635 6.49424 6.00722C6.33796 5.85094 6.25016 5.63898 6.25016 5.41797ZM7.0835 10.418C6.86248 10.418 6.65052 10.5058 6.49424 10.662C6.33796 10.8183 6.25016 11.0303 6.25016 11.2513C6.25016 11.4723 6.33796 11.6843 6.49424 11.8406C6.65052 11.9968 6.86248 12.0846 7.0835 12.0846C7.30451 12.0846 7.51647 11.9968 7.67275 11.8406C7.82903 11.6843 7.91683 11.4723 7.91683 11.2513C7.91683 11.0303 7.82903 10.8183 7.67275 10.662C7.51647 10.5058 7.30451 10.418 7.0835 10.418ZM7.0835 7.5013C6.86248 7.5013 6.65052 7.5891 6.49424 7.74538C6.33796 7.90166 6.25016 8.11362 6.25016 8.33464C6.25016 8.55565 6.33796 8.76761 6.49424 8.92389C6.65052 9.08017 6.86248 9.16797 7.0835 9.16797C7.30451 9.16797 7.51647 9.08017 7.67275 8.92389C7.82903 8.76761 7.91683 8.55565 7.91683 8.33464C7.91683 8.11362 7.82903 7.90166 7.67275 7.74538C7.51647 7.5891 7.30451 7.5013 7.0835 7.5013ZM10.0002 4.58464C9.77915 4.58464 9.56719 4.67243 9.41091 4.82871C9.25463 4.98499 9.16683 5.19696 9.16683 5.41797C9.16683 5.63898 9.25463 5.85094 9.41091 6.00722C9.56719 6.1635 9.77915 6.2513 10.0002 6.2513C10.2212 6.2513 10.4331 6.1635 10.5894 6.00722C10.7457 5.85094 10.8335 5.63898 10.8335 5.41797C10.8335 5.19696 10.7457 4.98499 10.5894 4.82871C10.4331 4.67243 10.2212 4.58464 10.0002 4.58464ZM10.0002 10.418C9.77915 10.418 9.56719 10.5058 9.41091 10.662C9.25463 10.8183 9.16683 11.0303 9.16683 11.2513C9.16683 11.4723 9.25463 11.6843 9.41091 11.8406C9.56719 11.9968 9.77915 12.0846 10.0002 12.0846C10.2212 12.0846 10.4331 11.9968 10.5894 11.8406C10.7457 11.6843 10.8335 11.4723 10.8335 11.2513C10.8335 11.0303 10.7457 10.8183 10.5894 10.662C10.4331 10.5058 10.2212 10.418 10.0002 10.418ZM12.9168 10.418C12.6958 10.418 12.4839 10.5058 12.3276 10.662C12.1713 10.8183 12.0835 11.0303 12.0835 11.2513C12.0835 11.4723 12.1713 11.6843 12.3276 11.8406C12.4839 11.9968 12.6958 12.0846 12.9168 12.0846C13.1378 12.0846 13.3498 11.9968 13.5061 11.8406C13.6624 11.6843 13.7502 11.4723 13.7502 11.2513C13.7502 11.0303 13.6624 10.8183 13.5061 10.662C13.3498 10.5058 13.1378 10.418 12.9168 10.418ZM10.0002 7.5013C9.77915 7.5013 9.56719 7.5891 9.41091 7.74538C9.25463 7.90166 9.16683 8.11362 9.16683 8.33464C9.16683 8.55565 9.25463 8.76761 9.41091 8.92389C9.56719 9.08017 9.77915 9.16797 10.0002 9.16797C10.2212 9.16797 10.4331 9.08017 10.5894 8.92389C10.7457 8.76761 10.8335 8.55565 10.8335 8.33464C10.8335 8.11362 10.7457 7.90166 10.5894 7.74538C10.4331 7.5891 10.2212 7.5013 10.0002 7.5013Z" fill="#6C757D"/>
</svg>
