<svg width="24" height="24" viewBox="0 0 24 24" fill="none" xmlns="http://www.w3.org/2000/svg">
<rect x="0.5" y="0.5" width="23" height="23" rx="5.5" fill="#EEF7E7"/>
<rect x="0.5" y="0.5" width="23" height="23" rx="5.5" stroke="#E3F5D6"/>
<path fill-rule="evenodd" clip-rule="evenodd" d="M14.3333 5.33337C13.4128 5.33337 12.6666 6.07957 12.6666 7.00004V17C12.6666 17.9205 13.4128 18.6667 14.3333 18.6667H16.9999C17.9204 18.6667 18.6666 17.9205 18.6666 17V7.00004C18.6666 6.07957 17.9204 5.33337 16.9999 5.33337H14.3333ZM13.9999 7.00004C13.9999 6.81595 14.1492 6.66671 14.3333 6.66671H16.9999C17.184 6.66671 17.3333 6.81595 17.3333 7.00004V17C17.3333 17.1841 17.184 17.3334 16.9999 17.3334H14.3333C14.1492 17.3334 13.9999 17.1841 13.9999 17V7.00004Z" fill="#358619"/>
<path fill-rule="evenodd" clip-rule="evenodd" d="M6.99992 11.3334C6.07944 11.3334 5.33325 12.0796 5.33325 13V17C5.33325 17.9205 6.07944 18.6667 6.99992 18.6667H9.66659C10.5871 18.6667 11.3333 17.9205 11.3333 17V13C11.3333 12.0796 10.5871 11.3334 9.66659 11.3334H6.99992ZM6.66659 13C6.66659 12.8159 6.81582 12.6667 6.99992 12.6667H9.66659C9.85068 12.6667 9.99992 12.8159 9.99992 13V17C9.99992 17.1841 9.85068 17.3334 9.66659 17.3334H6.99992C6.81582 17.3334 6.66659 17.1841 6.66659 17V13Z" fill="#358619"/>
</svg>
