<svg width="60" height="60" viewBox="0 0 60 60" fill="none" xmlns="http://www.w3.org/2000/svg">
<rect width="60" height="60" rx="30" fill="white" fill-opacity="0.1"/>
<path d="M39.3759 34.406C39.2903 34.4549 39.1958 34.4863 39.098 34.4986C39.0001 34.511 38.9008 34.5038 38.8057 34.4777C38.7106 34.4516 38.6216 34.407 38.5438 34.3464C38.466 34.2858 38.4009 34.2105 38.3522 34.1248L36.5709 31.0123C35.5354 31.7125 34.393 32.24 33.1884 32.5741L33.7387 35.876C33.755 35.9732 33.7519 36.0727 33.7297 36.1687C33.7075 36.2647 33.6665 36.3554 33.6092 36.4356C33.552 36.5158 33.4794 36.5839 33.3958 36.636C33.3122 36.6882 33.2191 36.7233 33.1219 36.7395C33.0819 36.746 33.0414 36.7495 33.0009 36.7498C32.8235 36.7495 32.6519 36.6863 32.5167 36.5715C32.3814 36.4567 32.2912 36.2976 32.2622 36.1226L31.7212 32.8807C30.5805 33.0395 29.4232 33.0395 28.2825 32.8807L27.7416 36.1226C27.7124 36.2979 27.622 36.4573 27.4864 36.5721C27.3507 36.687 27.1787 36.75 27.0009 36.7498C26.9595 36.7496 26.9181 36.7462 26.8772 36.7395C26.78 36.7233 26.6869 36.6882 26.6032 36.636C26.5196 36.5839 26.4471 36.5158 26.3898 36.4356C26.3325 36.3554 26.2916 36.2647 26.2694 36.1687C26.2471 36.0727 26.2441 35.9732 26.2603 35.876L26.8134 32.5741C25.6093 32.2389 24.4676 31.7105 23.4328 31.0095L21.6572 34.1248C21.5577 34.2981 21.3935 34.4248 21.2006 34.477C21.0078 34.5292 20.802 34.5027 20.6287 34.4032C20.4554 34.3038 20.3287 34.1395 20.2765 33.9467C20.2243 33.7538 20.2508 33.5481 20.3503 33.3748L22.2253 30.0935C21.5667 29.5245 20.9611 28.897 20.4159 28.2185C20.3479 28.1426 20.2961 28.0536 20.2637 27.957C20.2312 27.8604 20.2188 27.7582 20.2271 27.6567C20.2355 27.5551 20.2644 27.4563 20.3122 27.3663C20.3601 27.2763 20.4257 27.197 20.5052 27.1332C20.5846 27.0694 20.6763 27.0225 20.7745 26.9953C20.8727 26.9681 20.9754 26.9613 21.0764 26.9751C21.1774 26.9889 21.2744 27.0232 21.3617 27.0758C21.449 27.1284 21.5247 27.1982 21.5841 27.281C23.1403 29.2066 25.8628 31.4998 30.0009 31.4998C34.1391 31.4998 36.8616 29.2038 38.4178 27.281C38.4765 27.1965 38.552 27.125 38.6395 27.0709C38.7271 27.0168 38.8248 26.9814 38.9267 26.9667C39.0285 26.952 39.1323 26.9584 39.2315 26.9855C39.3308 27.0127 39.4234 27.06 39.5036 27.1244C39.5838 27.1889 39.6499 27.2692 39.6977 27.3603C39.7456 27.4514 39.7742 27.5514 39.7817 27.654C39.7892 27.7566 39.7756 27.8597 39.7416 27.9568C39.7076 28.0539 39.654 28.143 39.5841 28.2185C39.0389 28.897 38.4333 29.5245 37.7747 30.0935L39.6497 33.3748C39.7 33.4603 39.7329 33.555 39.7463 33.6533C39.7598 33.7516 39.7537 33.8517 39.7282 33.9476C39.7027 34.0435 39.6585 34.1334 39.598 34.2121C39.5375 34.2908 39.4621 34.3567 39.3759 34.406Z" fill="#EAE68B"/>
</svg>
