<svg width="60" height="60" viewBox="0 0 60 60" fill="none" xmlns="http://www.w3.org/2000/svg">
<rect width="60" height="60" rx="30" fill="white" fill-opacity="0.1"/>
<path d="M38.25 22.5H34.5V21.75C34.5 21.1533 34.2629 20.581 33.841 20.159C33.419 19.7371 32.8467 19.5 32.25 19.5H27.75C27.1533 19.5 26.581 19.7371 26.159 20.159C25.7371 20.581 25.5 21.1533 25.5 21.75V22.5H21.75C21.5511 22.5 21.3603 22.579 21.2197 22.7197C21.079 22.8603 21 23.0511 21 23.25C21 23.4489 21.079 23.6397 21.2197 23.7803C21.3603 23.921 21.5511 24 21.75 24H22.5V37.5C22.5 37.8978 22.658 38.2794 22.9393 38.5607C23.2206 38.842 23.6022 39 24 39H36C36.3978 39 36.7794 38.842 37.0607 38.5607C37.342 38.2794 37.5 37.8978 37.5 37.5V24H38.25C38.4489 24 38.6397 23.921 38.7803 23.7803C38.921 23.6397 39 23.4489 39 23.25C39 23.0511 38.921 22.8603 38.7803 22.7197C38.6397 22.579 38.4489 22.5 38.25 22.5ZM27 21.75C27 21.5511 27.079 21.3603 27.2197 21.2197C27.3603 21.079 27.5511 21 27.75 21H32.25C32.4489 21 32.6397 21.079 32.7803 21.2197C32.921 21.3603 33 21.5511 33 21.75V22.5H27V21.75ZM36 37.5H24V24H36V37.5ZM28.5 27.75V33.75C28.5 33.9489 28.421 34.1397 28.2803 34.2803C28.1397 34.421 27.9489 34.5 27.75 34.5C27.5511 34.5 27.3603 34.421 27.2197 34.2803C27.079 34.1397 27 33.9489 27 33.75V27.75C27 27.5511 27.079 27.3603 27.2197 27.2197C27.3603 27.079 27.5511 27 27.75 27C27.9489 27 28.1397 27.079 28.2803 27.2197C28.421 27.3603 28.5 27.5511 28.5 27.75ZM33 27.75V33.75C33 33.9489 32.921 34.1397 32.7803 34.2803C32.6397 34.421 32.4489 34.5 32.25 34.5C32.0511 34.5 31.8603 34.421 31.7197 34.2803C31.579 34.1397 31.5 33.9489 31.5 33.75V27.75C31.5 27.5511 31.579 27.3603 31.7197 27.2197C31.8603 27.079 32.0511 27 32.25 27C32.4489 27 32.6397 27.079 32.7803 27.2197C32.921 27.3603 33 27.5511 33 27.75Z" fill="#EAE68B"/>
</svg>
