<svg width="20" height="20" viewBox="0 0 20 20" fill="none" xmlns="http://www.w3.org/2000/svg">
<path fill-rule="evenodd" clip-rule="evenodd" d="M9.58342 1.66669C5.21116 1.66669 1.66675 5.2111 1.66675 9.58335C1.66675 13.9556 5.21116 17.5 9.58342 17.5C11.4694 17.5 13.2013 16.8405 14.5612 15.7396L16.9108 18.0893C17.2363 18.4147 17.7639 18.4147 18.0893 18.0893C18.4148 17.7638 18.4148 17.2362 18.0893 16.9108L15.7397 14.5611C16.8406 13.2012 17.5001 11.4693 17.5001 9.58335C17.5001 5.2111 13.9557 1.66669 9.58342 1.66669ZM3.33341 9.58335C3.33341 6.13157 6.13164 3.33335 9.58342 3.33335C13.0352 3.33335 15.8334 6.13157 15.8334 9.58335C15.8334 13.0351 13.0352 15.8334 9.58342 15.8334C6.13164 15.8334 3.33341 13.0351 3.33341 9.58335Z" fill="#667185"/>
</svg>
