<svg width="48" height="48" viewBox="0 0 48 48" fill="none" xmlns="http://www.w3.org/2000/svg">
<path d="M28.2819 7.2194C26.4885 3.73843 21.5115 3.73843 19.7181 7.2194C18.8642 8.87681 16.9378 9.67474 15.1621 9.10657C11.4325 7.91328 7.91328 11.4325 9.10657 15.1621C9.67474 16.9378 8.87681 18.8642 7.2194 19.7181C3.73843 21.5115 3.73843 26.4885 7.2194 28.2819C8.87681 29.1358 9.67474 31.0622 9.10657 32.8379C7.91328 36.5675 11.4325 40.0867 15.1621 38.8934C16.9378 38.3253 18.8642 39.1232 19.7181 40.7806C21.5115 44.2616 26.4885 44.2616 28.2819 40.7806C29.1358 39.1232 31.0622 38.3253 32.8379 38.8934C36.5675 40.0867 40.0867 36.5675 38.8934 32.8379C38.3253 31.0622 39.1232 29.1358 40.7806 28.2819C44.2616 26.4885 44.2616 21.5115 40.7806 19.7181C39.1232 18.8642 38.3253 16.9378 38.8934 15.1621C40.0867 11.4325 36.5675 7.91328 32.8379 9.10657C31.0622 9.67474 29.1358 8.87681 28.2819 7.2194Z" fill="#C0C0C0" stroke="#A9A9A9"/>
<path d="M20.248 30V28.48L23.992 24.576C24.4613 24.0853 24.808 23.632 25.032 23.216C25.256 22.8 25.368 22.3733 25.368 21.936C25.368 21.392 25.1973 20.9813 24.856 20.704C24.5147 20.4267 24.0187 20.288 23.368 20.288C22.8453 20.288 22.344 20.384 21.864 20.576C21.384 20.7573 20.9147 21.0453 20.456 21.44L19.784 19.904C20.2427 19.4987 20.808 19.1733 21.48 18.928C22.1627 18.6827 22.8773 18.56 23.624 18.56C24.84 18.56 25.7733 18.832 26.424 19.376C27.0747 19.92 27.4 20.6987 27.4 21.712C27.4 22.416 27.2347 23.088 26.904 23.728C26.5733 24.3573 26.0613 25.0187 25.368 25.712L22.248 28.832V28.288H27.848V30H20.248Z" fill="white"/>
</svg>