<svg width="111" height="36" viewBox="0 0 111 36" fill="none" xmlns="http://www.w3.org/2000/svg">
<path d="M0.5 6C0.5 2.96243 2.96243 0.5 6 0.5H105C108.038 0.5 110.5 2.96243 110.5 6V30C110.5 33.0376 108.038 35.5 105 35.5H6C2.96244 35.5 0.5 33.0376 0.5 30V6Z" stroke="#358619"/>
<path d="M17.8335 13.0003C17.8335 12.5401 18.2066 12.167 18.6668 12.167H30.3335C30.7937 12.167 31.1668 12.5401 31.1668 13.0003C31.1668 13.4606 30.7937 13.8337 30.3335 13.8337H18.6668C18.2066 13.8337 17.8335 13.4606 17.8335 13.0003Z" fill="#358619"/>
<path d="M19.5002 18.0003C19.5002 17.5401 19.8733 17.167 20.3335 17.167H28.6668C29.1271 17.167 29.5002 17.5401 29.5002 18.0003C29.5002 18.4606 29.1271 18.8337 28.6668 18.8337H20.3335C19.8733 18.8337 19.5002 18.4606 19.5002 18.0003Z" fill="#358619"/>
<path d="M22.0002 22.167C21.5399 22.167 21.1668 22.5401 21.1668 23.0003C21.1668 23.4606 21.5399 23.8337 22.0002 23.8337H27.0002C27.4604 23.8337 27.8335 23.4606 27.8335 23.0003C27.8335 22.5401 27.4604 22.167 27.0002 22.167H22.0002Z" fill="#358619"/>
<path d="M43.64 15.3636C43.5803 14.8598 43.3384 14.4688 42.9142 14.1903C42.4899 13.9119 41.9695 13.7727 41.3531 13.7727C40.9023 13.7727 40.5079 13.8456 40.1698 13.9915C39.8351 14.1373 39.5732 14.3378 39.3843 14.593C39.1987 14.8482 39.1059 15.1383 39.1059 15.4631C39.1059 15.7348 39.1705 15.9685 39.2998 16.1641C39.4324 16.3563 39.6014 16.517 39.8069 16.6463C40.0124 16.7723 40.2278 16.8767 40.4532 16.9595C40.6786 17.0391 40.8857 17.1037 41.0747 17.1534L42.1088 17.4318C42.3739 17.5014 42.6689 17.5975 42.9937 17.7202C43.3218 17.8428 43.635 18.0102 43.9333 18.2223C44.2349 18.4311 44.4835 18.6996 44.6791 19.0277C44.8746 19.3558 44.9724 19.7585 44.9724 20.2358C44.9724 20.786 44.8282 21.2831 44.5399 21.7273C44.2548 22.1714 43.8372 22.5244 43.287 22.7862C42.7401 23.0481 42.0756 23.179 41.2934 23.179C40.5642 23.179 39.9329 23.0613 39.3992 22.826C38.8689 22.5907 38.4513 22.2625 38.1464 21.8416C37.8448 21.4207 37.6741 20.9318 37.6343 20.375H38.907C38.9402 20.7595 39.0695 21.0777 39.2948 21.3295C39.5235 21.5781 39.8119 21.7637 40.1599 21.8864C40.5112 22.0057 40.8891 22.0653 41.2934 22.0653C41.7641 22.0653 42.1866 21.9891 42.5612 21.8366C42.9357 21.6809 43.2323 21.4654 43.4511 21.1903C43.6698 20.9119 43.7792 20.5871 43.7792 20.2159C43.7792 19.8778 43.6847 19.6027 43.4958 19.3906C43.3069 19.1785 43.0583 19.0062 42.7501 18.8736C42.4419 18.741 42.1088 18.625 41.7508 18.5256L40.498 18.1676C39.7025 17.9389 39.0728 17.6125 38.6088 17.1882C38.1447 16.764 37.9127 16.2088 37.9127 15.5227C37.9127 14.9527 38.0669 14.4555 38.3751 14.0312C38.6866 13.6037 39.1043 13.2723 39.6279 13.0369C40.1549 12.7983 40.7432 12.679 41.3928 12.679C42.0491 12.679 42.6324 12.7966 43.1428 13.032C43.6533 13.264 44.0576 13.5821 44.3559 13.9865C44.6575 14.3909 44.8166 14.8499 44.8332 15.3636H43.64ZM50.0422 23.1591C49.3064 23.1591 48.6717 22.9967 48.1381 22.6719C47.6077 22.3438 47.1984 21.8864 46.9101 21.2997C46.625 20.7098 46.4825 20.0237 46.4825 19.2415C46.4825 18.4593 46.625 17.7699 46.9101 17.1733C47.1984 16.5734 47.5995 16.1061 48.1132 15.7713C48.6302 15.4332 49.2335 15.2642 49.9229 15.2642C50.3206 15.2642 50.7133 15.3305 51.1011 15.4631C51.4889 15.5956 51.8419 15.8111 52.1601 16.1094C52.4782 16.4044 52.7318 16.7955 52.9207 17.2827C53.1096 17.7699 53.2041 18.3698 53.2041 19.0824V19.5795H47.3177V18.5653H52.0109C52.0109 18.1345 51.9247 17.75 51.7524 17.4119C51.5834 17.0739 51.3414 16.8071 51.0265 16.6115C50.715 16.416 50.3471 16.3182 49.9229 16.3182C49.4555 16.3182 49.0512 16.4342 48.7098 16.6662C48.3717 16.8949 48.1115 17.1932 47.9292 17.5611C47.747 17.929 47.6558 18.3234 47.6558 18.7443V19.4205C47.6558 19.9972 47.7552 20.486 47.9541 20.8871C48.1563 21.2848 48.4363 21.5881 48.7943 21.7969C49.1523 22.0024 49.5682 22.1051 50.0422 22.1051C50.3504 22.1051 50.6288 22.062 50.8774 21.9759C51.1293 21.8864 51.3464 21.7538 51.5287 21.5781C51.711 21.3991 51.8518 21.1771 51.9513 20.9119L53.0848 21.2301C52.9655 21.6146 52.7649 21.9527 52.4832 22.2443C52.2015 22.5327 51.8535 22.758 51.4392 22.9205C51.0249 23.0795 50.5592 23.1591 50.0422 23.1591ZM58.3099 15.3636V16.358H54.3525V15.3636H58.3099ZM55.5059 13.5341H56.6792V20.8125C56.6792 21.1439 56.7273 21.3925 56.8234 21.5582C56.9229 21.7206 57.0488 21.83 57.2013 21.8864C57.357 21.9394 57.5211 21.9659 57.6934 21.9659C57.8227 21.9659 57.9288 21.9593 58.0116 21.946C58.0945 21.9295 58.1608 21.9162 58.2105 21.9062L58.4491 22.9602C58.3696 22.9901 58.2586 23.0199 58.116 23.0497C57.9735 23.0829 57.7929 23.0994 57.5741 23.0994C57.2427 23.0994 56.9179 23.0282 56.5997 22.8857C56.2848 22.7431 56.023 22.526 55.8142 22.2344C55.6087 21.9427 55.5059 21.5748 55.5059 21.1307V13.5341ZM64.1714 23V12.8182H70.2765V13.9119H65.4044V17.3523H69.8192V18.446H65.4044V23H64.1714ZM72.2291 23V15.3636H73.4024V23H72.2291ZM72.8257 14.0909C72.597 14.0909 72.3998 14.013 72.2341 13.8572C72.0717 13.7015 71.9905 13.5142 71.9905 13.2955C71.9905 13.0767 72.0717 12.8894 72.2341 12.7337C72.3998 12.5779 72.597 12.5 72.8257 12.5C73.0544 12.5 73.25 12.5779 73.4124 12.7337C73.5781 12.8894 73.661 13.0767 73.661 13.2955C73.661 13.5142 73.5781 13.7015 73.4124 13.8572C73.25 14.013 73.0544 14.0909 72.8257 14.0909ZM76.7247 12.8182V23H75.5514V12.8182H76.7247ZM82.1947 15.3636V16.358H78.2373V15.3636H82.1947ZM79.3907 13.5341H80.564V20.8125C80.564 21.1439 80.6121 21.3925 80.7082 21.5582C80.8076 21.7206 80.9336 21.83 81.086 21.8864C81.2418 21.9394 81.4059 21.9659 81.5782 21.9659C81.7075 21.9659 81.8135 21.9593 81.8964 21.946C81.9793 21.9295 82.0455 21.9162 82.0953 21.9062L82.3339 22.9602C82.2544 22.9901 82.1433 23.0199 82.0008 23.0497C81.8583 23.0829 81.6776 23.0994 81.4589 23.0994C81.1275 23.0994 80.8026 23.0282 80.4845 22.8857C80.1696 22.7431 79.9078 22.526 79.699 22.2344C79.4935 21.9427 79.3907 21.5748 79.3907 21.1307V13.5341ZM87.0793 23.1591C86.3435 23.1591 85.7088 22.9967 85.1752 22.6719C84.6449 22.3438 84.2355 21.8864 83.9472 21.2997C83.6621 20.7098 83.5196 20.0237 83.5196 19.2415C83.5196 18.4593 83.6621 17.7699 83.9472 17.1733C84.2355 16.5734 84.6366 16.1061 85.1503 15.7713C85.6673 15.4332 86.2706 15.2642 86.96 15.2642C87.3577 15.2642 87.7504 15.3305 88.1382 15.4631C88.526 15.5956 88.879 15.8111 89.1972 16.1094C89.5154 16.4044 89.7689 16.7955 89.9578 17.2827C90.1468 17.7699 90.2412 18.3698 90.2412 19.0824V19.5795H84.3548V18.5653H89.048C89.048 18.1345 88.9619 17.75 88.7895 17.4119C88.6205 17.0739 88.3785 16.8071 88.0637 16.6115C87.7521 16.416 87.3842 16.3182 86.96 16.3182C86.4926 16.3182 86.0883 16.4342 85.7469 16.6662C85.4088 16.8949 85.1486 17.1932 84.9664 17.5611C84.7841 17.929 84.6929 18.3234 84.6929 18.7443V19.4205C84.6929 19.9972 84.7923 20.486 84.9912 20.8871C85.1934 21.2848 85.4735 21.5881 85.8314 21.7969C86.1894 22.0024 86.6053 22.1051 87.0793 22.1051C87.3875 22.1051 87.6659 22.062 87.9145 21.9759C88.1664 21.8864 88.3835 21.7538 88.5658 21.5781C88.7481 21.3991 88.8889 21.1771 88.9884 20.9119L90.1219 21.2301C90.0026 21.6146 89.8021 21.9527 89.5203 22.2443C89.2386 22.5327 88.8906 22.758 88.4763 22.9205C88.062 23.0795 87.5963 23.1591 87.0793 23.1591ZM92.026 23V15.3636H93.1595V16.517H93.2391C93.3783 16.1392 93.6302 15.8326 93.9948 15.5973C94.3593 15.362 94.7703 15.2443 95.2277 15.2443C95.3139 15.2443 95.4216 15.246 95.5509 15.2493C95.6801 15.2526 95.7779 15.2576 95.8442 15.2642V16.4574C95.8044 16.4474 95.7133 16.4325 95.5708 16.4126C95.4316 16.3894 95.2841 16.3778 95.1283 16.3778C94.7571 16.3778 94.4256 16.4557 94.134 16.6115C93.8456 16.764 93.6169 16.9761 93.4479 17.2479C93.2822 17.5163 93.1993 17.8229 93.1993 18.1676V23H92.026Z" fill="#358619"/>
</svg>