<svg width="20" height="20" viewBox="0 0 20 20" fill="none" xmlns="http://www.w3.org/2000/svg">
<path d="M18.6792 18.1357H18.4203V9.87906C18.4203 9.26019 17.9312 8.75792 17.3203 8.72773V5.52623C17.3203 5.11 16.9814 4.77151 16.5656 4.77151H15.6448C15.2286 4.77151 14.8901 5.11 14.8901 5.52623V8.72207H13.2814V8.19868C13.6595 8.07566 13.9554 7.76094 14.021 7.37226C14.0649 7.11679 14.0139 6.8541 13.8777 6.63356C13.7415 6.41301 13.5295 6.24978 13.2814 6.17453V4.24056C13.2814 3.89566 13.0475 3.60736 12.7312 3.51755V2.18245H12.9041C13.0041 2.18245 13.1001 2.14269 13.1709 2.07193C13.2417 2.00116 13.2814 1.90517 13.2814 1.80509C13.2814 1.70501 13.2417 1.60903 13.1709 1.53826C13.1001 1.46749 13.0041 1.42773 12.9041 1.42773H8.0018C7.51123 1.42773 7.11123 1.82698 7.11123 2.31792V3.48547H4.95312V2.31792C4.95312 1.82736 4.55425 1.42773 4.06331 1.42773H2.07652C1.97643 1.42773 1.88045 1.46749 1.80968 1.53826C1.73891 1.60903 1.69916 1.70501 1.69916 1.80509C1.69916 1.90517 1.73891 2.00116 1.80968 2.07193C1.88045 2.14269 1.97643 2.18245 2.07652 2.18245H2.2467V3.5183C2.08954 3.563 1.95118 3.65758 1.85248 3.7878C1.75378 3.91802 1.7001 4.07679 1.69953 4.24019V6.17453C1.45108 6.24921 1.23858 6.41229 1.10217 6.63296C0.965756 6.85364 0.914883 7.11663 0.959157 7.37226C1.02444 7.75717 1.31463 8.06924 1.69916 8.1949V10.3515C1.4516 10.4266 1.23981 10.5892 1.1033 10.809C0.966794 11.0287 0.91489 11.2906 0.95727 11.5458C1.02067 11.9345 1.31048 12.2504 1.69916 12.376V14.5285C1.4516 14.6036 1.23981 14.7662 1.1033 14.986C0.966794 15.2057 0.91489 15.4676 0.95727 15.7228C1.02067 16.1115 1.31048 16.4274 1.69916 16.553V18.1357H1.32067C1.22059 18.1357 1.1246 18.1754 1.05383 18.2462C0.983066 18.317 0.943308 18.4129 0.943308 18.513C0.943308 18.6131 0.983066 18.7091 1.05383 18.7799C1.1246 18.8506 1.22059 18.8904 1.32067 18.8904H18.6792C18.7792 18.8904 18.8752 18.8506 18.946 18.7799C19.0168 18.7091 19.0565 18.6131 19.0565 18.513C19.0565 18.4129 19.0168 18.317 18.946 18.2462C18.8752 18.1754 18.7792 18.1357 18.6792 18.1357ZM15.6444 5.52623H16.5652V8.72207H15.6444V5.52623ZM17.2637 9.47679C17.4852 9.47679 17.6656 9.65717 17.6656 9.87868V18.1353H13.2814V16.5579C13.7297 16.4142 14.0633 15.9934 14.0354 15.4892C14.0237 15.271 13.945 15.0617 13.8101 14.8898C13.6752 14.7179 13.4906 14.5918 13.2814 14.5285V12.3889C13.4998 12.3208 13.6905 12.1846 13.8257 12.0001C13.9608 11.8156 14.0333 11.5926 14.0324 11.364C14.0293 10.9172 13.7471 10.4926 13.2814 10.3519V9.47641H17.2641L17.2637 9.47679ZM12.9724 6.88396C13.0644 6.88396 13.1516 6.92434 13.2105 6.99453C13.2444 7.0349 13.2984 7.12132 13.2776 7.24547C13.2531 7.38811 13.1007 7.49943 12.9041 7.49943C12.804 7.49943 12.708 7.53919 12.6372 7.60996C12.5665 7.68073 12.5267 7.77671 12.5267 7.87679V10.6832C12.5267 10.7833 12.5665 10.8793 12.6372 10.95C12.708 11.0208 12.804 11.0606 12.9041 11.0606H12.9293C13.1075 11.0606 13.2788 11.184 13.2799 11.367C13.2829 11.5628 13.1048 11.6802 12.9041 11.6802C12.804 11.6802 12.708 11.7199 12.6372 11.7907C12.5665 11.8615 12.5267 11.9575 12.5267 12.0575V14.8602C12.5267 14.9603 12.5665 15.0563 12.6372 15.127C12.708 15.1978 12.804 15.2375 12.9041 15.2375H12.9724C13.0452 15.237 13.1158 15.2625 13.1715 15.3094C13.2272 15.3563 13.2643 15.4216 13.2761 15.4934C13.315 15.7153 13.1203 15.8572 12.9041 15.8572C12.804 15.8572 12.708 15.8969 12.6372 15.9677C12.5665 16.0385 12.5267 16.1344 12.5267 16.2345V18.1357H7.86784V4.24056H12.5267V6.5066C12.5267 6.60668 12.5665 6.70267 12.6372 6.77344C12.708 6.8442 12.804 6.88396 12.9041 6.88396H12.9724ZM4.95274 14.7043H7.11312V16.0425H4.95274V14.7043ZM4.95274 12.6115H7.11312V13.9496H4.95274V12.6115ZM4.95274 10.5187H7.11312V11.8568H4.95274V10.5187ZM4.95274 8.42585H7.11312V9.76396H4.95274V8.42585ZM7.11312 7.67113H4.95274V6.33302H7.11312V7.67113ZM4.95274 16.7972H7.11312V18.1357H4.95274V16.7972ZM7.11312 5.5783H4.95274V4.24019H7.11312V5.5783ZM11.9765 3.48585H10.7852V2.18245H11.9765V3.48585ZM7.86633 2.31792C7.86643 2.28196 7.88078 2.2475 7.90625 2.22211C7.93172 2.19671 7.96621 2.18245 8.00218 2.18245H10.0305V3.48585H7.86633V2.31792ZM4.06331 2.18245C4.09914 2.18265 4.13345 2.197 4.15875 2.22237C4.18405 2.24775 4.1983 2.28209 4.1984 2.31792V3.48585H3.00142V2.18207L4.06331 2.18245ZM2.04369 15.8575C1.87576 15.8575 1.72557 15.7455 1.70255 15.6025C1.69462 15.5579 1.69655 15.5121 1.7082 15.4683C1.71986 15.4245 1.74095 15.3838 1.77002 15.3491C1.79908 15.3144 1.83539 15.2864 1.87641 15.2672C1.91744 15.248 1.96216 15.238 2.00746 15.2379H2.07652C2.1766 15.2379 2.27258 15.1982 2.34335 15.1274C2.41412 15.0566 2.45387 14.9606 2.45387 14.8606V12.0575C2.45387 11.8492 2.25236 11.6802 2.04369 11.6802C1.87576 11.6802 1.72557 11.5681 1.70255 11.4251C1.69462 11.3805 1.69655 11.3347 1.7082 11.2909C1.71986 11.2472 1.74095 11.2065 1.77002 11.1717C1.79908 11.137 1.83539 11.109 1.87641 11.0898C1.91744 11.0706 1.96216 11.0606 2.00746 11.0606H2.07652C2.1766 11.0606 2.27258 11.0208 2.34335 10.95C2.41412 10.8793 2.45387 10.7833 2.45387 10.6832V7.87679C2.45387 7.66849 2.2584 7.49943 2.04972 7.49943C1.87991 7.49943 1.72708 7.38811 1.70255 7.24509C1.69476 7.20069 1.69682 7.15512 1.70857 7.1116C1.72032 7.06809 1.74149 7.02768 1.77057 6.99323C1.79965 6.95879 1.83594 6.93115 1.87687 6.91227C1.9178 6.89339 1.96238 6.88372 2.00746 6.88396H2.07652C2.1766 6.88396 2.27258 6.8442 2.34335 6.77344C2.41412 6.70267 2.45387 6.60668 2.45387 6.5066V4.24056H4.19803V18.1357H2.45387V16.2349C2.45387 16.0266 2.25236 15.8575 2.04369 15.8575Z" fill="#206645"/>
<path d="M15.6434 4.27642C15.7123 4.20389 15.7495 4.10699 15.747 4.00701C15.7444 3.90703 15.7023 3.81215 15.6299 3.74321C15.5614 3.67923 15.5068 3.60187 15.4695 3.51593C15.4322 3.42999 15.4129 3.33729 15.4129 3.24359C15.4129 3.03152 15.7355 2.52171 16.105 2.06321C16.4748 2.52133 16.797 3.03114 16.797 3.24359C16.797 3.43303 16.72 3.61038 16.58 3.74321C16.5431 3.77707 16.5132 3.81795 16.4922 3.86348C16.4711 3.90901 16.4594 3.95827 16.4577 4.00838C16.4559 4.05849 16.4642 4.10845 16.4819 4.15534C16.4997 4.20223 16.5266 4.24511 16.5612 4.28147C16.5957 4.31783 16.6371 4.34694 16.683 4.36711C16.7289 4.38727 16.7784 4.39809 16.8285 4.39892C16.8787 4.39975 16.9285 4.39058 16.975 4.37194C17.0216 4.35331 17.064 4.32558 17.0997 4.29038C17.2427 4.15615 17.3566 3.99397 17.4343 3.81391C17.5121 3.63384 17.5521 3.43973 17.5517 3.24359C17.5517 2.56057 16.6574 1.5285 16.3834 1.2285C16.2404 1.07227 15.9695 1.07227 15.8265 1.2285C15.5521 1.5285 14.6582 2.56057 14.6582 3.24359C14.6582 3.64171 14.8189 4.0134 15.1102 4.29076C15.1828 4.35957 15.2797 4.39675 15.3797 4.39413C15.4797 4.39151 15.5746 4.34931 15.6434 4.2768V4.27642ZM14.388 13.1734C14.5133 13.2515 14.6491 13.2911 14.7917 13.2911H16.154C16.5699 13.2911 16.9087 12.9527 16.9087 12.5364V11.1742C16.9087 10.7579 16.5699 10.4194 16.154 10.4194H15.0936C14.9935 10.4194 14.8976 10.4592 14.8268 10.53C14.756 10.6007 14.7163 10.6967 14.7163 10.7968C14.7163 10.8969 14.756 10.9929 14.8268 11.0636C14.8976 11.1344 14.9935 11.1742 15.0936 11.1742H16.154V12.5364L14.788 12.533C14.7459 12.5068 14.6991 12.489 14.6502 12.4809C14.6013 12.4727 14.5513 12.4742 14.503 12.4854C14.4547 12.4965 14.409 12.5171 14.3687 12.5459C14.3283 12.5747 14.294 12.6112 14.2678 12.6532C14.2415 12.6953 14.2238 12.7421 14.2156 12.791C14.2074 12.8399 14.209 12.8899 14.2201 12.9382C14.2313 12.9865 14.2519 13.0321 14.2807 13.0725C14.3095 13.1129 14.3459 13.1471 14.388 13.1734ZM16.154 14.3213H14.9955C14.8954 14.3213 14.7995 14.3611 14.7287 14.4319C14.6579 14.5026 14.6182 14.5986 14.6182 14.6987C14.6182 14.7988 14.6579 14.8947 14.7287 14.9655C14.7995 15.0363 14.8954 15.076 14.9955 15.076H16.154V16.4383H14.8189C14.7295 16.4254 14.6385 16.445 14.5623 16.4935C14.4861 16.542 14.4299 16.6162 14.4038 16.7026C14.3776 16.7891 14.3834 16.882 14.4199 16.9646C14.4565 17.0472 14.5215 17.1139 14.6031 17.1526C14.6536 17.1764 14.7359 17.1926 14.7917 17.1926H16.154C16.5699 17.1926 16.9087 16.8542 16.9087 16.4379V15.0757C16.9087 14.6598 16.5699 14.3213 16.154 14.3213Z" fill="#206645"/>
</svg>
