<svg width="20" height="20" viewBox="0 0 20 20" fill="none" xmlns="http://www.w3.org/2000/svg">
<path d="M16.6665 4.9974C17.1498 4.9974 17.5415 5.16406 17.8498 5.48906C18.1665 5.83073 18.3332 6.20573 18.3332 6.66406V15.8307C18.3332 16.2891 18.1665 16.6641 17.8498 17.0057C17.5415 17.3307 17.1498 17.4974 16.6665 17.4974H3.33317C2.84984 17.4974 2.45817 17.3307 2.14984 17.0057C1.83317 16.6641 1.6665 16.2891 1.6665 15.8307V6.66406C1.6665 6.20573 1.83317 5.83073 2.14984 5.48906C2.45817 5.16406 2.84984 4.9974 3.33317 4.9974H6.6665V3.33073C6.6665 2.8474 6.83317 2.45573 7.14984 2.1474C7.45817 1.83073 7.84984 1.66406 8.33317 1.66406H11.6665C12.1498 1.66406 12.5415 1.83073 12.8498 2.1474C13.1665 2.45573 13.3332 2.8474 13.3332 3.33073V4.9974H16.6665ZM3.33317 6.66406V15.8307H16.6665V6.66406H3.33317ZM11.6665 4.9974V3.33073H8.33317V4.9974H11.6665Z" fill="#6C757D"/>
</svg>
