<svg width="24" height="24" viewBox="0 0 24 24" fill="none" xmlns="http://www.w3.org/2000/svg">
<path d="M12 22.75C6.07 22.75 1.25 17.93 1.25 12C1.25 6.07 6.07 1.25 12 1.25C17.93 1.25 22.75 6.07 22.75 12C22.75 17.93 17.93 22.75 12 22.75ZM12 2.75C6.9 2.75 2.75 6.9 2.75 12C2.75 17.1 6.9 21.25 12 21.25C17.1 21.25 21.25 17.1 21.25 12C21.25 6.9 17.1 2.75 12 2.75Z" fill="#667185"/>
<path d="M10.625 14.0717V13.9773C10.6316 13.3608 10.6929 12.8703 10.8089 12.5057C10.9283 12.1411 11.0973 11.8461 11.3161 11.6207C11.5348 11.3954 11.7983 11.1899 12.1065 11.0043C12.3054 10.8783 12.4844 10.7375 12.6435 10.5817C12.8026 10.4259 12.9285 10.2469 13.0213 10.0447C13.1141 9.84257 13.1605 9.61884 13.1605 9.37358C13.1605 9.0786 13.0909 8.82339 12.9517 8.60795C12.8125 8.39252 12.6269 8.2268 12.3949 8.1108C12.1662 7.99148 11.911 7.93182 11.6293 7.93182C11.3741 7.93182 11.1304 7.98485 10.8984 8.09091C10.6664 8.19697 10.4742 8.36269 10.3217 8.58807C10.1693 8.81013 10.0814 9.09683 10.0582 9.44815H8.54688C8.57008 8.85156 8.72088 8.34777 8.99929 7.93679C9.2777 7.52249 9.6456 7.20928 10.103 6.99716C10.5637 6.78504 11.0724 6.67898 11.6293 6.67898C12.2391 6.67898 12.7727 6.79332 13.2301 7.02202C13.6875 7.2474 14.0421 7.56392 14.294 7.97159C14.5492 8.37595 14.6768 8.84825 14.6768 9.38849C14.6768 9.75971 14.6188 10.0945 14.5028 10.3928C14.3868 10.6877 14.2211 10.9512 14.0057 11.1832C13.7936 11.4152 13.5384 11.6207 13.2401 11.7997C12.9583 11.9754 12.7296 12.1577 12.554 12.3466C12.3816 12.5355 12.2557 12.7592 12.1761 13.0178C12.0966 13.2763 12.0535 13.5961 12.0469 13.9773V14.0717H10.625ZM11.3757 17.0945C11.1039 17.0945 10.8703 16.9983 10.6747 16.8061C10.4792 16.6106 10.3814 16.3752 10.3814 16.1001C10.3814 15.8284 10.4792 15.5964 10.6747 15.4041C10.8703 15.2086 11.1039 15.1108 11.3757 15.1108C11.6442 15.1108 11.8762 15.2086 12.0717 15.4041C12.2706 15.5964 12.37 15.8284 12.37 16.1001C12.37 16.2824 12.3236 16.4498 12.2308 16.6023C12.1413 16.7514 12.022 16.8707 11.8729 16.9602C11.7237 17.0497 11.558 17.0945 11.3757 17.0945Z" fill="#667185"/>
</svg>