<svg width="20" height="20" viewBox="0 0 20 20" fill="none" xmlns="http://www.w3.org/2000/svg">
<path d="M6.35684 1.61582L1.61622 6.35723C1.50011 6.47331 1.40801 6.61112 1.34518 6.76279C1.28234 6.91447 1.25 7.07704 1.25 7.24121C1.25 7.40539 1.28234 7.56796 1.34518 7.71964C1.40801 7.87131 1.50011 8.00912 1.61622 8.1252L5.81934 12.315C5.5584 13.1479 5.24356 15.0494 6.84591 17.0338C6.95589 17.1706 7.09344 17.2827 7.24961 17.3627C7.40579 17.4428 7.57707 17.4891 7.75233 17.4987C7.92758 17.5082 8.10287 17.4807 8.26679 17.4179C8.43071 17.3552 8.57958 17.2587 8.70372 17.1346L12.4772 13.3596L15.8076 16.6924C15.9249 16.8097 16.084 16.8755 16.2498 16.8755C16.4157 16.8755 16.5747 16.8097 16.692 16.6924C16.8093 16.5751 16.8752 16.4161 16.8752 16.2502C16.8752 16.0843 16.8093 15.9253 16.692 15.808L13.3592 12.4775L17.1318 8.70489C17.2483 8.58891 17.3408 8.4511 17.4039 8.29934C17.467 8.14759 17.4996 7.98488 17.4998 7.82051C17.4998 7.79082 17.4998 7.76192 17.4998 7.73223C17.4875 7.55404 17.4369 7.3806 17.3516 7.22369C17.2662 7.06678 17.1481 6.93007 17.0053 6.82286C14.9662 5.28848 13.3084 5.43614 12.3178 5.79239L8.12481 1.61504C8.00868 1.49899 7.87083 1.40695 7.71913 1.34418C7.56742 1.28141 7.40484 1.24914 7.24067 1.24922C7.07649 1.24929 6.91393 1.2817 6.76229 1.34461C6.61064 1.40751 6.47287 1.49967 6.35684 1.61582ZM7.24122 2.5002L11.7303 6.97442C11.823 7.06682 11.9424 7.12776 12.0717 7.14865C12.2009 7.16953 12.3335 7.14931 12.4506 7.09082C13.9295 6.35176 15.4654 7.23145 16.249 7.82051L7.81856 16.2502C7.05762 15.3064 6.85684 14.4033 6.85684 13.7127C6.85086 13.2745 6.93683 12.8399 7.10919 12.4369C7.16802 12.3194 7.18829 12.1862 7.16711 12.0565C7.14593 11.9268 7.08438 11.807 6.99122 11.7143L2.49981 7.24082L7.24044 2.5002H7.24122Z" fill="white"/>
</svg>
