<svg width="95" height="82" viewBox="0 0 95 82" fill="none" xmlns="http://www.w3.org/2000/svg">
<circle cx="1.54225" cy="1.54225" r="1.54225" transform="matrix(1 0 0 -1 0 81.5918)" fill="white" fill-opacity="0.2"/>
<circle cx="1.54225" cy="1.54225" r="1.54225" transform="matrix(1 0 0 -1 13.084 81.5918)" fill="white" fill-opacity="0.2"/>
<circle cx="1.54225" cy="1.54225" r="1.54225" transform="matrix(1 0 0 -1 26.1699 81.5918)" fill="white" fill-opacity="0.2"/>
<circle cx="1.54225" cy="1.54225" r="1.54225" transform="matrix(1 0 0 -1 39.2539 81.5918)" fill="white" fill-opacity="0.2"/>
<circle cx="1.54225" cy="1.54225" r="1.54225" transform="matrix(1 0 0 -1 0 68.5073)" fill="white" fill-opacity="0.2"/>
<circle cx="1.54225" cy="1.54225" r="1.54225" transform="matrix(1 0 0 -1 13.084 68.5073)" fill="white" fill-opacity="0.2"/>
<circle cx="1.54225" cy="1.54225" r="1.54225" transform="matrix(1 0 0 -1 26.1699 68.5073)" fill="white" fill-opacity="0.2"/>
<circle cx="1.54225" cy="1.54225" r="1.54225" transform="matrix(1 0 0 -1 39.2539 68.5073)" fill="white" fill-opacity="0.2"/>
<circle cx="1.54225" cy="1.54225" r="1.54225" transform="matrix(1 0 0 -1 0 55.4229)" fill="white" fill-opacity="0.2"/>
<circle cx="1.54225" cy="1.54225" r="1.54225" transform="matrix(1 0 0 -1 13.084 55.4229)" fill="white" fill-opacity="0.2"/>
<circle cx="1.54225" cy="1.54225" r="1.54225" transform="matrix(1 0 0 -1 26.1699 55.4229)" fill="white" fill-opacity="0.2"/>
<circle cx="1.54225" cy="1.54225" r="1.54225" transform="matrix(1 0 0 -1 39.2539 55.4229)" fill="white" fill-opacity="0.2"/>
<circle cx="1.54225" cy="1.54225" r="1.54225" transform="matrix(1 0 0 -1 0 42.3384)" fill="white" fill-opacity="0.2"/>
<circle cx="1.54225" cy="1.54225" r="1.54225" transform="matrix(1 0 0 -1 13.084 42.3384)" fill="white" fill-opacity="0.2"/>
<circle cx="1.54225" cy="1.54225" r="1.54225" transform="matrix(1 0 0 -1 26.1699 42.3384)" fill="white" fill-opacity="0.2"/>
<circle cx="1.54225" cy="1.54225" r="1.54225" transform="matrix(1 0 0 -1 39.2539 42.3384)" fill="white" fill-opacity="0.2"/>
<circle cx="1.54225" cy="1.54225" r="1.54225" transform="matrix(1 0 0 -1 52.3379 42.3384)" fill="white" fill-opacity="0.2"/>
<circle cx="1.54225" cy="1.54225" r="1.54225" transform="matrix(1 0 0 -1 65.4219 42.3384)" fill="white" fill-opacity="0.2"/>
<circle cx="1.54225" cy="1.54225" r="1.54225" transform="matrix(1 0 0 -1 78.5078 42.3384)" fill="white" fill-opacity="0.2"/>
<circle cx="1.54225" cy="1.54225" r="1.54225" transform="matrix(1 0 0 -1 91.5918 42.3384)" fill="white" fill-opacity="0.2"/>
<circle cx="1.54225" cy="1.54225" r="1.54225" transform="matrix(1 0 0 -1 0 29.2539)" fill="white" fill-opacity="0.2"/>
<circle cx="1.54225" cy="1.54225" r="1.54225" transform="matrix(1 0 0 -1 13.084 29.2539)" fill="white" fill-opacity="0.2"/>
<circle cx="1.54225" cy="1.54225" r="1.54225" transform="matrix(1 0 0 -1 26.1699 29.2539)" fill="white" fill-opacity="0.2"/>
<circle cx="1.54225" cy="1.54225" r="1.54225" transform="matrix(1 0 0 -1 39.2539 29.2539)" fill="white" fill-opacity="0.2"/>
<circle cx="1.54225" cy="1.54225" r="1.54225" transform="matrix(1 0 0 -1 52.3379 29.2539)" fill="white" fill-opacity="0.2"/>
<circle cx="1.54225" cy="1.54225" r="1.54225" transform="matrix(1 0 0 -1 65.4219 29.2539)" fill="white" fill-opacity="0.2"/>
<circle cx="1.54225" cy="1.54225" r="1.54225" transform="matrix(1 0 0 -1 78.5078 29.2539)" fill="white" fill-opacity="0.2"/>
<circle cx="1.54225" cy="1.54225" r="1.54225" transform="matrix(1 0 0 -1 91.5918 29.2539)" fill="white" fill-opacity="0.2"/>
<circle cx="1.54225" cy="1.54225" r="1.54225" transform="matrix(1 0 0 -1 0 16.1694)" fill="white" fill-opacity="0.2"/>
<circle cx="1.54225" cy="1.54225" r="1.54225" transform="matrix(1 0 0 -1 13.084 16.1694)" fill="white" fill-opacity="0.2"/>
<circle cx="1.54225" cy="1.54225" r="1.54225" transform="matrix(1 0 0 -1 26.1699 16.1694)" fill="white" fill-opacity="0.2"/>
<circle cx="1.54225" cy="1.54225" r="1.54225" transform="matrix(1 0 0 -1 39.2539 16.1694)" fill="white" fill-opacity="0.2"/>
<circle cx="1.54225" cy="1.54225" r="1.54225" transform="matrix(1 0 0 -1 52.3379 16.1694)" fill="white" fill-opacity="0.2"/>
<circle cx="1.54225" cy="1.54225" r="1.54225" transform="matrix(1 0 0 -1 65.4219 16.1694)" fill="white" fill-opacity="0.2"/>
<circle cx="1.54225" cy="1.54225" r="1.54225" transform="matrix(1 0 0 -1 78.5078 16.1694)" fill="white" fill-opacity="0.2"/>
<circle cx="1.54225" cy="1.54225" r="1.54225" transform="matrix(1 0 0 -1 91.5918 16.1694)" fill="white" fill-opacity="0.2"/>
<circle cx="1.54225" cy="1.54225" r="1.54225" transform="matrix(1 0 0 -1 0 3.08496)" fill="white" fill-opacity="0.2"/>
<circle cx="1.54225" cy="1.54225" r="1.54225" transform="matrix(1 0 0 -1 13.084 3.08496)" fill="white" fill-opacity="0.2"/>
<circle cx="1.54225" cy="1.54225" r="1.54225" transform="matrix(1 0 0 -1 26.1699 3.08496)" fill="white" fill-opacity="0.2"/>
<circle cx="1.54225" cy="1.54225" r="1.54225" transform="matrix(1 0 0 -1 39.2539 3.08496)" fill="white" fill-opacity="0.2"/>
<circle cx="1.54225" cy="1.54225" r="1.54225" transform="matrix(1 0 0 -1 52.3379 3.08496)" fill="white" fill-opacity="0.2"/>
<circle cx="1.54225" cy="1.54225" r="1.54225" transform="matrix(1 0 0 -1 65.4219 3.08496)" fill="white" fill-opacity="0.2"/>
<circle cx="1.54225" cy="1.54225" r="1.54225" transform="matrix(1 0 0 -1 78.5078 3.08496)" fill="white" fill-opacity="0.2"/>
<circle cx="1.54225" cy="1.54225" r="1.54225" transform="matrix(1 0 0 -1 91.5918 3.08496)" fill="white" fill-opacity="0.2"/>
</svg>
