<svg width="20" height="20" viewBox="0 0 20 20" fill="none" xmlns="http://www.w3.org/2000/svg">
<path fill-rule="evenodd" clip-rule="evenodd" d="M11.667 4.5827C11.667 5.27305 11.1073 5.8327 10.417 5.8327C9.72664 5.8327 9.16699 5.27305 9.16699 4.5827C9.16699 3.89234 9.72664 3.3327 10.417 3.3327C11.1073 3.3327 11.667 3.89234 11.667 4.5827ZM13.3337 4.5827C13.3337 6.19352 12.0279 7.49934 10.417 7.49934C8.80613 7.49934 7.50035 6.19352 7.50035 4.5827C7.50035 2.97184 8.80617 1.66602 10.417 1.66602C12.0279 1.66602 13.3337 2.97187 13.3337 4.5827ZM4.58371 7.49945C4.81383 7.49945 5.00035 7.31289 5.00035 7.08277C5.00035 6.85266 4.81383 6.66609 4.58371 6.66609C4.35359 6.66609 4.16703 6.85266 4.16703 7.08277C4.16703 7.31289 4.35359 7.49945 4.58371 7.49945ZM4.58371 9.16609C5.7343 9.16609 6.66703 8.23336 6.66703 7.08277C6.66703 5.93219 5.7343 4.99945 4.58371 4.99945C3.43309 4.99945 2.50035 5.93219 2.50035 7.08277C2.50035 8.23336 3.43309 9.16609 4.58371 9.16609ZM11.4022 9.9993H9.16691C8.24645 9.9993 7.50023 10.7455 7.50023 11.666V12.4782L7.50031 12.4916L7.50035 12.4995V14.166H9.16699V14.166C9.16699 14.7504 9.26723 15.3114 9.45148 15.8327H7.50035V15.8328H1.66699V12.4995C1.66699 11.1187 2.78629 9.99945 4.16699 9.99945H5.00035C5.41 9.99945 5.79664 10.098 6.13789 10.2726C6.66551 9.1275 7.8234 8.33266 9.16691 8.33266H11.6669C12.5167 8.33266 13.2922 8.65062 13.8809 9.17406C12.9959 9.22331 12.1401 9.50822 11.4022 9.9993ZM5.83359 12.4871C5.82699 12.0326 5.45648 11.6661 5.00035 11.6661H4.16699C3.70676 11.6661 3.33367 12.0392 3.33367 12.4995V14.1661H5.83359V12.4871ZM15.3196 9.99945H13.0048V10.8912C12.6024 11.0336 12.2298 11.2491 11.9055 11.5268L11.1325 11.0804L9.97512 13.0851L10.7475 13.5311C10.7089 13.7405 10.6896 13.9531 10.6896 14.1661C10.6896 14.3829 10.7095 14.5952 10.7476 14.801L9.97508 15.247L11.1325 17.2517L11.9056 16.8054C12.2298 17.083 12.6024 17.2984 13.0048 17.4408V18.3328H15.3196V17.4405C15.7218 17.2981 16.0943 17.0827 16.4184 16.8052L17.192 17.2518L18.3494 15.2471L17.5762 14.8007C17.6148 14.5914 17.6342 14.3789 17.6341 14.1661C17.6341 13.9493 17.6142 13.7371 17.5762 13.5314L18.3494 13.085L17.192 11.0803L16.4184 11.527C16.0943 11.2494 15.7219 11.034 15.3196 10.8915V9.99945ZM14.1619 15.555C14.9289 15.555 15.5507 14.9332 15.5507 14.1661C15.5507 13.3991 14.9289 12.7772 14.1619 12.7772C13.3948 12.7772 12.773 13.3991 12.773 14.1661C12.773 14.9332 13.3948 15.555 14.1619 15.555Z" fill="#6C757D"/>
</svg>
