<svg width="41" height="42" viewBox="0 0 41 42" fill="none" xmlns="http://www.w3.org/2000/svg">
<ellipse cx="20.1516" cy="21" rx="20" ry="20.8859" fill="#F2F2F2"/>
<path fill-rule="evenodd" clip-rule="evenodd" d="M14.7324 15.1722C14.7324 12.0466 17.1587 9.51276 20.1518 9.51276C23.1448 9.51276 25.5711 12.0466 25.5711 15.1722C25.5711 18.2978 23.1448 20.8316 20.1518 20.8316C17.1587 20.8316 14.7324 18.2978 14.7324 15.1722Z" fill="#667185"/>
<path fill-rule="evenodd" clip-rule="evenodd" d="M12.1516 28.1857C12.1516 25.0176 14.611 22.4493 17.6447 22.4493H22.6586C25.6923 22.4493 28.1516 25.0176 28.1516 28.1857C28.1516 30.6735 26.2205 32.6902 23.8382 32.6902H16.465C14.0828 32.6902 12.1516 30.6735 12.1516 28.1857Z" fill="#667185"/>
</svg>
