<svg width="95" height="82" viewBox="0 0 95 82" fill="none" xmlns="http://www.w3.org/2000/svg">
<circle cx="1.54225" cy="1.54225" r="1.54225" fill="white" fill-opacity="0.2"/>
<circle cx="14.6262" cy="1.54225" r="1.54225" fill="white" fill-opacity="0.2"/>
<circle cx="27.7122" cy="1.54225" r="1.54225" fill="white" fill-opacity="0.2"/>
<circle cx="40.7962" cy="1.54225" r="1.54225" fill="white" fill-opacity="0.2"/>
<circle cx="1.54225" cy="14.6267" r="1.54225" fill="white" fill-opacity="0.2"/>
<circle cx="14.6262" cy="14.6267" r="1.54225" fill="white" fill-opacity="0.2"/>
<circle cx="27.7122" cy="14.6267" r="1.54225" fill="white" fill-opacity="0.2"/>
<circle cx="40.7962" cy="14.6267" r="1.54225" fill="white" fill-opacity="0.2"/>
<circle cx="1.54225" cy="27.7112" r="1.54225" fill="white" fill-opacity="0.2"/>
<circle cx="14.6262" cy="27.7112" r="1.54225" fill="white" fill-opacity="0.2"/>
<circle cx="27.7122" cy="27.7112" r="1.54225" fill="white" fill-opacity="0.2"/>
<circle cx="40.7962" cy="27.7112" r="1.54225" fill="white" fill-opacity="0.2"/>
<circle cx="1.54225" cy="40.7957" r="1.54225" fill="white" fill-opacity="0.2"/>
<circle cx="14.6262" cy="40.7957" r="1.54225" fill="white" fill-opacity="0.2"/>
<circle cx="27.7122" cy="40.7957" r="1.54225" fill="white" fill-opacity="0.2"/>
<circle cx="40.7962" cy="40.7957" r="1.54225" fill="white" fill-opacity="0.2"/>
<circle cx="53.8801" cy="40.7957" r="1.54225" fill="white" fill-opacity="0.2"/>
<circle cx="66.9641" cy="40.7957" r="1.54225" fill="white" fill-opacity="0.2"/>
<circle cx="80.0501" cy="40.7957" r="1.54225" fill="white" fill-opacity="0.2"/>
<circle cx="93.134" cy="40.7957" r="1.54225" fill="white" fill-opacity="0.2"/>
<circle cx="1.54225" cy="53.8801" r="1.54225" fill="white" fill-opacity="0.2"/>
<circle cx="14.6262" cy="53.8801" r="1.54225" fill="white" fill-opacity="0.2"/>
<circle cx="27.7122" cy="53.8801" r="1.54225" fill="white" fill-opacity="0.2"/>
<circle cx="40.7962" cy="53.8801" r="1.54225" fill="white" fill-opacity="0.2"/>
<circle cx="53.8801" cy="53.8801" r="1.54225" fill="white" fill-opacity="0.2"/>
<circle cx="66.9641" cy="53.8801" r="1.54225" fill="white" fill-opacity="0.2"/>
<circle cx="80.0501" cy="53.8801" r="1.54225" fill="white" fill-opacity="0.2"/>
<circle cx="93.134" cy="53.8801" r="1.54225" fill="white" fill-opacity="0.2"/>
<circle cx="1.54225" cy="66.9646" r="1.54225" fill="white" fill-opacity="0.2"/>
<circle cx="14.6262" cy="66.9646" r="1.54225" fill="white" fill-opacity="0.2"/>
<circle cx="27.7122" cy="66.9646" r="1.54225" fill="white" fill-opacity="0.2"/>
<circle cx="40.7962" cy="66.9646" r="1.54225" fill="white" fill-opacity="0.2"/>
<circle cx="53.8801" cy="66.9646" r="1.54225" fill="white" fill-opacity="0.2"/>
<circle cx="66.9641" cy="66.9646" r="1.54225" fill="white" fill-opacity="0.2"/>
<circle cx="80.0501" cy="66.9646" r="1.54225" fill="white" fill-opacity="0.2"/>
<circle cx="93.134" cy="66.9646" r="1.54225" fill="white" fill-opacity="0.2"/>
<circle cx="1.54225" cy="80.0491" r="1.54225" fill="white" fill-opacity="0.2"/>
<circle cx="14.6262" cy="80.0491" r="1.54225" fill="white" fill-opacity="0.2"/>
<circle cx="27.7122" cy="80.0491" r="1.54225" fill="white" fill-opacity="0.2"/>
<circle cx="40.7962" cy="80.0491" r="1.54225" fill="white" fill-opacity="0.2"/>
<circle cx="53.8801" cy="80.0491" r="1.54225" fill="white" fill-opacity="0.2"/>
<circle cx="66.9641" cy="80.0491" r="1.54225" fill="white" fill-opacity="0.2"/>
<circle cx="80.0501" cy="80.0491" r="1.54225" fill="white" fill-opacity="0.2"/>
<circle cx="93.134" cy="80.0491" r="1.54225" fill="white" fill-opacity="0.2"/>
</svg>
