<svg width="88" height="100" viewBox="0 0 88 100" fill="none" xmlns="http://www.w3.org/2000/svg">
<g clip-path="url(#clip0_36_1973)">
<path d="M67.6298 100C66.082 99.5642 64.4873 99.3345 62.9865 98.7002C60.3555 97.5909 58.0926 95.9936 56.2969 93.7907C55.754 93.1251 55.2006 92.9476 54.3993 92.9502C38.3839 92.9685 22.3658 92.9032 6.35036 93.0102C2.30735 93.0363 -0.0104052 90.2044 3.512e-05 86.6704C0.0705073 63.1013 0.0522367 39.5323 0.0209158 15.9633C0.0156956 12.3901 2.86329 10.0071 5.91709 10.0984C9.98359 10.2237 14.0553 10.1141 18.1244 10.1428C18.7926 10.148 19.0562 10.0045 18.9988 9.28931C18.9336 8.48019 18.9753 7.66323 18.991 6.84889C19.0145 5.64825 19.6096 5.05315 20.7919 5.04793C22.9087 5.0401 25.0255 5.02705 27.1396 5.05837C27.7217 5.0662 28.0532 4.93309 28.3533 4.37453C29.8672 1.57914 32.2424 0.0600702 35.4345 3.83151e-05C38.7493 -0.0599935 41.2471 1.42775 42.8445 4.32494C43.1708 4.91482 43.5101 5.06359 44.1208 5.05576C46.2037 5.02444 48.2865 5.03749 50.372 5.05054C51.664 5.05837 52.1912 5.60127 52.1964 6.89587C52.2016 7.71022 52.2408 8.52717 52.1781 9.3363C52.1259 10.0097 52.3817 10.1428 53.0029 10.1402C57.1034 10.1167 61.209 10.2107 65.3068 10.1063C68.7104 10.0175 71.2004 12.7947 71.1847 15.9763C71.1038 31.8613 71.156 47.7488 71.1169 63.6364C71.1169 64.6648 71.3596 65.025 72.4063 65.2103C79.4404 66.4683 84.1072 70.587 86.3467 77.3211C89.531 86.9027 83.2224 97.5805 73.3172 99.6085C72.7221 99.7312 72.0826 99.6686 71.5319 99.9974H67.6246L67.6298 100ZM3.16084 51.5282H3.15823C3.15823 63.3467 3.15823 75.1677 3.15823 86.9862C3.15823 88.9542 4.04827 89.8442 6.02149 89.8442C21.5515 89.8442 37.0841 89.8364 52.614 89.8677C53.645 89.8677 53.5824 89.5937 53.2822 88.808C51.523 84.2221 51.5909 79.6336 53.6815 75.1886C56.3986 69.4073 61.0368 66.0847 67.3244 65.0824C67.943 64.9832 68.0344 64.7614 68.0344 64.2237C68.0239 48.0751 68.0318 31.9239 68.0292 15.7754C68.0292 14.238 67.0869 13.2645 65.547 13.2592C61.3474 13.241 57.1477 13.2671 52.9455 13.241C52.3217 13.2384 52.1599 13.4576 52.1834 14.0318C52.2199 14.8775 52.2042 15.7258 52.1938 16.5714C52.1808 17.7381 51.6196 18.328 50.4711 18.328C40.5737 18.3359 30.6737 18.3332 20.7763 18.328C19.6592 18.328 19.0249 17.7016 18.9936 16.5897C18.9701 15.7754 18.9414 14.9584 19.0066 14.1493C19.0693 13.4002 18.7952 13.2305 18.0774 13.2358C14.1049 13.2723 10.1324 13.2514 6.15982 13.2566C3.99346 13.2566 3.16345 14.0971 3.16345 16.2713C3.16345 28.0245 3.16345 39.7803 3.16345 51.5335L3.16084 51.5282ZM69.6918 68.0788C61.7258 68.0396 55.2972 74.3664 55.1797 82.3559C55.0649 90.2462 61.5953 96.834 69.5665 96.8758C77.4463 96.9175 84.0081 90.4132 84.0394 82.5282C84.0707 74.6013 77.6316 68.1153 69.6918 68.0761V68.0788ZM35.5389 15.2142C39.7385 15.2142 43.9381 15.1907 48.1377 15.2351C48.9286 15.2429 49.1217 15.0106 49.0983 14.2537C49.0408 12.4971 49.0461 10.7379 49.0878 8.98132C49.1035 8.33663 48.9129 8.1461 48.2735 8.15654C46.2872 8.19308 44.3009 8.15132 42.3173 8.18003C41.3568 8.19308 40.8008 7.74676 40.5059 6.87238C39.702 4.48677 37.9297 3.11647 35.6407 3.09559C33.3751 3.07732 31.4776 4.48416 30.7285 6.82018C30.4231 7.77286 29.8463 8.18525 28.8675 8.17481C26.8812 8.15393 24.895 8.1983 22.9113 8.15393C22.2562 8.13827 22.0839 8.35229 22.0944 8.9761C22.1283 10.7327 22.1492 12.4919 22.0865 14.2485C22.0604 15.0158 22.2484 15.2403 23.0392 15.2325C27.2049 15.1907 31.3732 15.2142 35.5389 15.2142Z" fill="#358619"/>
<path d="M12.7294 33.182C12.7294 31.6838 12.7164 30.1882 12.7346 28.6901C12.7451 27.7087 13.2932 27.0509 14.2667 27.0405C17.3258 27.0039 20.3848 27.0039 23.4438 27.0588C24.493 27.077 25.0203 27.7113 25.0255 28.7788C25.0438 31.7073 25.0438 34.6384 25.0281 37.5669C25.0229 38.6632 24.4643 39.3105 23.3655 39.3261C20.3717 39.3731 17.3753 39.3731 14.3816 39.3261C13.2462 39.3079 12.732 38.6606 12.7242 37.4782C12.7164 36.0453 12.7242 34.6123 12.7242 33.182H12.7294ZM21.9117 33.2368C21.9117 32.459 21.8803 31.6786 21.9221 30.9034C21.9534 30.3422 21.7263 30.1543 21.1965 30.1621C19.6409 30.183 18.0827 30.2039 16.5271 30.1778C15.9502 30.1674 15.8276 30.4127 15.8354 30.9243C15.8615 32.4486 15.8693 33.9729 15.8406 35.4971C15.8302 36.0479 16.0155 36.2384 16.5558 36.2332C18.1114 36.2149 19.6696 36.2123 21.2252 36.2462C21.8177 36.2593 21.9352 35.98 21.9169 35.4763C21.8934 34.7324 21.9117 33.9833 21.9091 33.2394L21.9117 33.2368Z" fill="#358619"/>
<path d="M12.7267 54.086C12.7267 52.6531 12.7189 51.2228 12.7267 49.7898C12.7372 48.5344 13.2487 47.9654 14.4703 47.9576C17.3988 47.9341 20.3273 47.9341 23.2558 47.9576C24.4669 47.968 25.0254 48.5657 25.0306 49.7872C25.0437 52.6505 25.0437 55.5137 25.0306 58.377C25.0254 59.5646 24.4512 60.2223 23.2558 60.2406C20.3273 60.285 17.3988 60.2824 14.4703 60.2458C13.2853 60.2328 12.732 59.5855 12.7241 58.377C12.7137 56.9441 12.7241 55.5137 12.7241 54.0808L12.7267 54.086ZM15.8484 53.8224C15.8484 54.8012 15.8797 55.5816 15.8379 56.3594C15.8066 56.9336 15.9606 57.1711 16.5844 57.1555C18.1087 57.1163 19.6356 57.1294 21.1625 57.1555C21.6793 57.1633 21.9351 57.0537 21.9247 56.4664C21.8933 54.8769 21.9012 53.2847 21.9194 51.6926C21.9247 51.241 21.802 51.0583 21.3139 51.0818C20.4708 51.121 19.6252 51.0818 18.7821 51.087C17.8477 51.0949 16.6027 50.7634 16.0572 51.2332C15.4177 51.7839 15.9502 53.0655 15.851 53.8224H15.8484Z" fill="#358619"/>
<path d="M18.8448 68.8748C20.3091 68.8748 21.7707 68.854 23.235 68.8801C24.4539 68.9036 25.0255 69.4752 25.0333 70.6862C25.049 73.5808 25.0438 76.4754 25.0307 79.3674C25.0255 80.4479 24.4669 81.1135 23.3759 81.1292C20.3535 81.1709 17.3284 81.1631 14.3059 81.1083C13.2566 81.09 12.7372 80.4506 12.732 79.3935C12.7216 76.4676 12.7216 73.5391 12.7346 70.6132C12.7398 69.4334 13.2775 68.8853 14.4547 68.8644C15.9163 68.8409 17.3806 68.8592 18.8448 68.8592C18.8448 68.8644 18.8448 68.867 18.8448 68.8722V68.8748ZM21.9143 75.2748C21.9143 74.309 21.8777 73.5286 21.9273 72.7534C21.9665 72.1348 21.6898 71.96 21.1391 71.9678C19.6148 71.9861 18.0905 71.9965 16.5662 71.9861C16.0442 71.9808 15.825 72.1453 15.8354 72.7064C15.8667 74.2621 15.8667 75.8203 15.838 77.3785C15.8276 77.9031 16.0442 78.0649 16.5219 78.0571C17.3336 78.0467 18.1453 78.078 18.9544 78.0467C19.8889 78.0101 21.0817 78.4486 21.6872 77.8848C22.3476 77.2689 21.7994 76.0421 21.9169 75.2774L21.9143 75.2748Z" fill="#358619"/>
<path d="M45.2666 57.1476C49.0382 57.1476 52.8097 57.145 56.5787 57.1476C57.7428 57.1476 58.3222 57.5548 58.458 58.4188C58.5911 59.2775 58.1474 59.9613 57.2965 60.1571C56.9833 60.2301 56.6544 60.2615 56.3307 60.2615C48.9834 60.2667 41.636 60.2615 34.2912 60.2693C33.4795 60.2693 32.7487 60.191 32.2971 59.3636C31.8169 58.4892 32.211 57.4426 33.1819 57.2181C33.4925 57.145 33.8266 57.1529 34.1503 57.1503C37.8566 57.145 41.5629 57.1476 45.2692 57.1476H45.2666Z" fill="#358619"/>
<path d="M45.3057 47.9602C49.046 47.9602 52.7888 47.9602 56.5291 47.9602C57.1555 47.9602 57.7689 47.9759 58.1969 48.5553C58.8181 49.3958 58.4501 50.6356 57.4452 50.9383C57.0485 51.0584 56.6126 51.0819 56.1924 51.0819C49.166 51.0897 42.1397 51.0871 35.1134 51.0819C34.6592 51.0819 34.2024 51.0741 33.7483 51.0375C32.6181 50.9462 32.0387 50.372 32.0831 49.4167C32.1222 48.5214 32.7277 47.9759 33.7927 47.955C35.1917 47.9289 36.5907 47.9498 37.9897 47.9498C40.4301 47.9498 42.8679 47.9498 45.3083 47.9498V47.955L45.3057 47.9602Z" fill="#358619"/>
<path d="M45.2249 39.3601C41.9074 39.3601 38.59 39.3653 35.2726 39.3548C34.6566 39.3548 34.0354 39.334 33.4221 39.2635C32.5477 39.1617 32.0962 38.6266 32.0831 37.7549C32.0701 36.9092 32.6391 36.335 33.5395 36.2488C33.7979 36.2254 34.0589 36.2332 34.3199 36.2332C41.7039 36.2332 49.0878 36.2332 56.4717 36.2384C57.8054 36.2384 58.3823 36.6247 58.4658 37.5878C58.5389 38.4465 58.1682 39.0469 57.3148 39.2504C56.9102 39.347 56.4769 39.3574 56.0567 39.3574C52.447 39.3653 48.8346 39.3627 45.2249 39.3574V39.3601Z" fill="#358619"/>
<path d="M45.2561 27.0222C48.9651 27.0222 52.674 27.0222 56.3829 27.0274C56.7039 27.0274 57.0354 27.0509 57.3486 27.1214C58.1317 27.2937 58.484 27.8496 58.4918 28.6065C58.4971 29.3347 58.1238 29.8489 57.4165 30.0499C57.0772 30.1465 56.7118 30.1726 56.3568 30.1726C48.9729 30.17 41.5864 30.1569 34.2024 30.1439C33.9101 30.1439 33.6126 30.1413 33.3307 30.0838C32.5189 29.9168 32.1039 29.3817 32.0935 28.5726C32.0857 27.7922 32.4954 27.2832 33.2628 27.1214C33.6073 27.0483 33.9728 27.0405 34.3277 27.0405C37.9714 27.0353 41.6151 27.0379 45.2587 27.0379V27.0248L45.2561 27.0222Z" fill="#358619"/>
<path d="M40.4014 68.8566C42.5808 68.8566 44.7576 68.8461 46.937 68.8618C48.0489 68.8696 48.6388 69.3446 48.7119 70.2556C48.7771 71.0725 48.4195 71.6441 47.6183 71.866C47.2789 71.9599 46.9135 71.9913 46.5586 71.9913C42.4294 71.9913 38.3003 71.986 34.1685 71.9782C33.7144 71.9782 33.2393 71.9939 32.8452 71.7355C32.2136 71.3231 31.916 70.7123 32.13 69.9711C32.3415 69.2298 32.9 68.8722 33.67 68.8696C35.9147 68.867 38.1567 68.8696 40.4014 68.8696C40.4014 68.8644 40.4014 68.8618 40.4014 68.8566Z" fill="#358619"/>
<path d="M40.3335 81.1579C38.3186 81.1579 36.3036 81.1631 34.286 81.1527C33.931 81.1527 33.5656 81.1344 33.2237 81.0509C32.4146 80.8499 32.0283 80.2783 32.0909 79.4692C32.1483 78.7149 32.566 78.1876 33.3542 78.0989C33.8997 78.0362 34.4556 78.0545 35.009 78.0519C38.8119 78.0467 42.6174 78.0441 46.4203 78.0467C46.7439 78.0467 47.0702 78.0493 47.3938 78.0832C48.2421 78.172 48.6675 78.6888 48.7041 79.5057C48.7432 80.3227 48.3543 80.8577 47.54 81.0692C46.9632 81.2205 46.3759 81.1605 45.7938 81.1631C43.9746 81.1709 42.1528 81.1631 40.3309 81.1631C40.3309 81.1605 40.3309 81.1553 40.3309 81.1527L40.3335 81.1579Z" fill="#358619"/>
<path d="M67.246 89.4292C66.7501 89.3927 66.3403 89.1578 65.9828 88.8002C64.1244 86.934 62.253 85.0808 60.4076 83.2042C59.6298 82.4133 59.6011 81.4215 60.2719 80.7846C60.9062 80.1817 61.851 80.2652 62.6105 81.0143C63.9051 82.2959 65.2232 83.5539 66.463 84.8903C67.0268 85.4984 67.3452 85.5767 67.9664 84.9321C70.6731 82.121 73.4398 79.3674 76.1856 76.5929C76.3239 76.4545 76.4544 76.3084 76.598 76.1778C77.4306 75.4053 78.3807 75.34 79.0071 76.0108C79.6413 76.6894 79.5578 77.616 78.7565 78.4277C75.3738 81.8548 71.9833 85.2714 68.6007 88.6984C68.2248 89.0795 67.8098 89.3692 67.246 89.4318V89.4292Z" fill="#358619"/>
</g>
<defs>
<clipPath id="clip0_36_1973">
<rect width="87.1819" height="100" fill="white"/>
</clipPath>
</defs>
</svg>
