<svg width="18" height="19" viewBox="0 0 18 19" fill="none" xmlns="http://www.w3.org/2000/svg">
<path d="M12.9224 10.4225L9.58909 13.7559C9.26366 14.0813 8.73602 14.0813 8.41058 13.7559L5.07725 10.4225C4.75181 10.0971 4.75181 9.56947 5.07725 9.24404C5.40268 8.9186 5.93032 8.9186 6.25576 9.24404L8.1665 11.1548V1.49996C8.1665 1.03972 8.5396 0.666626 8.99984 0.666626C9.46007 0.666626 9.83317 1.03972 9.83317 1.49996V11.1548L11.7439 9.24404C12.0694 8.9186 12.597 8.9186 12.9224 9.24404C13.2479 9.56947 13.2479 10.0971 12.9224 10.4225Z" fill="white"/>
<path d="M2.33317 13.5833C2.33317 13.1231 1.96007 12.75 1.49984 12.75C1.0396 12.75 0.666504 13.1231 0.666504 13.5833V14.8333C0.666504 16.6742 2.15889 18.1666 3.99984 18.1666H13.9998C15.8408 18.1666 17.3332 16.6742 17.3332 14.8333V13.5833C17.3332 13.1231 16.9601 12.75 16.4998 12.75C16.0396 12.75 15.6665 13.1231 15.6665 13.5833V14.8333C15.6665 15.7538 14.9203 16.5 13.9998 16.5H3.99984C3.07936 16.5 2.33317 15.7538 2.33317 14.8333V13.5833Z" fill="white"/>
</svg>
