<svg width="60" height="60" viewBox="0 0 60 60" fill="none" xmlns="http://www.w3.org/2000/svg">
<rect width="60" height="60" rx="30" fill="white" fill-opacity="0.1"/>
<path d="M41.8399 28.1163L39.4474 23.3295C39.3592 23.1533 39.2372 22.9962 39.0884 22.8671C38.9395 22.7381 38.7667 22.6396 38.5798 22.5774C38.3929 22.5151 38.1955 22.4903 37.999 22.5044C37.8025 22.5184 37.6107 22.571 37.4345 22.6591L35.103 23.8245L30.1914 22.5251C30.0654 22.4923 29.9331 22.4923 29.807 22.5251L24.8955 23.8245L22.5639 22.6591C22.3877 22.571 22.1959 22.5184 21.9994 22.5044C21.8029 22.4903 21.6056 22.5151 21.4187 22.5774C21.2318 22.6396 21.0589 22.7381 20.9101 22.8671C20.7612 22.9962 20.6392 23.1533 20.5511 23.3295L18.1586 28.1154C18.0704 28.2916 18.0178 28.4834 18.0038 28.6799C17.9898 28.8764 18.0146 29.0737 18.0768 29.2606C18.1391 29.4476 18.2375 29.6204 18.3666 29.7692C18.4956 29.9181 18.6527 30.0401 18.8289 30.1282L21.3602 31.3948L26.5624 35.1101C26.639 35.1646 26.7252 35.2044 26.8164 35.2273L32.8164 36.7273C32.9421 36.7588 33.0737 36.7572 33.1986 36.7227C33.3235 36.6882 33.4373 36.622 33.5289 36.5304L38.6917 31.3666L41.1686 30.1282C41.5242 29.9502 41.7945 29.6383 41.9202 29.261C42.0459 28.8838 42.0167 28.472 41.8389 28.1163H41.8399ZM36.6939 31.2448L33.468 28.661C33.3235 28.5453 33.1412 28.4871 32.9564 28.4977C32.7715 28.5082 32.5971 28.5868 32.4667 28.7182C30.797 30.4001 28.9361 30.1873 27.7492 29.4373L31.803 25.4998H34.7852L37.3361 30.6007L36.6939 31.2448ZM21.8927 23.9998L23.8117 24.9579L21.4145 29.7438L19.4992 28.7866L21.8927 23.9998ZM32.7677 35.1682L27.3199 33.807L22.7074 30.5126L25.3324 25.2626L29.9992 24.026L30.918 24.2688L26.6992 28.3638L26.6917 28.3723C26.5329 28.5311 26.4118 28.7235 26.3373 28.9354C26.2628 29.1473 26.2368 29.3732 26.2613 29.5964C26.2858 29.8197 26.3601 30.0346 26.4787 30.2253C26.5973 30.416 26.7573 30.5776 26.9467 30.6982C28.8742 31.9291 31.2002 31.7295 33.032 30.2295L35.6242 32.3116L32.7677 35.1682ZM38.5802 29.7429L36.1877 24.9616L38.1058 23.9998L40.4992 28.7866L38.5802 29.7429ZM30.3536 38.4307C30.3131 38.5928 30.2196 38.7367 30.088 38.8397C29.9563 38.9426 29.7941 38.9986 29.627 38.9988C29.5654 38.9988 29.504 38.9912 29.4442 38.9763L25.5377 37.9995C25.4463 37.9769 25.3601 37.9371 25.2836 37.8823L22.8133 36.1179C22.6614 35.9986 22.5614 35.8254 22.534 35.6342C22.5067 35.443 22.5541 35.2487 22.6665 35.0916C22.7788 34.9346 22.9474 34.8269 23.1372 34.791C23.327 34.7552 23.5232 34.7939 23.6852 34.8991L26.0392 36.581L29.8117 37.5223C30.0047 37.5705 30.1705 37.6934 30.2728 37.864C30.3752 38.0345 30.4056 38.2387 30.3574 38.4316L30.3536 38.4307Z" fill="#EAE68B"/>
</svg>
