<svg width="20" height="20" viewBox="0 0 20 20" fill="none" xmlns="http://www.w3.org/2000/svg">
<path d="M14.614 1.29776C14.7283 1.345 14.826 1.42509 14.8947 1.52789C14.9635 1.63069 15.0002 1.75158 15.0002 1.87526V5.00026H18.1252C18.249 5.00003 18.3701 5.03657 18.473 5.10523C18.576 5.17389 18.6563 5.27158 18.7037 5.38593C18.7511 5.50027 18.7635 5.62611 18.7393 5.74749C18.7151 5.86888 18.6554 5.98034 18.5677 6.06776L16.0677 8.56776C16.0096 8.62576 15.9406 8.67173 15.8646 8.70305C15.7887 8.73436 15.7074 8.7504 15.6252 8.75026H12.134L11.209 9.67651C11.2587 9.86183 11.265 10.0561 11.2276 10.2443C11.1901 10.4325 11.1098 10.6095 10.993 10.7617C10.8761 10.9138 10.7257 11.0371 10.5536 11.1218C10.3814 11.2065 10.1921 11.2505 10.0002 11.2503C9.6687 11.2503 9.35076 11.1186 9.11634 10.8841C8.88192 10.6497 8.75022 10.3318 8.75022 10.0003L8.75147 9.94276C8.76004 9.75603 8.81038 9.57361 8.89878 9.40892C8.98718 9.24422 9.1114 9.10145 9.26227 8.99111C9.41315 8.88077 9.58685 8.80567 9.77059 8.77135C9.95433 8.73702 10.1434 8.74433 10.324 8.79276L11.2502 7.86651V4.37526C11.2501 4.29312 11.2661 4.21177 11.2974 4.13584C11.3287 4.05992 11.3747 3.9909 11.4327 3.93276L13.9327 1.43276C14.0202 1.3454 14.1316 1.28595 14.2529 1.26192C14.3741 1.23789 14.4998 1.25036 14.614 1.29776ZM15.3665 7.50026L16.6165 6.25026H14.3752C14.2095 6.25026 14.0505 6.18441 13.9333 6.0672C13.8161 5.94999 13.7502 5.79102 13.7502 5.62526V3.38401L12.5002 4.63401V7.50026H15.3665ZM17.4315 8.97026C17.4781 9.30776 17.5015 9.65151 17.5015 10.0015C17.5011 11.5287 17.0345 13.0194 16.164 14.2742C15.2936 15.5291 14.0608 16.4883 12.6305 17.0237C11.2002 17.559 9.64057 17.6449 8.16011 17.27C6.67966 16.895 5.34895 16.0771 4.3459 14.9254C3.34286 13.7738 2.71529 12.3434 2.54709 10.8255C2.3789 9.30762 2.6781 7.77454 3.4047 6.43127C4.13129 5.08799 5.25065 3.99854 6.6131 3.30858C7.97556 2.61862 9.51617 2.36103 11.029 2.57026L10.5502 3.04901C10.3521 3.24716 10.2009 3.48721 10.1077 3.75151L10.0002 3.75026C8.75955 3.75044 7.547 4.11987 6.51699 4.8115C5.48699 5.50313 4.68613 6.48566 4.2164 7.63398C3.74668 8.78229 3.62935 10.0444 3.87935 11.2597C4.12935 12.4749 4.73537 13.5882 5.62023 14.4578C6.50509 15.3275 7.62876 15.9141 8.84814 16.143C10.0675 16.3719 11.3274 16.2326 12.4674 15.7431C13.6074 15.2535 14.5759 14.4357 15.2496 13.3939C15.9232 12.352 16.2716 11.1332 16.2502 9.89276C16.5135 9.79964 16.7527 9.64888 16.9502 9.45151L17.4315 8.97026ZM10.0002 5.62526C9.13493 5.62526 8.28907 5.88184 7.5696 6.36258C6.85014 6.84331 6.28938 7.52659 5.95825 8.32602C5.62712 9.12544 5.54048 10.0051 5.70929 10.8538C5.8781 11.7024 6.29477 12.482 6.90663 13.0938C7.51848 13.7057 8.29803 14.1224 9.1467 14.2912C9.99537 14.46 10.875 14.3734 11.6745 14.0422C12.4739 13.7111 13.1572 13.1503 13.6379 12.4309C14.1186 11.7114 14.3752 10.8655 14.3752 10.0003H13.1252C13.1252 10.6183 12.9419 11.2225 12.5986 11.7364C12.2552 12.2503 11.7671 12.6509 11.1961 12.8874C10.6251 13.1239 9.99675 13.1858 9.39056 13.0652C8.78437 12.9446 8.22755 12.647 7.79051 12.21C7.35347 11.7729 7.05585 11.2161 6.93527 10.6099C6.81469 10.0037 6.87657 9.37539 7.1131 8.80437C7.34962 8.23335 7.75016 7.74529 8.26406 7.40191C8.77797 7.05853 9.38215 6.87526 10.0002 6.87526V5.62526Z" fill="#6C757D"/>
</svg>
