<svg width="20" height="21" viewBox="0 0 20 21" fill="none" xmlns="http://www.w3.org/2000/svg">
<path d="M20 10.4981C20.0004 12.476 19.4142 14.4096 18.3156 16.0543C17.2171 17.6991 15.6554 18.9811 13.8282 19.7383C12.001 20.4954 9.99023 20.6938 8.05029 20.3081C6.11035 19.9225 4.32834 18.9702 2.92962 17.5718C1.5309 16.1733 0.578304 14.3915 0.192293 12.4517C-0.193716 10.5118 0.0042038 8.50102 0.761024 6.67365C1.51784 4.84628 2.79957 3.28438 4.4441 2.18548C6.08863 1.08658 8.02211 0.500038 10 0.500038C12.651 0.502605 15.1928 1.55673 17.0675 3.43112C18.9423 5.30551 19.9969 7.84706 20 10.4981ZM18.0008 10.4981C18.0008 8.91569 17.5315 7.36883 16.6524 6.05311C15.7733 4.73738 14.5237 3.7119 13.0618 3.10634C11.5998 2.50079 9.99113 2.34234 8.43913 2.65106C6.88713 2.95977 5.46153 3.72177 4.3426 4.84069C3.22367 5.95962 2.46167 7.38523 2.15296 8.93722C1.84425 10.4892 2.00269 12.0979 2.60825 13.5599C3.21381 15.0218 4.23929 16.2714 5.55501 17.1505C6.87073 18.0296 8.4176 18.4989 10 18.4989C12.1213 18.4968 14.1551 17.6532 15.6551 16.1532C17.1551 14.6532 17.9987 12.6194 18.0008 10.4981ZM11.0006 7.0077V10.9964C11.0065 11.1314 10.9851 11.2662 10.9375 11.3927C10.89 11.5191 10.8173 11.6346 10.7239 11.7323C10.6305 11.8299 10.5183 11.9076 10.394 11.9606C10.2698 12.0137 10.1361 12.0411 10.001 12.0411C9.86587 12.0411 9.73216 12.0137 9.60791 11.9606C9.48367 11.9076 9.37146 11.8299 9.27805 11.7323C9.18464 11.6346 9.11197 11.5191 9.06442 11.3927C9.01686 11.2662 8.99541 11.1314 9.00136 10.9964V6.998C9.0127 6.7405 9.12298 6.49732 9.3092 6.31912C9.49542 6.14092 9.74323 6.04146 10.001 6.04146C10.2587 6.04146 10.5065 6.14092 10.6927 6.31912C10.879 6.49732 10.9892 6.7405 11.0006 6.998V7.0077ZM11.0006 14.5062C11.0006 14.7041 10.9419 14.8976 10.832 15.0621C10.722 15.2267 10.5657 15.3549 10.3829 15.4307C10.2001 15.5064 9.99889 15.5262 9.8048 15.4876C9.6107 15.449 9.43242 15.3537 9.29248 15.2138C9.15255 15.0738 9.05725 14.8955 9.01865 14.7014C8.98004 14.5073 8.99985 14.3062 9.07559 14.1233C9.15132 13.9405 9.27956 13.7842 9.44411 13.6743C9.60865 13.5643 9.80211 13.5057 10 13.5057C10.2642 13.5051 10.5178 13.6093 10.7054 13.7954C10.8929 13.9815 10.999 14.2343 11.0006 14.4985V14.5062Z" fill="#358619"/>
</svg>
