<svg width="32" height="32" viewBox="0 0 32 32" fill="none" xmlns="http://www.w3.org/2000/svg">
<rect x="0.5" y="0.5" width="31" height="31" rx="7.5" fill="white"/>
<rect x="0.5" y="0.5" width="31" height="31" rx="7.5" stroke="#E4E7EC"/>
<path d="M17 10.667C17 11.2193 16.5523 11.667 16 11.667C15.4477 11.667 15 11.2193 15 10.667C15 10.1147 15.4477 9.66699 16 9.66699C16.5523 9.66699 17 10.1147 17 10.667Z" fill="black"/>
<path d="M17 16.0003C17 16.5526 16.5523 17.0003 16 17.0003C15.4477 17.0003 15 16.5526 15 16.0003C15 15.448 15.4477 15.0003 16 15.0003C16.5523 15.0003 17 15.448 17 16.0003Z" fill="black"/>
<path d="M16 22.3337C16.5523 22.3337 17 21.8859 17 21.3337C17 20.7814 16.5523 20.3337 16 20.3337C15.4477 20.3337 15 20.7814 15 21.3337C15 21.8859 15.4477 22.3337 16 22.3337Z" fill="black"/>
</svg>
