<svg width="24" height="24" viewBox="0 0 24 24" fill="none" xmlns="http://www.w3.org/2000/svg">
<circle cx="12" cy="12" r="11" fill="#ED8F38"/>
<path d="M13.1346 7.54545L12.9545 14.1655H11.2649L11.0803 7.54545H13.1346ZM12.1097 17.12C11.805 17.12 11.5434 17.0123 11.3249 16.7969C11.1064 16.5784 10.9987 16.3168 11.0018 16.0121C10.9987 15.7105 11.1064 15.4519 11.3249 15.2365C11.5434 15.0211 11.805 14.9134 12.1097 14.9134C12.4021 14.9134 12.6591 15.0211 12.8807 15.2365C13.1023 15.4519 13.2146 15.7105 13.2177 16.0121C13.2146 16.2152 13.1607 16.4014 13.0561 16.5707C12.9545 16.7369 12.8207 16.8707 12.6545 16.9723C12.4883 17.0708 12.3067 17.12 12.1097 17.12Z" fill="white"/>
</svg>