<svg width="28" height="28" viewBox="0 0 28 28" fill="none" xmlns="http://www.w3.org/2000/svg">
<path d="M15.1669 3.49998C15.1669 2.85565 14.6446 2.33331 14.0002 2.33331C13.3559 2.33331 12.8336 2.85565 12.8336 3.49998V5.24998C12.8336 5.28234 12.8349 5.31438 12.8375 5.34607C9.52488 5.89968 7.00023 8.77884 7.00023 12.2487V16.9166C7.00023 17.5002 6.52177 18.5122 5.99817 19.4449C5.26139 20.7574 5.39633 22.3398 6.80295 22.8754C8.21768 23.414 10.4807 23.9166 14.0002 23.9166C17.5198 23.9166 19.7828 23.414 21.1975 22.8754C22.6041 22.3398 22.7391 20.7574 22.0023 19.4449C21.4787 18.5122 21.0002 17.5002 21.0002 16.9166V12.2493C21.0002 8.7794 18.4756 5.89979 15.163 5.34609C15.1656 5.31439 15.1669 5.28234 15.1669 5.24998V3.49998Z" fill="#010816"/>
<path d="M10.407 24.8787C10.4506 24.9167 10.5032 24.961 10.5644 25.01C10.7397 25.1503 10.9903 25.3321 11.3068 25.513C11.9352 25.872 12.8642 26.25 14.0003 26.25C15.1363 26.25 16.0653 25.872 16.6937 25.513C17.0103 25.3321 17.2608 25.1503 17.4361 25.01C17.4973 24.961 17.5499 24.9167 17.5935 24.8787C16.5734 25.0057 15.3839 25.0834 14.0003 25.0834C12.6166 25.0834 11.4271 25.0057 10.407 24.8787Z" fill="#010816"/>
</svg>
