<svg width="20" height="20" viewBox="0 0 20 20" fill="none" xmlns="http://www.w3.org/2000/svg">
<path d="M16.3867 11.7148H16.0938V4.78125H16.5156C16.7422 4.78125 16.9219 4.59766 16.9219 4.375C16.9219 4.15234 16.7383 3.96875 16.5156 3.96875H16.0742C15.8672 1.74609 13.9961 0 11.7227 0H8.27344C6 0 4.13281 1.74609 3.92578 3.96484H3.48438C3.25781 3.96484 3.07813 4.14844 3.07813 4.37109C3.07813 4.59375 3.26172 4.77734 3.48438 4.77734H3.90625V11.7109H3.60938C2.81641 11.7109 2.17188 12.3242 2.17188 13.082C2.17188 13.8359 2.81641 14.4531 3.60938 14.4531H3.95312V19.5898C3.95312 19.8164 4.13672 19.9961 4.35938 19.9961C4.58203 19.9961 4.76562 19.8125 4.76562 19.5898V14.4531H5.74219V19.5898C5.74219 19.8164 5.92578 19.9961 6.14844 19.9961C6.37109 19.9961 6.55469 19.8125 6.55469 19.5898V18.3594L9.99609 16.543L13.4375 18.3594V19.5898C13.4375 19.8164 13.6211 19.9961 13.8438 19.9961C14.0664 19.9961 14.25 19.8125 14.25 19.5898V14.4531H15.2188V19.5898C15.2188 19.8164 15.4023 19.9961 15.625 19.9961C15.8477 19.9961 16.0312 19.8125 16.0312 19.5898V14.4531H16.375C17.168 14.4531 17.8125 13.8398 17.8125 13.082C17.8281 12.3281 17.1797 11.7148 16.3867 11.7148ZM8.27734 0.816406H11.7266C13.5469 0.816406 15.0547 2.19531 15.2578 3.96484H4.75C4.94922 2.19531 6.45312 0.816406 8.27734 0.816406ZM15.2773 4.78125V11.7109H4.72266V4.78125H15.2773ZM6.55859 17.4375V14.7227L9.125 16.0781L6.55859 17.4375ZM13.4414 17.4375L10.875 16.082L13.4414 14.7266V17.4375ZM10 15.6172L7.79688 14.4531H12.2031L10 15.6172ZM16.3867 13.6367H3.61328C3.26953 13.6367 2.99219 13.3867 2.99219 13.082C2.99219 12.7773 3.26953 12.5273 3.61328 12.5273H16.3906C16.7344 12.5273 17.0117 12.7773 17.0117 13.082C17.0117 13.3906 16.7305 13.6367 16.3867 13.6367Z" fill="#6C757D"/>
<path d="M10 10.6172C11 10.6172 11.8125 9.80469 11.8125 8.80469C11.8125 7.92969 10.5703 6.33594 10.3203 6.02344C10.2422 5.92578 10.125 5.87109 10 5.87109C9.875 5.87109 9.75781 5.92578 9.67969 6.02344C9.42969 6.33594 8.1875 7.92969 8.1875 8.80469C8.1875 9.80469 9 10.6172 10 10.6172ZM10 6.95312C10.4844 7.61719 10.9961 8.44922 10.9961 8.80469C10.9961 9.35156 10.5508 9.80078 10 9.80078C9.45312 9.80078 9.00391 9.35547 9.00391 8.80469C9.00391 8.45312 9.51562 7.62109 10 6.95312Z" fill="#6C757D"/>
</svg>
