<svg width="20" height="20" viewBox="0 0 20 20" fill="none" xmlns="http://www.w3.org/2000/svg">
<path d="M6.46298 11.6329C6.37833 11.6327 6.29613 11.6045 6.22927 11.5526C6.16241 11.5006 6.11469 11.428 6.0936 11.346C6.0725 11.264 6.07923 11.1774 6.11272 11.0996C6.14621 11.0219 6.20457 10.9575 6.27864 10.9165L10.6527 8.50886C10.6967 8.48204 10.7457 8.46442 10.7968 8.45705C10.8478 8.44968 10.8998 8.45271 10.9496 8.46598C10.9995 8.47924 11.0461 8.50245 11.0867 8.53421C11.1273 8.56597 11.1611 8.60562 11.186 8.65078C11.2109 8.69594 11.2263 8.74567 11.2315 8.79698C11.2367 8.84828 11.2314 8.9001 11.216 8.94931C11.2006 8.99852 11.1754 9.0441 11.1419 9.08331C11.1084 9.12252 11.0673 9.15454 11.0211 9.17745L6.64684 11.5856C6.59056 11.6167 6.52729 11.633 6.46298 11.6329Z" fill="#6C757D"/>
<path d="M11.5175 11.6341C11.4532 11.634 11.3899 11.6176 11.3336 11.5863L6.95937 9.1794C6.91318 9.15649 6.8721 9.12447 6.83861 9.08526C6.80512 9.04605 6.77992 9.00047 6.76452 8.95126C6.74911 8.90205 6.74383 8.85024 6.74898 8.79893C6.75414 8.74763 6.76963 8.6979 6.79451 8.65274C6.8194 8.60758 6.85317 8.56792 6.89379 8.53616C6.93441 8.5044 6.98104 8.48119 7.03087 8.46793C7.0807 8.45467 7.13269 8.45163 7.18373 8.459C7.23476 8.46637 7.28377 8.48399 7.32782 8.51081L11.7021 10.9173C11.7762 10.9583 11.8345 11.0227 11.868 11.1005C11.9015 11.1782 11.9082 11.2649 11.8871 11.3469C11.866 11.4289 11.8182 11.5015 11.7513 11.5534C11.6844 11.6053 11.6022 11.6335 11.5175 11.6336V11.6341Z" fill="#6C757D"/>
<path d="M5.29964 15.7472C5.21497 15.7471 5.13273 15.7189 5.06584 15.667C4.99894 15.6151 4.95118 15.5424 4.93005 15.4604C4.90893 15.3784 4.91563 15.2918 4.94912 15.214C4.98261 15.1362 5.04098 15.0718 5.11506 15.0308L11.504 11.5147C11.548 11.4879 11.597 11.4703 11.648 11.4629C11.6991 11.4555 11.7511 11.4586 11.8009 11.4718C11.8507 11.4851 11.8974 11.5083 11.938 11.5401C11.9786 11.5718 12.0124 11.6115 12.0373 11.6566C12.0621 11.7018 12.0776 11.7515 12.0828 11.8028C12.0879 11.8541 12.0827 11.906 12.0673 11.9552C12.0518 12.0044 12.0266 12.05 11.9932 12.0892C11.9597 12.1284 11.9186 12.1604 11.8724 12.1833L5.4835 15.6999C5.42717 15.7309 5.36393 15.7471 5.29964 15.7472Z" fill="#6C757D"/>
<path d="M12.6811 15.7484C12.6168 15.7482 12.5535 15.7318 12.4972 15.7006L6.10976 12.1853C6.06357 12.1624 6.02249 12.1303 5.989 12.0911C5.95551 12.0519 5.93031 12.0063 5.91491 11.9571C5.8995 11.9079 5.89422 11.8561 5.89938 11.8048C5.90453 11.7535 5.92002 11.7038 5.9449 11.6586C5.96979 11.6134 6.00356 11.5738 6.04418 11.542C6.0848 11.5103 6.13143 11.487 6.18126 11.4738C6.23109 11.4605 6.28308 11.4575 6.33412 11.4649C6.38515 11.4722 6.43417 11.4899 6.47821 11.5167L12.8654 15.0316C12.9395 15.0726 12.9979 15.137 13.0314 15.2148C13.0649 15.2925 13.0716 15.3792 13.0504 15.4612C13.0293 15.5432 12.9815 15.6158 12.9147 15.6677C12.8478 15.7196 12.7655 15.7478 12.6808 15.7479L12.6811 15.7484Z" fill="#6C757D"/>
<path d="M4.86729 17.2778C4.8082 17.2779 4.7499 17.2642 4.69697 17.2379C4.64405 17.2116 4.59794 17.1734 4.56228 17.1263C4.52662 17.0792 4.50237 17.0245 4.49145 16.9664C4.48052 16.9083 4.48322 16.8485 4.49932 16.7916L4.93176 15.2634L7.02088 7.87571L7.44209 6.38737C7.45533 6.33863 7.4781 6.293 7.50909 6.25311C7.54008 6.21323 7.57867 6.17989 7.62263 6.15501C7.66659 6.13014 7.71504 6.11423 7.76519 6.1082C7.81533 6.10217 7.86618 6.10615 7.91478 6.1199C7.96338 6.13364 8.00877 6.15689 8.04833 6.1883C8.08789 6.2197 8.12083 6.25864 8.14524 6.30285C8.16965 6.34707 8.18506 6.39568 8.19056 6.44589C8.19607 6.4961 8.19156 6.5469 8.1773 6.59535L6.66127 11.9546L5.66697 15.4693L5.23478 16.9975C5.21255 17.0779 5.16459 17.1489 5.09823 17.1995C5.03187 17.2501 4.95075 17.2776 4.86729 17.2778ZM13.1134 17.2778C13.0302 17.2778 12.9492 17.2506 12.8828 17.2004C12.8164 17.1501 12.7683 17.0795 12.7457 16.9994L12.3135 15.4712L10.2242 8.08345L9.80294 6.59511C9.77656 6.498 9.78956 6.3944 9.83913 6.30681C9.88869 6.21923 9.9708 6.15473 10.0676 6.12734C10.1645 6.09995 10.2682 6.11187 10.3563 6.16051C10.4444 6.20915 10.5098 6.29059 10.5382 6.38713L12.0544 11.7476L13.049 15.2622L13.4812 16.7905C13.4973 16.8473 13.5 16.9071 13.489 16.9651C13.4781 17.0232 13.4539 17.0779 13.4183 17.125C13.3826 17.1721 13.3366 17.2104 13.2837 17.2367C13.2308 17.263 13.1725 17.2766 13.1134 17.2766V17.2778Z" fill="#6C757D"/>
<path d="M6.89035 11.3981C6.81479 11.3981 6.74093 11.3757 6.6781 11.3337C6.61527 11.2917 6.5663 11.2321 6.53738 11.1622C6.50847 11.0924 6.5009 11.0156 6.51564 10.9415C6.53038 10.8674 6.56677 10.7993 6.6202 10.7459C6.67363 10.6925 6.74171 10.6561 6.81582 10.6413C6.88993 10.6266 6.96675 10.6341 7.03656 10.6631C7.10637 10.692 7.16604 10.7409 7.20802 10.8038C7.25 10.8666 7.27241 10.9405 7.27241 11.016C7.27241 11.0662 7.26252 11.1159 7.2433 11.1623C7.22409 11.2087 7.19593 11.2508 7.16042 11.2863C7.12492 11.3218 7.08278 11.3499 7.0364 11.3691C6.99001 11.3883 6.94031 11.3981 6.89012 11.3981H6.89035ZM11.0896 11.3981C11.014 11.3981 10.9402 11.3757 10.8773 11.3337C10.8145 11.2917 10.7655 11.2321 10.7366 11.1622C10.7077 11.0924 10.7001 11.0156 10.7149 10.9415C10.7296 10.8674 10.766 10.7993 10.8194 10.7459C10.8729 10.6925 10.941 10.6561 11.0151 10.6413C11.0892 10.6266 11.166 10.6341 11.2358 10.6631C11.3056 10.692 11.3653 10.7409 11.4073 10.8038C11.4492 10.8666 11.4717 10.9405 11.4717 11.016C11.4717 11.0662 11.4618 11.1159 11.4425 11.1623C11.4233 11.2087 11.3952 11.2508 11.3597 11.2863C11.3242 11.3218 11.282 11.3499 11.2356 11.3691C11.1893 11.3883 11.1396 11.3981 11.0894 11.3981H11.0896ZM8.99642 10.246H8.98496C8.88364 10.246 8.78646 10.2057 8.71481 10.1341C8.64316 10.0624 8.60291 9.96523 8.60291 9.8639C8.60291 9.76258 8.64316 9.6654 8.71481 9.59375C8.78646 9.5221 8.88364 9.48185 8.98496 9.48185H8.99642C9.09775 9.48185 9.19493 9.5221 9.26658 9.59375C9.33823 9.6654 9.37848 9.76258 9.37848 9.8639C9.37848 9.96523 9.33823 10.0624 9.26658 10.1341C9.19493 10.2057 9.09775 10.246 8.99642 10.246ZM8.98998 7.3913C8.59799 7.3913 8.21481 7.27506 7.88889 7.05729C7.56297 6.83952 7.30894 6.52998 7.15894 6.16784C7.00893 5.80569 6.96968 5.4072 7.04616 5.02275C7.12263 4.6383 7.31139 4.28516 7.58856 4.00798C7.86573 3.73081 8.21888 3.54205 8.60333 3.46558C8.98778 3.3891 9.38627 3.42835 9.74842 3.57836C10.1106 3.72836 10.4201 3.98239 10.6379 4.30831C10.8556 4.63423 10.9719 5.01741 10.9719 5.4094C10.971 5.93476 10.7619 6.43835 10.3904 6.80984C10.0189 7.18133 9.51534 7.39042 8.98998 7.3913ZM8.98998 4.18969C8.74912 4.18969 8.51367 4.26111 8.31341 4.39493C8.11314 4.52874 7.95705 4.71893 7.86488 4.94146C7.77271 5.16398 7.74859 5.40884 7.79558 5.64507C7.84257 5.8813 7.95855 6.09829 8.12887 6.2686C8.29918 6.43891 8.51617 6.55489 8.7524 6.60188C8.98863 6.64887 9.23348 6.62476 9.45601 6.53258C9.67853 6.44041 9.86873 6.28432 10.0025 6.08406C10.1364 5.88379 10.2078 5.64834 10.2078 5.40749C10.2072 5.08468 10.0787 4.77526 9.85046 4.547C9.6222 4.31875 9.31278 4.19026 8.98998 4.18969ZM14.9925 5.9746C14.8327 5.97452 14.6753 5.9353 14.5341 5.86038C14.3929 5.78546 14.2722 5.6771 14.1826 5.54479C13.5708 4.64625 12.6844 3.64001 12.2105 3.12018C12.0464 2.93815 11.9561 2.70148 11.9573 2.45643C11.9585 2.21138 12.0511 1.97559 12.2169 1.79517L12.6665 1.31164C12.7587 1.21267 12.8705 1.13388 12.9946 1.08025C13.1188 1.02662 13.2527 0.999296 13.388 1.00001C13.5233 1.00073 13.6569 1.02947 13.7805 1.08442C13.9041 1.13937 14.015 1.21934 14.1062 1.31928C14.6573 1.92507 15.696 3.10347 16.4634 4.18826C16.5507 4.31148 16.6084 4.45323 16.6318 4.60243C16.6553 4.75163 16.6439 4.90423 16.5985 5.04829C16.5532 5.19235 16.4751 5.32396 16.3704 5.43284C16.2658 5.54171 16.1373 5.6249 15.9952 5.67588L15.3218 5.91705C15.2162 5.95501 15.1048 5.97448 14.9925 5.9746ZM13.3831 1.76461C13.3537 1.76447 13.3245 1.77047 13.2975 1.78223C13.2705 1.79398 13.2462 1.81124 13.2262 1.8329L12.7766 2.31644C12.7398 2.35563 12.7191 2.40731 12.7189 2.4611C12.7186 2.51488 12.7387 2.56677 12.7752 2.60632C13.2628 3.14119 14.1759 4.17823 14.8144 5.11569C14.8411 5.15501 14.88 5.18438 14.9252 5.1992C14.9703 5.21402 15.0191 5.21345 15.0639 5.1976L15.7375 4.95643C15.7687 4.94561 15.7969 4.92758 15.8197 4.9038C15.8426 4.88002 15.8595 4.85117 15.8691 4.8196C15.8794 4.78794 15.8821 4.75428 15.877 4.72138C15.8718 4.68847 15.859 4.65724 15.8395 4.63025C15.0957 3.5796 14.0801 2.42699 13.541 1.83409C13.5211 1.8122 13.4969 1.79469 13.4699 1.78268C13.4429 1.77068 13.4136 1.76444 13.3841 1.76437L13.3831 1.76461Z" fill="#6C757D"/>
<path d="M9.76767 4.39124C9.67757 4.39126 9.59037 4.35943 9.52146 4.30138C9.45255 4.24333 9.40638 4.1628 9.39109 4.074C9.37581 3.98521 9.3924 3.89387 9.43793 3.81612C9.48346 3.73837 9.55501 3.67922 9.63992 3.6491L12.4888 2.64001C12.5365 2.62358 12.5869 2.61674 12.6372 2.61988C12.6875 2.62302 12.7366 2.63608 12.7819 2.65829C12.8271 2.68051 12.8675 2.71146 12.9007 2.74934C12.9339 2.78723 12.9593 2.83131 12.9754 2.87905C12.9915 2.92679 12.998 2.97725 12.9945 3.02751C12.9911 3.07778 12.9777 3.12686 12.9552 3.17193C12.9326 3.21701 12.9014 3.25718 12.8633 3.29014C12.8252 3.32311 12.781 3.34821 12.7331 3.364L9.89518 4.36928C9.85422 4.38374 9.81111 4.39116 9.76767 4.39124ZM4.23124 6.35213C4.14114 6.35215 4.05393 6.32032 3.98503 6.26227C3.91612 6.20422 3.86994 6.12369 3.85466 6.03489C3.83937 5.9461 3.85596 5.85476 3.9015 5.77701C3.94703 5.69926 4.01857 5.64011 4.10349 5.60999L7.37793 4.44998C7.42535 4.43265 7.47573 4.42489 7.52617 4.42715C7.5766 4.4294 7.62609 4.44164 7.67177 4.46313C7.71745 4.48463 7.75842 4.51497 7.79231 4.5524C7.82619 4.58983 7.85232 4.6336 7.86919 4.68118C7.88606 4.72877 7.89332 4.77923 7.89057 4.82964C7.88782 4.88005 7.87511 4.92942 7.85316 4.97489C7.83122 5.02035 7.80048 5.06102 7.76272 5.09454C7.72496 5.12805 7.68094 5.15376 7.63319 5.17016L4.35875 6.33017C4.31782 6.34474 4.27469 6.35217 4.23124 6.35213ZM4.72552 7.82782C4.6319 7.82795 4.54149 7.79371 4.47145 7.7316C4.40141 7.66948 4.35662 7.58381 4.34557 7.49084C4.33453 7.39788 4.358 7.30409 4.41153 7.22729C4.46507 7.15049 4.54493 7.09602 4.63598 7.07421L7.80822 6.21794C7.90544 6.19332 8.00844 6.20792 8.09499 6.25857C8.18154 6.30923 8.24471 6.3919 8.27085 6.48872C8.29699 6.58554 8.28401 6.68876 8.23471 6.77609C8.18542 6.86343 8.10376 6.92788 8.00736 6.95554L4.82509 7.81516C4.79259 7.82366 4.75912 7.82791 4.72552 7.82782ZM10.5201 6.2645C10.4274 6.26451 10.3379 6.23084 10.2682 6.16977C10.1986 6.10871 10.1535 6.0244 10.1413 5.93255C10.1292 5.84069 10.1508 5.74755 10.2022 5.67047C10.2536 5.59339 10.3313 5.53761 10.4207 5.51353L14.0868 4.52377C14.1352 4.51069 14.1858 4.50729 14.2355 4.51375C14.2853 4.52021 14.3333 4.5364 14.3768 4.56141C14.4203 4.58643 14.4585 4.61976 14.4891 4.65952C14.5197 4.69927 14.5422 4.74467 14.5553 4.79312C14.5684 4.84156 14.5718 4.89211 14.5653 4.94188C14.5588 4.99164 14.5426 5.03964 14.5176 5.08315C14.4926 5.12665 14.4593 5.1648 14.4195 5.19542C14.3798 5.22604 14.3344 5.24853 14.2859 5.26161L10.6208 6.25184C10.588 6.26055 10.5541 6.26481 10.5201 6.2645Z" fill="#6C757D"/>
<path d="M3.69034 8.49172C3.30628 8.492 2.9363 8.34719 2.65446 8.08629C2.37263 7.82539 2.19975 7.46765 2.17046 7.08471C2.14116 6.70177 2.2576 6.3219 2.49647 6.02116C2.73533 5.72042 3.07899 5.52102 3.45862 5.46287C3.83825 5.40473 4.22583 5.49214 4.54376 5.7076C4.86168 5.92307 5.08648 6.25067 5.17314 6.62483C5.25979 6.99898 5.20191 7.39206 5.01109 7.72535C4.82026 8.05865 4.51057 8.30755 4.14403 8.42223C3.99716 8.4681 3.84421 8.49153 3.69034 8.49172ZM3.69297 6.21659C3.57463 6.2166 3.45795 6.24441 3.35234 6.29778C3.24672 6.35115 3.15511 6.42858 3.0849 6.52384C3.01469 6.6191 2.96783 6.72951 2.94811 6.8462C2.92839 6.96288 2.93636 7.08256 2.97137 7.1956C3.00084 7.29026 3.04868 7.37819 3.11214 7.45436C3.17561 7.53054 3.25346 7.59346 3.34124 7.63954C3.42903 7.68562 3.52504 7.71395 3.62378 7.72291C3.72252 7.73188 3.82206 7.7213 3.91671 7.69179C4.08893 7.63797 4.23619 7.52428 4.33184 7.37128C4.42748 7.21829 4.4652 7.03611 4.43816 6.85772C4.41112 6.67933 4.32112 6.51651 4.18443 6.39873C4.04774 6.28095 3.8734 6.216 3.69297 6.21563V6.21659ZM18.0415 17.2775H15.9352C15.7146 17.2773 15.5032 17.1896 15.3473 17.0337C15.1914 16.8778 15.1037 16.6664 15.1035 16.4458V15.9358C15.1037 15.7153 15.1914 15.5038 15.3473 15.3479C15.5032 15.192 15.7146 15.1043 15.9352 15.1041H18.0415C18.262 15.1043 18.4735 15.192 18.6294 15.3479C18.7854 15.5038 18.8731 15.7153 18.8734 15.9358V16.4458C18.8731 16.6664 18.7854 16.8778 18.6294 17.0337C18.4735 17.1896 18.262 17.2773 18.0415 17.2775ZM15.9352 15.8687C15.9172 15.8687 15.9 15.8758 15.8874 15.8885C15.8747 15.9012 15.8676 15.9183 15.8676 15.9363V16.4458C15.8676 16.4638 15.8747 16.4809 15.8874 16.4936C15.9 16.5063 15.9172 16.5134 15.9352 16.5134H18.0415C18.0594 16.5134 18.0766 16.5063 18.0893 16.4936C18.102 16.481 18.1092 16.4638 18.1093 16.4458V15.9358C18.1092 15.9178 18.102 15.9007 18.0893 15.888C18.0766 15.8753 18.0594 15.8682 18.0415 15.8682L15.9352 15.8687Z" fill="#6C757D"/>
<path d="M19.5511 19.0006H0.44846C0.347133 19.0006 0.249956 18.9604 0.178307 18.8887C0.106658 18.8171 0.0664062 18.7199 0.0664062 18.6186V16.8953C0.0664062 16.7939 0.106658 16.6968 0.178307 16.6251C0.249956 16.5535 0.347133 16.5132 0.44846 16.5132H19.5511C19.6525 16.5132 19.7496 16.5535 19.8213 16.6251C19.8929 16.6968 19.9332 16.7939 19.9332 16.8953V18.6186C19.9332 18.7199 19.8929 18.8171 19.8213 18.8887C19.7496 18.9604 19.6525 19.0006 19.5511 19.0006ZM0.830513 18.2365H19.1691V17.2773H0.830513V18.2365ZM16.9298 15.868C16.8339 15.8679 16.7415 15.8317 16.671 15.7666C16.6005 15.7016 16.5571 15.6124 16.5494 15.5168L15.6962 5.21946C15.6881 5.11861 15.7203 5.01865 15.7857 4.94151C15.8512 4.86436 15.9446 4.81633 16.0454 4.80795C16.1462 4.79958 16.2463 4.83153 16.3236 4.89681C16.4008 4.9621 16.4491 5.05537 16.4577 5.15618L17.3109 15.4542C17.3193 15.5552 17.2872 15.6554 17.2217 15.7327C17.1563 15.81 17.0627 15.8582 16.9618 15.8666C16.951 15.8675 16.9403 15.868 16.9298 15.868Z" fill="#6C757D"/>
<path d="M3.19309 17.2761H1.51731C1.41598 17.2761 1.3188 17.2358 1.24715 17.1642C1.17551 17.0925 1.13525 16.9954 1.13525 16.894V14.8489C1.13525 14.7475 1.17551 14.6503 1.24715 14.5787C1.3188 14.507 1.41598 14.4668 1.51731 14.4668H3.19309C3.29442 14.4668 3.39159 14.507 3.46324 14.5787C3.53489 14.6503 3.57514 14.7475 3.57514 14.8489V16.894C3.57514 16.9954 3.53489 17.0925 3.46324 17.1642C3.39159 17.2358 3.29442 17.2761 3.19309 17.2761ZM1.89936 16.512H2.81104V15.2309H1.89936V16.512Z" fill="#6C757D"/>
<path d="M2.35541 15.2322H2.34251C2.24125 15.2289 2.14547 15.1854 2.07624 15.1115C2.00702 15.0375 1.97 14.939 1.97335 14.8378L2.22527 7.29723C2.22866 7.1959 2.27216 7.10007 2.3462 7.03082C2.42025 6.96156 2.51877 6.92456 2.6201 6.92795C2.72143 6.93134 2.81726 6.97484 2.88651 7.04888C2.95576 7.12293 2.99277 7.22145 2.98938 7.32278L2.73698 14.8631C2.73364 14.9621 2.69198 15.0559 2.6208 15.1248C2.54961 15.1936 2.45446 15.2322 2.35541 15.2322Z" fill="#6C757D"/>
</svg>
