<svg width="60" height="60" viewBox="0 0 60 60" fill="none" xmlns="http://www.w3.org/2000/svg">
<rect width="60" height="60" rx="30" fill="white" fill-opacity="0.1"/>
<path d="M39 22.5V32.25C39 32.6478 38.842 33.0294 38.5607 33.3107C38.2794 33.592 37.8978 33.75 37.5 33.75H27.3103L28.2806 34.7194C28.3503 34.7891 28.4056 34.8718 28.4433 34.9628C28.481 35.0539 28.5004 35.1515 28.5004 35.25C28.5004 35.3485 28.481 35.4461 28.4433 35.5372C28.4056 35.6282 28.3503 35.7109 28.2806 35.7806C28.2109 35.8503 28.1282 35.9056 28.0372 35.9433C27.9461 35.981 27.8485 36.0004 27.75 36.0004C27.6515 36.0004 27.5539 35.981 27.4628 35.9433C27.3718 35.9056 27.2891 35.8503 27.2194 35.7806L24.9694 33.5306C24.8996 33.461 24.8443 33.3783 24.8066 33.2872C24.7688 33.1962 24.7494 33.0986 24.7494 33C24.7494 32.9014 24.7688 32.8038 24.8066 32.7128C24.8443 32.6217 24.8996 32.539 24.9694 32.4694L27.2194 30.2194C27.3601 30.0786 27.551 29.9996 27.75 29.9996C27.949 29.9996 28.1399 30.0786 28.2806 30.2194C28.4214 30.3601 28.5004 30.551 28.5004 30.75C28.5004 30.949 28.4214 31.1399 28.2806 31.2806L27.3103 32.25H37.5V22.5H27V23.25C27 23.4489 26.921 23.6397 26.7803 23.7803C26.6397 23.921 26.4489 24 26.25 24C26.0511 24 25.8603 23.921 25.7197 23.7803C25.579 23.6397 25.5 23.4489 25.5 23.25V22.5C25.5 22.1022 25.658 21.7206 25.9393 21.4393C26.2206 21.158 26.6022 21 27 21H37.5C37.8978 21 38.2794 21.158 38.5607 21.4393C38.842 21.7206 39 22.1022 39 22.5ZM33.75 36C33.5511 36 33.3603 36.079 33.2197 36.2197C33.079 36.3603 33 36.5511 33 36.75V37.5H22.5V27.75H32.6897L31.7194 28.7194C31.5786 28.8601 31.4996 29.051 31.4996 29.25C31.4996 29.449 31.5786 29.6399 31.7194 29.7806C31.8601 29.9214 32.051 30.0004 32.25 30.0004C32.449 30.0004 32.6399 29.9214 32.7806 29.7806L35.0306 27.5306C35.1004 27.461 35.1557 27.3783 35.1934 27.2872C35.2312 27.1962 35.2506 27.0986 35.2506 27C35.2506 26.9014 35.2312 26.8038 35.1934 26.7128C35.1557 26.6217 35.1004 26.539 35.0306 26.4694L32.7806 24.2194C32.6399 24.0786 32.449 23.9996 32.25 23.9996C32.051 23.9996 31.8601 24.0786 31.7194 24.2194C31.5786 24.3601 31.4996 24.551 31.4996 24.75C31.4996 24.949 31.5786 25.1399 31.7194 25.2806L32.6897 26.25H22.5C22.1022 26.25 21.7206 26.408 21.4393 26.6893C21.158 26.9706 21 27.3522 21 27.75V37.5C21 37.8978 21.158 38.2794 21.4393 38.5607C21.7206 38.842 22.1022 39 22.5 39H33C33.3978 39 33.7794 38.842 34.0607 38.5607C34.342 38.2794 34.5 37.8978 34.5 37.5V36.75C34.5 36.5511 34.421 36.3603 34.2803 36.2197C34.1397 36.079 33.9489 36 33.75 36Z" fill="#EAE68B"/>
</svg>
