<svg width="121" height="36" viewBox="0 0 121 36" fill="none" xmlns="http://www.w3.org/2000/svg">
<path d="M0.5 6C0.5 2.96243 2.96243 0.5 6 0.5H115C118.038 0.5 120.5 2.96243 120.5 6V30C120.5 33.0376 118.038 35.5 115 35.5H6C2.96243 35.5 0.5 33.0376 0.5 30V6Z" stroke="#358619"/>
<path d="M20.5658 24.8747C18.9658 24.8747 17.4574 24.0247 16.6408 22.6497C16.2074 21.9497 15.9824 21.133 15.9824 20.2913C15.9824 17.7663 18.0408 15.708 20.5658 15.708C23.0908 15.708 25.1491 17.7663 25.1491 20.2913C25.1491 21.133 24.9158 21.9497 24.4824 22.658C23.6741 24.0247 22.1741 24.8747 20.5658 24.8747ZM20.5658 16.958C18.7241 16.958 17.2324 18.4497 17.2324 20.2913C17.2324 20.8997 17.3991 21.4913 17.7158 21.9997C18.3158 23.008 19.4074 23.6247 20.5658 23.6247C21.7491 23.6247 22.8158 23.0247 23.4158 22.008C23.7324 21.4913 23.8991 20.8997 23.8991 20.2913C23.8991 18.4497 22.4074 16.958 20.5658 16.958Z" fill="#358619"/>
<path d="M22.0496 20.9004H19.0913C18.7496 20.9004 18.4663 20.6171 18.4663 20.2754C18.4663 19.9337 18.7496 19.6504 19.0913 19.6504H22.0496C22.3913 19.6504 22.6746 19.9337 22.6746 20.2754C22.6746 20.6171 22.3913 20.9004 22.0496 20.9004Z" fill="#358619"/>
<path d="M20.5659 22.408C20.2243 22.408 19.9409 22.1247 19.9409 21.783V18.833C19.9409 18.4913 20.2243 18.208 20.5659 18.208C20.9076 18.208 21.1909 18.4913 21.1909 18.833V21.7913C21.1909 22.133 20.9159 22.408 20.5659 22.408Z" fill="#358619"/>
<path d="M15.6088 26.9587C15.2088 26.9587 14.8088 26.8587 14.4505 26.6587C13.7088 26.242 13.2672 25.492 13.2672 24.6503V20.192C13.2672 19.7753 12.9922 19.142 12.7255 18.817L9.55882 15.492C9.03382 14.9503 8.62549 14.042 8.62549 13.3753V11.4337C8.62549 10.092 9.64216 9.04199 10.9338 9.04199H22.0505C23.3255 9.04199 24.3588 10.0753 24.3588 11.3503V13.2003C24.3588 14.0753 23.8422 15.0587 23.3422 15.5753L21.8422 16.9003C21.6922 17.0337 21.4838 17.0836 21.2838 17.042C21.0588 16.9836 20.8172 16.9587 20.5672 16.9587C18.7255 16.9587 17.2338 18.4503 17.2338 20.292C17.2338 20.9003 17.4005 21.492 17.7172 22.0087C17.9838 22.4503 18.3422 22.817 18.7588 23.0753C18.9422 23.192 19.0588 23.392 19.0588 23.6086V23.892C19.0588 24.5503 18.6588 25.4753 17.9922 25.867L16.8422 26.6087C16.4672 26.842 16.0338 26.9587 15.6088 26.9587ZM10.9422 10.292C10.3505 10.292 9.88382 10.792 9.88382 11.4337V13.3753C9.88382 13.6753 10.1338 14.292 10.4672 14.6253L13.6755 18.0003C14.1005 18.5253 14.5255 19.417 14.5255 20.2003V24.6587C14.5255 25.2087 14.9088 25.4837 15.0672 25.5753C15.4255 25.7753 15.8505 25.767 16.1755 25.567L17.3422 24.817C17.5672 24.6837 17.7922 24.2587 17.8088 23.9587C17.3505 23.617 16.9505 23.1753 16.6505 22.6753C16.2172 21.967 15.9838 21.1503 15.9838 20.317C15.9838 17.792 18.0422 15.7337 20.5672 15.7337C20.8005 15.7337 21.0338 15.7503 21.2505 15.7837L22.4838 14.692C22.7672 14.4003 23.1172 13.7087 23.1172 13.217V11.367C23.1172 10.7836 22.6422 10.3087 22.0588 10.3087H10.9422V10.292Z" fill="#358619"/>
<path d="M35.4125 15.3636C35.3528 14.8598 35.1109 14.4688 34.6866 14.1903C34.2624 13.9119 33.742 13.7727 33.1255 13.7727C32.6748 13.7727 32.2804 13.8456 31.9423 13.9915C31.6075 14.1373 31.3457 14.3378 31.1568 14.593C30.9712 14.8482 30.8784 15.1383 30.8784 15.4631C30.8784 15.7348 30.943 15.9685 31.0723 16.1641C31.2048 16.3563 31.3739 16.517 31.5794 16.6463C31.7849 16.7723 32.0003 16.8767 32.2257 16.9595C32.4511 17.0391 32.6582 17.1037 32.8471 17.1534L33.8812 17.4318C34.1464 17.5014 34.4413 17.5975 34.7662 17.7202C35.0943 17.8428 35.4075 18.0102 35.7058 18.2223C36.0074 18.4311 36.256 18.6996 36.4515 19.0277C36.6471 19.3558 36.7449 19.7585 36.7449 20.2358C36.7449 20.786 36.6007 21.2831 36.3123 21.7273C36.0273 22.1714 35.6097 22.5244 35.0595 22.7862C34.5126 23.0481 33.8481 23.179 33.0659 23.179C32.3367 23.179 31.7053 23.0613 31.1717 22.826C30.6414 22.5907 30.2238 22.2625 29.9189 21.8416C29.6172 21.4207 29.4466 20.9318 29.4068 20.375H30.6795C30.7127 20.7595 30.8419 21.0777 31.0673 21.3295C31.296 21.5781 31.5843 21.7637 31.9324 21.8864C32.2837 22.0057 32.6615 22.0653 33.0659 22.0653C33.5365 22.0653 33.9591 21.9891 34.3336 21.8366C34.7082 21.6809 35.0048 21.4654 35.2235 21.1903C35.4423 20.9119 35.5517 20.5871 35.5517 20.2159C35.5517 19.8778 35.4572 19.6027 35.2683 19.3906C35.0794 19.1785 34.8308 19.0062 34.5225 18.8736C34.2143 18.741 33.8812 18.625 33.5233 18.5256L32.2704 18.1676C31.475 17.9389 30.8452 17.6125 30.3812 17.1882C29.9172 16.764 29.6852 16.2088 29.6852 15.5227C29.6852 14.9527 29.8393 14.4555 30.1475 14.0312C30.4591 13.6037 30.8767 13.2723 31.4004 13.0369C31.9274 12.7983 32.5157 12.679 33.1653 12.679C33.8216 12.679 34.4049 12.7966 34.9153 13.032C35.4257 13.264 35.8301 13.5821 36.1284 13.9865C36.43 14.3909 36.5891 14.8499 36.6056 15.3636H35.4125ZM38.6129 25.8636V15.3636H39.7464V16.5767H39.8857C39.9718 16.4441 40.0911 16.2751 40.2436 16.0696C40.3994 15.8608 40.6214 15.6752 40.9098 15.5128C41.2015 15.3471 41.5959 15.2642 42.093 15.2642C42.736 15.2642 43.3028 15.425 43.7933 15.7464C44.2839 16.0679 44.6667 16.5237 44.9418 17.1136C45.2169 17.7036 45.3544 18.3996 45.3544 19.2017C45.3544 20.0104 45.2169 20.7114 44.9418 21.3047C44.6667 21.8946 44.2855 22.352 43.7983 22.6768C43.3111 22.9983 42.7493 23.1591 42.1129 23.1591C41.6224 23.1591 41.2296 23.0779 40.9347 22.9155C40.6397 22.7498 40.4126 22.5625 40.2536 22.3537C40.0945 22.1416 39.9718 21.9659 39.8857 21.8267H39.7862V25.8636H38.6129ZM39.7663 19.1818C39.7663 19.7585 39.8509 20.2673 40.0199 20.7081C40.1889 21.1456 40.4358 21.4886 40.7607 21.7372C41.0855 21.9825 41.4832 22.1051 41.9538 22.1051C42.4444 22.1051 42.8537 21.9759 43.1818 21.7173C43.5133 21.4555 43.7618 21.1042 43.9276 20.6634C44.0966 20.2192 44.1811 19.7254 44.1811 19.1818C44.1811 18.6449 44.0982 18.161 43.9325 17.7301C43.7701 17.2959 43.5232 16.9529 43.1918 16.701C42.8636 16.4458 42.451 16.3182 41.9538 16.3182C41.4766 16.3182 41.0755 16.4392 40.7507 16.6811C40.4259 16.9197 40.1806 17.2545 40.0149 17.6854C39.8492 18.1129 39.7663 18.6117 39.7663 19.1818ZM50.3459 23.1591C49.6101 23.1591 48.9754 22.9967 48.4418 22.6719C47.9115 22.3438 47.5021 21.8864 47.2138 21.2997C46.9287 20.7098 46.7862 20.0237 46.7862 19.2415C46.7862 18.4593 46.9287 17.7699 47.2138 17.1733C47.5021 16.5734 47.9032 16.1061 48.4169 15.7713C48.9339 15.4332 49.5372 15.2642 50.2266 15.2642C50.6243 15.2642 51.017 15.3305 51.4048 15.4631C51.7926 15.5956 52.1456 15.8111 52.4638 16.1094C52.782 16.4044 53.0355 16.7955 53.2244 17.2827C53.4134 17.7699 53.5078 18.3698 53.5078 19.0824V19.5795H47.6214V18.5653H52.3146C52.3146 18.1345 52.2285 17.75 52.0561 17.4119C51.8871 17.0739 51.6451 16.8071 51.3303 16.6115C51.0187 16.416 50.6508 16.3182 50.2266 16.3182C49.7592 16.3182 49.3549 16.4342 49.0135 16.6662C48.6754 16.8949 48.4152 17.1932 48.233 17.5611C48.0507 17.929 47.9595 18.3234 47.9595 18.7443V19.4205C47.9595 19.9972 48.0589 20.486 48.2578 20.8871C48.46 21.2848 48.7401 21.5881 49.098 21.7969C49.456 22.0024 49.8719 22.1051 50.3459 22.1051C50.6541 22.1051 50.9325 22.062 51.1811 21.9759C51.433 21.8864 51.6501 21.7538 51.8324 21.5781C52.0147 21.3991 52.1555 21.1771 52.255 20.9119L53.3885 21.2301C53.2692 21.6146 53.0687 21.9527 52.7869 22.2443C52.5052 22.5327 52.1572 22.758 51.7429 22.9205C51.3286 23.0795 50.8629 23.1591 50.3459 23.1591ZM58.3949 23.1591C57.679 23.1591 57.0625 22.9901 56.5455 22.652C56.0284 22.3139 55.6307 21.8482 55.3523 21.255C55.0739 20.6617 54.9347 19.9839 54.9347 19.2216C54.9347 18.446 55.0772 17.7616 55.3622 17.1683C55.6506 16.5717 56.0516 16.1061 56.5653 15.7713C57.0824 15.4332 57.6856 15.2642 58.375 15.2642C58.9119 15.2642 59.3958 15.3636 59.8267 15.5625C60.2576 15.7614 60.6106 16.0398 60.8857 16.3977C61.1607 16.7557 61.3314 17.1733 61.3977 17.6506H60.2244C60.1349 17.3026 59.9361 16.9943 59.6278 16.7259C59.3229 16.4541 58.9119 16.3182 58.3949 16.3182C57.9375 16.3182 57.5365 16.4375 57.1918 16.6761C56.8504 16.9115 56.5836 17.2446 56.3913 17.6754C56.2024 18.103 56.108 18.6051 56.108 19.1818C56.108 19.7718 56.2008 20.2855 56.3864 20.723C56.5753 21.1605 56.8404 21.5002 57.1818 21.7422C57.5265 21.9841 57.9309 22.1051 58.3949 22.1051C58.6998 22.1051 58.9766 22.0521 59.2251 21.946C59.4737 21.84 59.6842 21.6875 59.8565 21.4886C60.0289 21.2898 60.1515 21.0511 60.2244 20.7727H61.3977C61.3314 21.2235 61.1674 21.6295 60.9055 21.9908C60.647 22.3487 60.304 22.6338 59.8764 22.8459C59.4522 23.0547 58.9583 23.1591 58.3949 23.1591ZM63.1129 23V15.3636H64.2862V23H63.1129ZM63.7095 14.0909C63.4808 14.0909 63.2836 14.013 63.1179 13.8572C62.9555 13.7015 62.8743 13.5142 62.8743 13.2955C62.8743 13.0767 62.9555 12.8894 63.1179 12.7337C63.2836 12.5779 63.4808 12.5 63.7095 12.5C63.9382 12.5 64.1338 12.5779 64.2962 12.7337C64.4619 12.8894 64.5447 13.0767 64.5447 13.2955C64.5447 13.5142 64.4619 13.7015 64.2962 13.8572C64.1338 14.013 63.9382 14.0909 63.7095 14.0909ZM69.8358 15.3636V16.358H65.7193V15.3636H69.8358ZM66.9522 23V14.3097C66.9522 13.8722 67.055 13.5076 67.2605 13.2159C67.466 12.9242 67.7328 12.7055 68.0609 12.5597C68.389 12.4138 68.7354 12.3409 69.1 12.3409C69.3883 12.3409 69.6236 12.3641 69.8059 12.4105C69.9882 12.4569 70.1241 12.5 70.2136 12.5398L69.8755 13.554C69.8159 13.5341 69.733 13.5092 69.627 13.4794C69.5242 13.4496 69.3883 13.4347 69.2193 13.4347C68.8315 13.4347 68.5514 13.5324 68.3791 13.728C68.21 13.9235 68.1255 14.2102 68.1255 14.5881V23H66.9522ZM71.4801 23V15.3636H72.6534V23H71.4801ZM72.0767 14.0909C71.848 14.0909 71.6508 14.013 71.4851 13.8572C71.3227 13.7015 71.2415 13.5142 71.2415 13.2955C71.2415 13.0767 71.3227 12.8894 71.4851 12.7337C71.6508 12.5779 71.848 12.5 72.0767 12.5C72.3054 12.5 72.5009 12.5779 72.6634 12.7337C72.8291 12.8894 72.9119 13.0767 72.9119 13.2955C72.9119 13.5142 72.8291 13.7015 72.6634 13.8572C72.5009 14.013 72.3054 14.0909 72.0767 14.0909ZM77.9047 23.1591C77.1887 23.1591 76.5723 22.9901 76.0552 22.652C75.5382 22.3139 75.1404 21.8482 74.862 21.255C74.5836 20.6617 74.4444 19.9839 74.4444 19.2216C74.4444 18.446 74.5869 17.7616 74.872 17.1683C75.1603 16.5717 75.5614 16.1061 76.0751 15.7713C76.5922 15.4332 77.1954 15.2642 77.8848 15.2642C78.4217 15.2642 78.9056 15.3636 79.3365 15.5625C79.7673 15.7614 80.1203 16.0398 80.3954 16.3977C80.6705 16.7557 80.8412 17.1733 80.9075 17.6506H79.7342C79.6447 17.3026 79.4458 16.9943 79.1376 16.7259C78.8327 16.4541 78.4217 16.3182 77.9047 16.3182C77.4473 16.3182 77.0462 16.4375 76.7015 16.6761C76.3601 16.9115 76.0933 17.2446 75.9011 17.6754C75.7122 18.103 75.6177 18.6051 75.6177 19.1818C75.6177 19.7718 75.7105 20.2855 75.8961 20.723C76.085 21.1605 76.3502 21.5002 76.6916 21.7422C77.0363 21.9841 77.4406 22.1051 77.9047 22.1051C78.2096 22.1051 78.4863 22.0521 78.7349 21.946C78.9835 21.84 79.194 21.6875 79.3663 21.4886C79.5386 21.2898 79.6613 21.0511 79.7342 20.7727H80.9075C80.8412 21.2235 80.6771 21.6295 80.4153 21.9908C80.1568 22.3487 79.8137 22.6338 79.3862 22.8459C78.9619 23.0547 78.4681 23.1591 77.9047 23.1591ZM84.8699 23.179C84.3859 23.179 83.9468 23.0878 83.5524 22.9055C83.158 22.7199 82.8448 22.4531 82.6127 22.1051C82.3807 21.7538 82.2647 21.3295 82.2647 20.8324C82.2647 20.3949 82.3509 20.0402 82.5233 19.7685C82.6956 19.4934 82.926 19.2779 83.2143 19.1222C83.5027 18.9664 83.8208 18.8504 84.1689 18.7741C84.5202 18.6946 84.8732 18.6316 85.2278 18.5852C85.6918 18.5256 86.068 18.4808 86.3564 18.451C86.648 18.4179 86.8601 18.3632 86.9927 18.2869C87.1286 18.2107 87.1966 18.0781 87.1966 17.8892V17.8494C87.1966 17.3589 87.0623 16.9777 86.7939 16.706C86.5287 16.4342 86.126 16.2983 85.5858 16.2983C85.0256 16.2983 84.5865 16.4209 84.2683 16.6662C83.9501 16.9115 83.7264 17.1733 83.5971 17.4517L82.4835 17.054C82.6824 16.59 82.9475 16.2287 83.2789 15.9702C83.6137 15.7083 83.9783 15.526 84.3727 15.4233C84.7704 15.3172 85.1615 15.2642 85.546 15.2642C85.7913 15.2642 86.073 15.294 86.3912 15.3537C86.7127 15.41 87.0225 15.5277 87.3208 15.7067C87.6225 15.8857 87.8727 16.1558 88.0716 16.517C88.2704 16.8783 88.3699 17.3622 88.3699 17.9688V23H87.1966V21.9659H87.1369C87.0574 22.1316 86.9248 22.3089 86.7392 22.4979C86.5536 22.6868 86.3066 22.8475 85.9984 22.9801C85.6902 23.1127 85.314 23.179 84.8699 23.179ZM85.0488 22.125C85.5128 22.125 85.9039 22.0339 86.2221 21.8516C86.5436 21.6693 86.7856 21.4339 86.948 21.1456C87.1137 20.8572 87.1966 20.554 87.1966 20.2358V19.1619C87.1468 19.2216 87.0375 19.2763 86.8684 19.326C86.7027 19.3724 86.5105 19.4138 86.2917 19.4503C86.0763 19.4834 85.8658 19.5133 85.6603 19.5398C85.4582 19.563 85.2941 19.5829 85.1681 19.5994C84.8632 19.6392 84.5782 19.7038 84.313 19.7933C84.0512 19.8795 83.8391 20.0104 83.6767 20.1861C83.5176 20.3584 83.438 20.5937 83.438 20.892C83.438 21.2997 83.5888 21.608 83.8904 21.8168C84.1954 22.0223 84.5815 22.125 85.0488 22.125ZM93.8324 15.3636V16.358H89.875V15.3636H93.8324ZM91.0284 13.5341H92.2017V20.8125C92.2017 21.1439 92.2498 21.3925 92.3459 21.5582C92.4453 21.7206 92.5713 21.83 92.7237 21.8864C92.8795 21.9394 93.0436 21.9659 93.2159 21.9659C93.3452 21.9659 93.4512 21.9593 93.5341 21.946C93.617 21.9295 93.6832 21.9162 93.733 21.9062L93.9716 22.9602C93.892 22.9901 93.781 23.0199 93.6385 23.0497C93.496 23.0829 93.3153 23.0994 93.0966 23.0994C92.7652 23.0994 92.4403 23.0282 92.1222 22.8857C91.8073 22.7431 91.5455 22.526 91.3366 22.2344C91.1312 21.9427 91.0284 21.5748 91.0284 21.1307V13.5341ZM95.5973 23V15.3636H96.7706V23H95.5973ZM96.1939 14.0909C95.9652 14.0909 95.768 14.013 95.6023 13.8572C95.4399 13.7015 95.3587 13.5142 95.3587 13.2955C95.3587 13.0767 95.4399 12.8894 95.6023 12.7337C95.768 12.5779 95.9652 12.5 96.1939 12.5C96.4226 12.5 96.6181 12.5779 96.7805 12.7337C96.9463 12.8894 97.0291 13.0767 97.0291 13.2955C97.0291 13.5142 96.9463 13.7015 96.7805 13.8572C96.6181 14.013 96.4226 14.0909 96.1939 14.0909ZM102.022 23.1591C101.332 23.1591 100.728 22.995 100.207 22.6669C99.6902 22.3388 99.2858 21.8797 98.9941 21.2898C98.7058 20.6998 98.5616 20.0104 98.5616 19.2216C98.5616 18.4261 98.7058 17.7318 98.9941 17.1385C99.2858 16.5452 99.6902 16.0845 100.207 15.7564C100.728 15.4283 101.332 15.2642 102.022 15.2642C102.711 15.2642 103.314 15.4283 103.831 15.7564C104.352 16.0845 104.756 16.5452 105.045 17.1385C105.336 17.7318 105.482 18.4261 105.482 19.2216C105.482 20.0104 105.336 20.6998 105.045 21.2898C104.756 21.8797 104.352 22.3388 103.831 22.6669C103.314 22.995 102.711 23.1591 102.022 23.1591ZM102.022 22.1051C102.546 22.1051 102.976 21.9709 103.314 21.7024C103.653 21.4339 103.903 21.081 104.065 20.6435C104.228 20.206 104.309 19.732 104.309 19.2216C104.309 18.7112 104.228 18.2356 104.065 17.7947C103.903 17.3539 103.653 16.9976 103.314 16.7259C102.976 16.4541 102.546 16.3182 102.022 16.3182C101.498 16.3182 101.067 16.4541 100.729 16.7259C100.391 16.9976 100.141 17.3539 99.9785 17.7947C99.8161 18.2356 99.7349 18.7112 99.7349 19.2216C99.7349 19.732 99.8161 20.206 99.9785 20.6435C100.141 21.081 100.391 21.4339 100.729 21.7024C101.067 21.9709 101.498 22.1051 102.022 22.1051ZM108.446 18.4062V23H107.273V15.3636H108.407V16.5568H108.506C108.685 16.169 108.957 15.8575 109.321 15.6222C109.686 15.3835 110.157 15.2642 110.733 15.2642C111.25 15.2642 111.703 15.3703 112.091 15.5824C112.478 15.7912 112.78 16.1094 112.995 16.5369C113.211 16.9612 113.319 17.4981 113.319 18.1477V23H112.145V18.2273C112.145 17.6274 111.989 17.16 111.678 16.8253C111.366 16.4872 110.939 16.3182 110.395 16.3182C110.021 16.3182 109.686 16.3994 109.391 16.5618C109.099 16.7242 108.869 16.9612 108.7 17.2727C108.531 17.5843 108.446 17.9621 108.446 18.4062Z" fill="#358619"/>
</svg>
