<svg width="95" height="82" viewBox="0 0 95 82" fill="none" xmlns="http://www.w3.org/2000/svg">
<circle cx="93.1335" cy="80.0495" r="1.54225" transform="rotate(180 93.1335 80.0495)" fill="white" fill-opacity="0.2"/>
<circle cx="80.0495" cy="80.0495" r="1.54225" transform="rotate(180 80.0495 80.0495)" fill="white" fill-opacity="0.2"/>
<circle cx="66.9636" cy="80.0495" r="1.54225" transform="rotate(180 66.9636 80.0495)" fill="white" fill-opacity="0.2"/>
<circle cx="53.8796" cy="80.0495" r="1.54225" transform="rotate(180 53.8796 80.0495)" fill="white" fill-opacity="0.2"/>
<circle cx="93.1335" cy="66.9651" r="1.54225" transform="rotate(180 93.1335 66.9651)" fill="white" fill-opacity="0.2"/>
<circle cx="80.0495" cy="66.9651" r="1.54225" transform="rotate(180 80.0495 66.9651)" fill="white" fill-opacity="0.2"/>
<circle cx="66.9636" cy="66.9651" r="1.54225" transform="rotate(180 66.9636 66.9651)" fill="white" fill-opacity="0.2"/>
<circle cx="53.8796" cy="66.9651" r="1.54225" transform="rotate(180 53.8796 66.9651)" fill="white" fill-opacity="0.2"/>
<circle cx="93.1335" cy="53.8806" r="1.54225" transform="rotate(180 93.1335 53.8806)" fill="white" fill-opacity="0.2"/>
<circle cx="80.0495" cy="53.8806" r="1.54225" transform="rotate(180 80.0495 53.8806)" fill="white" fill-opacity="0.2"/>
<circle cx="66.9636" cy="53.8806" r="1.54225" transform="rotate(180 66.9636 53.8806)" fill="white" fill-opacity="0.2"/>
<circle cx="53.8796" cy="53.8806" r="1.54225" transform="rotate(180 53.8796 53.8806)" fill="white" fill-opacity="0.2"/>
<circle cx="93.1335" cy="40.7961" r="1.54225" transform="rotate(180 93.1335 40.7961)" fill="white" fill-opacity="0.2"/>
<circle cx="80.0495" cy="40.7961" r="1.54225" transform="rotate(180 80.0495 40.7961)" fill="white" fill-opacity="0.2"/>
<circle cx="66.9636" cy="40.7961" r="1.54225" transform="rotate(180 66.9636 40.7961)" fill="white" fill-opacity="0.2"/>
<circle cx="53.8796" cy="40.7961" r="1.54225" transform="rotate(180 53.8796 40.7961)" fill="white" fill-opacity="0.2"/>
<circle cx="40.7956" cy="40.7961" r="1.54225" transform="rotate(180 40.7956 40.7961)" fill="white" fill-opacity="0.2"/>
<circle cx="27.7117" cy="40.7961" r="1.54225" transform="rotate(180 27.7117 40.7961)" fill="white" fill-opacity="0.2"/>
<circle cx="14.6257" cy="40.7961" r="1.54225" transform="rotate(180 14.6257 40.7961)" fill="white" fill-opacity="0.2"/>
<circle cx="1.54173" cy="40.7961" r="1.54225" transform="rotate(180 1.54173 40.7961)" fill="white" fill-opacity="0.2"/>
<circle cx="93.1335" cy="27.7117" r="1.54225" transform="rotate(180 93.1335 27.7117)" fill="white" fill-opacity="0.2"/>
<circle cx="80.0495" cy="27.7117" r="1.54225" transform="rotate(180 80.0495 27.7117)" fill="white" fill-opacity="0.2"/>
<circle cx="66.9636" cy="27.7117" r="1.54225" transform="rotate(180 66.9636 27.7117)" fill="white" fill-opacity="0.2"/>
<circle cx="53.8796" cy="27.7117" r="1.54225" transform="rotate(180 53.8796 27.7117)" fill="white" fill-opacity="0.2"/>
<circle cx="40.7956" cy="27.7117" r="1.54225" transform="rotate(180 40.7956 27.7117)" fill="white" fill-opacity="0.2"/>
<circle cx="27.7117" cy="27.7117" r="1.54225" transform="rotate(180 27.7117 27.7117)" fill="white" fill-opacity="0.2"/>
<circle cx="14.6257" cy="27.7117" r="1.54225" transform="rotate(180 14.6257 27.7117)" fill="white" fill-opacity="0.2"/>
<circle cx="1.54173" cy="27.7117" r="1.54225" transform="rotate(180 1.54173 27.7117)" fill="white" fill-opacity="0.2"/>
<circle cx="93.1335" cy="14.6272" r="1.54225" transform="rotate(180 93.1335 14.6272)" fill="white" fill-opacity="0.2"/>
<circle cx="80.0495" cy="14.6272" r="1.54225" transform="rotate(180 80.0495 14.6272)" fill="white" fill-opacity="0.2"/>
<circle cx="66.9636" cy="14.6272" r="1.54225" transform="rotate(180 66.9636 14.6272)" fill="white" fill-opacity="0.2"/>
<circle cx="53.8796" cy="14.6272" r="1.54225" transform="rotate(180 53.8796 14.6272)" fill="white" fill-opacity="0.2"/>
<circle cx="40.7956" cy="14.6272" r="1.54225" transform="rotate(180 40.7956 14.6272)" fill="white" fill-opacity="0.2"/>
<circle cx="27.7117" cy="14.6272" r="1.54225" transform="rotate(180 27.7117 14.6272)" fill="white" fill-opacity="0.2"/>
<circle cx="14.6257" cy="14.6272" r="1.54225" transform="rotate(180 14.6257 14.6272)" fill="white" fill-opacity="0.2"/>
<circle cx="1.54173" cy="14.6272" r="1.54225" transform="rotate(180 1.54173 14.6272)" fill="white" fill-opacity="0.2"/>
<circle cx="93.1335" cy="1.54271" r="1.54225" transform="rotate(180 93.1335 1.54271)" fill="white" fill-opacity="0.2"/>
<circle cx="80.0495" cy="1.54271" r="1.54225" transform="rotate(180 80.0495 1.54271)" fill="white" fill-opacity="0.2"/>
<circle cx="66.9636" cy="1.54271" r="1.54225" transform="rotate(180 66.9636 1.54271)" fill="white" fill-opacity="0.2"/>
<circle cx="53.8796" cy="1.54271" r="1.54225" transform="rotate(180 53.8796 1.54271)" fill="white" fill-opacity="0.2"/>
<circle cx="40.7956" cy="1.54271" r="1.54225" transform="rotate(180 40.7956 1.54271)" fill="white" fill-opacity="0.2"/>
<circle cx="27.7117" cy="1.54271" r="1.54225" transform="rotate(180 27.7117 1.54271)" fill="white" fill-opacity="0.2"/>
<circle cx="14.6257" cy="1.54271" r="1.54225" transform="rotate(180 14.6257 1.54271)" fill="white" fill-opacity="0.2"/>
<circle cx="1.54173" cy="1.54271" r="1.54225" transform="rotate(180 1.54173 1.54271)" fill="white" fill-opacity="0.2"/>
</svg>
