<svg width="20" height="20" viewBox="0 0 20 20" fill="none" xmlns="http://www.w3.org/2000/svg">
<path d="M9.1665 5C9.1665 5.66304 9.60549 6.29893 10.3869 6.76777C11.1683 7.23661 12.2281 7.5 13.3332 7.5C14.4382 7.5 15.498 7.23661 16.2794 6.76777C17.0609 6.29893 17.4998 5.66304 17.4998 5C17.4998 4.33696 17.0609 3.70107 16.2794 3.23223C15.498 2.76339 14.4382 2.5 13.3332 2.5C12.2281 2.5 11.1683 2.76339 10.3869 3.23223C9.60549 3.70107 9.1665 4.33696 9.1665 5Z" stroke="#6C757D" stroke-width="2" stroke-linecap="round" stroke-linejoin="round"/>
<path d="M9.1665 5V8.33333C9.1665 9.71417 11.0323 10.8333 13.3332 10.8333C15.634 10.8333 17.4998 9.71417 17.4998 8.33333V5" stroke="#6C757D" stroke-width="2" stroke-linecap="round" stroke-linejoin="round"/>
<path d="M9.1665 8.33203V11.6654C9.1665 13.0462 11.0323 14.1654 13.3332 14.1654C15.634 14.1654 17.4998 13.0462 17.4998 11.6654V8.33203" stroke="#6C757D" stroke-width="2" stroke-linecap="round" stroke-linejoin="round"/>
<path d="M9.16667 11.668V15.0013C9.16667 16.3821 11.0325 17.5013 13.3333 17.5013C15.6342 17.5013 17.5 16.3821 17.5 15.0013V11.668M5.83333 7.5013H3.75C3.41848 7.5013 3.10054 7.633 2.86612 7.86742C2.6317 8.10184 2.5 8.41978 2.5 8.7513C2.5 9.08282 2.6317 9.40077 2.86612 9.63519C3.10054 9.86961 3.41848 10.0013 3.75 10.0013H4.58333C4.91485 10.0013 5.2328 10.133 5.46722 10.3674C5.70164 10.6018 5.83333 10.9198 5.83333 11.2513C5.83333 11.5828 5.70164 11.9008 5.46722 12.1352C5.2328 12.3696 4.91485 12.5013 4.58333 12.5013H2.5M4.16667 12.5013V13.3346M4.16667 6.66797V7.5013" stroke="#6C757D" stroke-width="2" stroke-linecap="round" stroke-linejoin="round"/>
</svg>
