<svg width="57" height="57" viewBox="0 0 57 57" fill="none" xmlns="http://www.w3.org/2000/svg">
<circle cx="28.5" cy="28.5" r="28" fill="#F0F2F5"/>
<path d="M21.4993 25.5834C21.4993 22.0395 24.3722 19.1667 27.916 19.1667C31.0552 19.1667 33.67 21.4221 34.2242 24.4012C34.3019 24.8189 34.6006 25.1614 35.0039 25.2951C37.3265 26.0654 38.9994 28.2556 38.9994 30.8334C38.9994 34.055 36.3877 36.6667 33.166 36.6667C32.5217 36.6667 31.9993 37.189 31.9993 37.8334C31.9993 38.4777 32.5217 39 33.166 39C37.6763 39 41.3327 35.3437 41.3327 30.8334C41.3327 27.4588 39.2866 24.5648 36.37 23.3195C35.372 19.5844 31.9664 16.8334 27.916 16.8334C23.0835 16.8334 19.166 20.7509 19.166 25.5834C19.166 25.7004 19.1683 25.8169 19.1729 25.9328C17.0782 27.1413 15.666 29.4047 15.666 32C15.666 35.866 18.8 39 22.666 39C23.3103 39 23.8327 38.4777 23.8327 37.8334C23.8327 37.189 23.3103 36.6667 22.666 36.6667C20.0887 36.6667 17.9993 34.5774 17.9993 32C17.9993 30.0665 19.1756 28.4049 20.8561 27.697C21.3424 27.4921 21.6307 26.9864 21.5591 26.4635C21.5197 26.1763 21.4993 25.8826 21.4993 25.5834Z" fill="#475367"/>
<path d="M27.7243 31.1281C28.1663 30.7351 28.8324 30.7351 29.2744 31.1281L31.0244 32.6836C31.506 33.1117 31.5494 33.8491 31.1213 34.3307C30.7468 34.752 30.1356 34.8379 29.666 34.5662V40.1667C29.666 40.811 29.1437 41.3334 28.4993 41.3334C27.855 41.3334 27.3327 40.811 27.3327 40.1667V34.5662C26.8631 34.8379 26.2519 34.752 25.8774 34.3307C25.4493 33.8491 25.4927 33.1117 25.9743 32.6836L27.7243 31.1281Z" fill="#475367"/>
</svg>